{"glyphs":{"0":{"ha":964,"x_min":35,"x_max":929,"o":"m 482 -21 q 246 40 347 -21 q 90 214 144 100 q 35 485 35 328 q 89 756 35 642 q 244 931 143 869 q 482 992 344 992 q 720 931 619 992 q 875 756 821 869 q 929 485 929 642 q 874 214 929 328 q 718 40 819 100 q 482 -21 617 -21 m 482 210 q 626 282 575 210 q 678 482 678 354 q 627 685 678 611 q 482 760 576 760 q 337 685 388 760 q 286 482 286 611 q 338 282 286 354 q 482 210 389 210 z "},"1":{"ha":540,"x_min":35,"x_max":478,"o":"m 232 697 l 35 554 l 35 796 l 274 971 l 478 971 l 478 0 l 232 0 l 232 697 z "},"2":{"ha":808,"x_min":35,"x_max":774,"o":"m 35 140 l 189 281 l 256 340 q 381 456 338 413 q 453 543 425 499 q 482 631 482 588 q 336 760 482 760 q 197 735 265 760 q 69 665 128 710 l 69 900 q 215 967 132 943 q 393 992 299 992 q 581 951 501 992 q 701 840 660 911 q 743 681 743 769 q 694 494 743 574 q 535 314 644 414 l 411 201 l 774 201 l 774 0 l 35 0 l 35 140 z "},"3":{"ha":797,"x_min":35,"x_max":763,"o":"m 354 -21 q 178 -6 263 -21 q 35 40 94 10 l 35 235 q 318 171 175 171 q 511 286 511 171 q 464 370 511 344 q 317 396 417 396 l 182 396 l 182 583 l 311 583 q 438 611 393 583 q 483 693 483 639 q 443 772 483 744 q 329 800 403 800 q 54 722 178 800 l 54 921 q 197 973 117 954 q 364 992 278 992 q 644 916 554 992 q 735 703 735 840 q 705 585 735 640 q 617 490 675 529 q 763 274 763 426 q 667 56 763 133 q 354 -21 571 -21 z "},"4":{"ha":854,"x_min":7,"x_max":847,"o":"m 453 200 l 7 200 l 7 353 l 467 971 l 710 971 l 710 394 l 847 394 l 847 200 l 710 200 l 710 0 l 453 0 l 453 200 m 490 394 l 490 672 l 286 394 l 490 394 z "},"5":{"ha":801,"x_min":35,"x_max":767,"o":"m 335 -21 q 169 -3 251 -21 q 35 47 88 15 l 35 263 q 176 199 97 222 q 324 176 254 176 q 468 214 421 176 q 515 317 515 251 q 467 414 515 379 q 333 449 419 449 q 231 440 285 449 q 139 414 178 431 l 44 468 l 83 971 l 706 971 l 706 769 l 321 769 l 308 617 q 444 633 372 633 q 681 553 596 633 q 767 324 767 474 q 657 70 767 161 q 335 -21 547 -21 z "},"6":{"ha":872,"x_min":35,"x_max":838,"o":"m 440 -21 q 230 33 322 -21 q 86 187 138 86 q 35 424 35 288 q 97 730 35 601 q 271 925 160 858 q 528 992 382 992 q 704 967 626 992 l 704 758 q 547 792 643 792 q 378 735 443 792 q 297 569 313 679 q 393 626 332 606 q 522 647 454 647 q 687 609 615 647 q 798 499 758 571 q 838 325 838 426 q 792 148 838 226 q 658 24 747 69 q 440 -21 568 -21 m 444 169 q 547 211 506 169 q 589 313 589 253 q 547 415 589 374 q 444 457 506 457 q 343 415 385 457 q 301 313 301 372 q 343 211 301 253 q 444 169 385 169 z "},"7":{"ha":742,"x_min":21,"x_max":721,"o":"m 454 769 l 21 769 l 21 971 l 721 971 l 721 807 l 353 0 l 103 0 l 454 769 z "},"8":{"ha":865,"x_min":35,"x_max":831,"o":"m 433 -21 q 143 57 251 -21 q 35 278 35 135 q 73 417 35 360 q 175 503 111 475 q 94 592 122 539 q 67 710 67 646 q 166 917 67 843 q 433 992 265 992 q 700 917 601 992 q 799 710 799 843 q 771 591 799 644 q 692 503 743 538 q 793 418 756 476 q 831 278 831 360 q 723 57 831 135 q 433 -21 615 -21 m 433 563 q 523 596 488 563 q 558 681 558 629 q 523 766 558 732 q 433 800 488 800 q 344 767 379 800 q 310 681 310 733 q 344 596 310 629 q 433 563 379 563 m 433 169 q 537 206 497 169 q 576 303 576 243 q 536 399 576 361 q 433 436 496 436 q 331 399 371 436 q 290 303 290 361 q 330 206 290 243 q 433 169 369 169 z "},"9":{"ha":872,"x_min":35,"x_max":838,"o":"m 344 -21 q 168 3 242 -21 l 168 211 q 325 178 232 178 q 498 233 431 178 q 579 399 565 289 q 488 344 546 364 q 361 324 429 324 q 192 363 265 324 q 76 475 118 401 q 35 650 35 549 q 80 826 35 749 q 215 947 125 903 q 432 992 304 992 q 731 873 625 992 q 838 546 838 754 q 774 238 838 365 q 600 44 711 110 q 344 -21 489 -21 m 432 513 q 535 554 493 513 q 576 656 576 596 q 535 758 576 717 q 432 800 493 800 q 331 758 372 800 q 289 656 289 715 q 331 554 289 596 q 432 513 372 513 z "},"\r":{"ha":361,"x_min":0,"x_max":0,"o":""}," ":{"ha":472,"x_min":0,"x_max":0,"o":""},"A":{"ha":1088,"x_min":35,"x_max":1053,"o":"m 424 971 l 665 971 l 1053 0 l 801 0 l 724 200 l 365 200 l 288 0 l 35 0 l 424 971 m 663 389 l 544 715 l 425 389 l 663 389 z "},"Á":{"ha":1088,"x_min":35,"x_max":1053,"o":"m 532 1278 l 789 1278 l 663 1031 l 436 1031 l 532 1278 m 424 971 l 665 971 l 1053 0 l 801 0 l 724 200 l 365 200 l 288 0 l 35 0 l 424 971 m 663 389 l 544 715 l 425 389 l 663 389 z "},"Ă":{"ha":1088,"x_min":35,"x_max":1053,"o":"m 544 1031 q 357 1095 424 1031 q 290 1271 290 1160 l 472 1271 q 544 1185 472 1185 q 598 1207 579 1185 q 617 1271 617 1229 l 799 1271 q 732 1095 799 1160 q 544 1031 665 1031 m 424 971 l 665 971 l 1053 0 l 801 0 l 724 200 l 365 200 l 288 0 l 35 0 l 424 971 m 663 389 l 544 715 l 425 389 l 663 389 z "},"Ắ":{"ha":1088,"x_min":35,"x_max":1053,"o":"m 529 1446 l 729 1446 l 632 1269 l 460 1269 l 529 1446 m 544 1031 q 369 1086 435 1031 q 304 1239 304 1142 l 464 1239 q 484 1182 464 1200 q 544 1164 504 1164 q 604 1182 585 1164 q 624 1239 624 1200 l 785 1239 q 719 1086 785 1142 q 544 1031 654 1031 m 424 971 l 665 971 l 1053 0 l 801 0 l 724 200 l 365 200 l 288 0 l 35 0 l 424 971 m 663 389 l 544 715 l 425 389 l 663 389 z "},"Ặ":{"ha":1088,"x_min":35,"x_max":1053,"o":"m 544 1031 q 357 1095 424 1031 q 290 1271 290 1160 l 472 1271 q 544 1185 472 1185 q 598 1207 579 1185 q 617 1271 617 1229 l 799 1271 q 732 1095 799 1160 q 544 1031 665 1031 m 424 971 l 665 971 l 1053 0 l 801 0 l 724 200 l 365 200 l 288 0 l 35 0 l 424 971 m 663 389 l 544 715 l 425 389 l 663 389 m 546 -278 q 469 -247 501 -278 q 438 -171 438 -215 q 469 -95 438 -126 q 546 -64 501 -64 q 621 -95 590 -64 q 651 -171 651 -126 q 621 -247 651 -215 q 546 -278 590 -278 z "},"Ằ":{"ha":1088,"x_min":35,"x_max":1053,"o":"m 360 1446 l 560 1446 l 629 1269 l 457 1269 l 360 1446 m 544 1031 q 369 1086 435 1031 q 304 1239 304 1142 l 465 1239 q 485 1182 465 1200 q 544 1164 504 1164 q 605 1182 585 1164 q 625 1239 625 1200 l 785 1239 q 719 1086 785 1142 q 544 1031 654 1031 m 424 971 l 665 971 l 1053 0 l 801 0 l 724 200 l 365 200 l 288 0 l 35 0 l 424 971 m 663 389 l 544 715 l 425 389 l 663 389 z "},"Ẳ":{"ha":1088,"x_min":35,"x_max":1053,"o":"m 475 1319 q 528 1328 510 1319 q 546 1356 546 1336 q 533 1380 546 1372 q 490 1388 519 1388 q 463 1385 478 1388 q 440 1378 447 1382 l 440 1460 q 496 1472 463 1467 q 558 1476 529 1476 q 672 1449 633 1476 q 710 1375 710 1422 q 625 1279 710 1297 l 625 1253 l 475 1253 l 475 1319 m 544 1031 q 369 1086 435 1031 q 304 1239 304 1142 l 465 1239 q 485 1182 465 1200 q 544 1164 504 1164 q 605 1182 585 1164 q 625 1239 625 1200 l 785 1239 q 719 1086 785 1142 q 544 1031 654 1031 m 424 971 l 665 971 l 1053 0 l 801 0 l 724 200 l 365 200 l 288 0 l 35 0 l 424 971 m 663 389 l 544 715 l 425 389 l 663 389 z "},"Ẵ":{"ha":1088,"x_min":35,"x_max":1053,"o":"m 656 1281 q 601 1288 628 1281 q 538 1311 574 1296 q 478 1332 500 1325 q 433 1339 456 1339 q 318 1282 365 1339 l 318 1422 q 433 1469 356 1469 q 478 1463 456 1469 q 520 1450 500 1457 q 547 1440 540 1443 q 656 1411 617 1411 q 771 1468 724 1411 l 771 1326 q 656 1281 733 1281 m 544 1031 q 369 1086 435 1031 q 304 1239 304 1142 l 465 1239 q 485 1182 465 1200 q 544 1164 504 1164 q 605 1182 585 1164 q 625 1239 625 1200 l 785 1239 q 719 1086 785 1142 q 544 1031 654 1031 m 424 971 l 665 971 l 1053 0 l 801 0 l 724 200 l 365 200 l 288 0 l 35 0 l 424 971 m 663 389 l 544 715 l 425 389 l 663 389 z "},"Ǎ":{"ha":1088,"x_min":35,"x_max":1053,"o":"m 219 1282 l 463 1282 l 546 1164 l 629 1282 l 871 1282 l 654 1031 l 436 1031 l 219 1282 m 424 971 l 665 971 l 1053 0 l 801 0 l 724 200 l 365 200 l 288 0 l 35 0 l 424 971 m 663 389 l 544 715 l 425 389 l 663 389 z "},"Â":{"ha":1088,"x_min":35,"x_max":1053,"o":"m 436 1282 l 654 1282 l 871 1031 l 629 1031 l 546 1149 l 463 1031 l 219 1031 l 436 1282 m 424 971 l 665 971 l 1053 0 l 801 0 l 724 200 l 365 200 l 288 0 l 35 0 l 424 971 m 663 389 l 544 715 l 425 389 l 663 389 z "},"Ấ":{"ha":1085,"x_min":35,"x_max":1053,"o":"m 814 1385 l 1039 1385 l 926 1192 l 732 1192 l 814 1385 m 467 1249 l 639 1249 l 850 1031 l 633 1031 l 553 1124 l 472 1031 l 256 1031 l 467 1249 m 424 971 l 665 971 l 1053 0 l 801 0 l 724 200 l 365 200 l 288 0 l 35 0 l 424 971 m 663 389 l 544 715 l 425 389 l 663 389 z "},"Ậ":{"ha":1088,"x_min":35,"x_max":1053,"o":"m 436 1282 l 654 1282 l 871 1031 l 629 1031 l 546 1149 l 463 1031 l 219 1031 l 436 1282 m 424 971 l 665 971 l 1053 0 l 801 0 l 724 200 l 365 200 l 288 0 l 35 0 l 424 971 m 663 389 l 544 715 l 425 389 l 663 389 m 546 -278 q 469 -247 501 -278 q 438 -171 438 -215 q 469 -95 438 -126 q 546 -64 501 -64 q 621 -95 590 -64 q 651 -171 651 -126 q 621 -247 651 -215 q 546 -278 590 -278 z "},"Ầ":{"ha":1078,"x_min":25,"x_max":1043,"o":"m 56 1385 l 281 1385 l 363 1192 l 168 1192 l 56 1385 m 456 1249 l 628 1249 l 839 1031 l 622 1031 l 542 1124 l 461 1031 l 244 1031 l 456 1249 m 414 971 l 656 971 l 1043 0 l 792 0 l 714 200 l 356 200 l 278 0 l 25 0 l 414 971 m 653 389 l 535 715 l 415 389 l 653 389 z "},"Ẩ":{"ha":1088,"x_min":35,"x_max":1053,"o":"m 725 1247 q 779 1256 761 1247 q 797 1283 797 1264 q 742 1315 797 1315 q 690 1306 713 1315 l 690 1388 q 749 1399 714 1394 q 810 1404 783 1404 q 920 1376 881 1404 q 960 1301 960 1349 q 938 1244 960 1268 q 875 1211 915 1221 l 875 1176 l 725 1176 l 725 1247 m 456 1249 l 628 1249 l 839 1031 l 622 1031 l 542 1124 l 461 1031 l 244 1031 l 456 1249 m 424 971 l 665 971 l 1053 0 l 801 0 l 724 200 l 365 200 l 288 0 l 35 0 l 424 971 m 663 389 l 544 715 l 425 389 l 663 389 z "},"Ẫ":{"ha":1088,"x_min":35,"x_max":1053,"o":"m 665 1264 q 613 1272 639 1264 q 547 1294 586 1279 q 490 1315 513 1308 q 444 1322 467 1322 q 329 1265 376 1322 l 329 1406 q 444 1453 367 1453 q 492 1446 468 1453 q 557 1424 517 1439 q 617 1402 592 1410 q 665 1394 642 1394 q 781 1451 735 1394 l 781 1310 q 665 1264 743 1264 m 458 1249 l 631 1249 l 842 1031 l 625 1031 l 544 1124 l 464 1031 l 247 1031 l 458 1249 m 424 971 l 665 971 l 1053 0 l 801 0 l 724 200 l 365 200 l 288 0 l 35 0 l 424 971 m 663 389 l 544 715 l 425 389 l 663 389 z "},"Ä":{"ha":1088,"x_min":35,"x_max":1053,"o":"m 382 1031 q 306 1061 338 1031 q 274 1136 274 1092 q 306 1213 274 1181 q 382 1244 338 1244 q 456 1213 425 1244 q 488 1136 488 1181 q 457 1061 488 1092 q 382 1031 426 1031 m 710 1031 q 633 1061 665 1031 q 601 1136 601 1092 q 633 1213 601 1181 q 710 1244 665 1244 q 784 1213 753 1244 q 815 1136 815 1181 q 784 1061 815 1092 q 710 1031 753 1031 m 424 971 l 665 971 l 1053 0 l 801 0 l 724 200 l 365 200 l 288 0 l 35 0 l 424 971 m 663 389 l 544 715 l 425 389 l 663 389 z "},"Ạ":{"ha":1088,"x_min":35,"x_max":1053,"o":"m 424 971 l 665 971 l 1053 0 l 801 0 l 724 200 l 365 200 l 288 0 l 35 0 l 424 971 m 663 389 l 544 715 l 425 389 l 663 389 m 546 -278 q 469 -247 501 -278 q 438 -171 438 -215 q 469 -95 438 -126 q 546 -64 501 -64 q 621 -95 590 -64 q 651 -171 651 -126 q 621 -247 651 -215 q 546 -278 590 -278 z "},"À":{"ha":1088,"x_min":35,"x_max":1053,"o":"m 308 1278 l 565 1278 l 661 1031 l 435 1031 l 308 1278 m 424 971 l 665 971 l 1053 0 l 801 0 l 724 200 l 365 200 l 288 0 l 35 0 l 424 971 m 663 389 l 544 715 l 425 389 l 663 389 z "},"Ả":{"ha":1088,"x_min":35,"x_max":1053,"o":"m 440 1128 q 523 1140 494 1128 q 551 1183 551 1153 q 469 1229 551 1229 q 427 1225 451 1229 q 390 1215 403 1221 l 390 1332 q 468 1348 421 1342 q 557 1354 515 1354 q 720 1315 664 1354 q 776 1207 776 1275 q 744 1117 776 1156 q 654 1065 711 1079 l 654 1031 l 440 1031 l 440 1128 m 424 971 l 665 971 l 1053 0 l 801 0 l 724 200 l 365 200 l 288 0 l 35 0 l 424 971 m 663 389 l 544 715 l 425 389 l 663 389 z "},"Ā":{"ha":1088,"x_min":35,"x_max":1053,"o":"m 306 1201 l 785 1201 l 785 1044 l 306 1044 l 306 1201 m 424 971 l 665 971 l 1053 0 l 801 0 l 724 200 l 365 200 l 288 0 l 35 0 l 424 971 m 663 389 l 544 715 l 425 389 l 663 389 z "},"Ą":{"ha":1088,"x_min":35,"x_max":1053,"o":"m 919 -117 q 932 -150 919 -137 q 967 -162 944 -162 q 1033 -146 1003 -162 l 1033 -279 q 890 -300 974 -300 q 759 -267 810 -300 q 708 -165 708 -233 q 735 -70 708 -112 q 807 0 761 -28 l 801 0 l 724 200 l 365 200 l 288 0 l 35 0 l 424 971 l 665 971 l 1053 0 l 1029 0 q 946 -58 972 -31 q 919 -117 919 -86 m 663 389 l 544 715 l 425 389 l 663 389 z "},"Å":{"ha":1088,"x_min":35,"x_max":1053,"o":"m 1053 0 l 801 0 l 724 200 l 365 200 l 288 0 l 35 0 l 410 935 q 365 998 381 961 q 349 1075 349 1035 q 375 1173 349 1128 q 447 1244 401 1218 q 544 1269 492 1269 q 643 1244 597 1269 q 715 1173 689 1218 q 742 1075 742 1128 q 726 998 742 1035 q 681 935 710 961 l 1053 0 m 544 1139 q 499 1120 518 1139 q 481 1075 481 1101 q 499 1030 481 1049 q 544 1011 518 1011 q 590 1030 571 1011 q 608 1075 608 1049 q 590 1121 608 1103 q 544 1139 572 1139 m 663 389 l 544 715 l 425 389 l 663 389 z "},"Ǻ":{"ha":1088,"x_min":35,"x_max":1053,"o":"m 643 1290 l 417 1290 l 513 1488 l 769 1488 l 643 1290 m 1053 0 l 801 0 l 724 200 l 365 200 l 288 0 l 35 0 l 410 935 q 365 998 381 961 q 349 1075 349 1035 q 375 1173 349 1128 q 447 1244 401 1218 q 544 1269 492 1269 q 643 1244 597 1269 q 715 1173 689 1218 q 742 1075 742 1128 q 726 998 742 1035 q 681 935 710 961 l 1053 0 m 544 1139 q 499 1120 518 1139 q 481 1075 481 1101 q 499 1030 481 1049 q 544 1011 518 1011 q 590 1030 571 1011 q 608 1075 608 1049 q 590 1121 608 1103 q 544 1139 572 1139 m 663 389 l 544 715 l 425 389 l 663 389 z "},"Ã":{"ha":1088,"x_min":35,"x_max":1053,"o":"m 263 1208 q 408 1267 311 1267 q 469 1258 439 1267 q 549 1232 500 1250 q 621 1206 590 1215 q 682 1197 651 1197 q 828 1267 769 1197 l 828 1089 q 682 1032 781 1032 q 614 1041 647 1032 q 536 1068 581 1050 q 465 1093 492 1085 q 408 1101 438 1101 q 263 1031 322 1101 l 263 1208 m 424 971 l 665 971 l 1053 0 l 801 0 l 724 200 l 365 200 l 288 0 l 35 0 l 424 971 m 663 389 l 544 715 l 425 389 l 663 389 z "},"Æ":{"ha":1260,"x_min":35,"x_max":1239,"o":"m 460 971 l 1239 971 l 1239 764 l 836 764 l 836 582 l 1121 582 l 1121 389 l 836 389 l 836 207 l 1239 207 l 1239 0 l 589 0 l 589 201 l 388 201 l 299 0 l 35 0 l 460 971 m 589 394 l 589 724 l 588 724 l 457 394 l 589 394 z "},"Ǽ":{"ha":1274,"x_min":35,"x_max":1239,"o":"m 732 1278 l 989 1278 l 863 1031 l 636 1031 l 732 1278 m 460 971 l 1239 971 l 1239 764 l 836 764 l 836 582 l 1121 582 l 1121 389 l 836 389 l 836 207 l 1239 207 l 1239 0 l 589 0 l 589 201 l 388 201 l 299 0 l 35 0 l 460 971 m 589 394 l 589 724 l 588 724 l 457 394 l 589 394 z "},"B":{"ha":922,"x_min":63,"x_max":888,"o":"m 63 971 l 554 971 q 776 901 694 971 q 857 703 857 832 q 829 589 857 642 q 750 506 801 536 q 854 426 821 478 q 888 290 888 374 q 846 135 888 201 q 734 35 804 69 q 578 0 664 0 l 63 0 l 63 971 m 500 586 q 608 688 608 586 q 581 766 608 744 q 496 788 553 788 l 308 788 l 308 586 l 500 586 m 515 183 q 608 207 578 183 q 639 290 639 231 q 607 377 639 350 q 510 404 575 404 l 308 404 l 308 183 l 515 183 z "},"C":{"ha":947,"x_min":35,"x_max":913,"o":"m 564 -21 q 285 40 406 -21 q 100 216 165 101 q 35 485 35 331 q 100 753 35 639 q 285 930 165 868 q 564 992 406 992 q 750 971 668 992 q 901 906 832 950 l 901 672 q 763 743 840 721 q 586 765 686 765 q 365 691 443 765 q 288 485 288 617 q 366 278 288 353 q 586 203 444 203 q 765 226 686 203 q 913 301 844 250 l 913 69 q 564 -21 781 -21 z "},"Ć":{"ha":947,"x_min":35,"x_max":913,"o":"m 543 1278 l 800 1278 l 674 1031 l 447 1031 l 543 1278 m 564 -21 q 285 40 406 -21 q 100 216 165 101 q 35 485 35 331 q 100 753 35 639 q 285 930 165 868 q 564 992 406 992 q 750 971 668 992 q 901 906 832 950 l 901 672 q 763 743 840 721 q 586 765 686 765 q 365 691 443 765 q 288 485 288 617 q 366 278 288 353 q 586 203 444 203 q 765 226 686 203 q 913 301 844 250 l 913 69 q 564 -21 781 -21 z "},"Č":{"ha":929,"x_min":35,"x_max":913,"o":"m 235 1282 l 478 1282 l 561 1164 l 644 1282 l 886 1282 l 669 1031 l 451 1031 l 235 1282 m 564 -21 q 285 40 406 -21 q 100 216 165 101 q 35 485 35 331 q 100 753 35 639 q 285 930 165 868 q 564 992 406 992 q 750 971 668 992 q 901 906 832 950 l 901 672 q 763 743 840 721 q 586 765 686 765 q 365 691 443 765 q 288 485 288 617 q 366 278 288 353 q 586 203 444 203 q 765 226 686 203 q 913 301 844 250 l 913 69 q 564 -21 781 -21 z "},"Ç":{"ha":947,"x_min":35,"x_max":913,"o":"m 913 69 q 692 -12 821 7 l 671 -64 q 763 -105 732 -74 q 794 -196 794 -136 q 735 -307 794 -269 q 572 -344 675 -344 q 481 -339 525 -344 q 415 -325 438 -333 l 415 -207 q 500 -226 451 -226 q 551 -214 533 -226 q 569 -179 569 -201 q 538 -138 569 -153 q 433 -124 507 -124 l 475 -15 q 241 67 340 1 q 88 239 142 132 q 35 485 35 346 q 100 753 35 639 q 285 930 165 868 q 564 992 406 992 q 750 971 668 992 q 901 906 832 950 l 901 672 q 763 743 840 721 q 586 765 686 765 q 365 691 443 765 q 288 485 288 617 q 366 278 288 353 q 586 203 444 203 q 765 226 686 203 q 913 301 844 250 l 913 69 z "},"Ĉ":{"ha":947,"x_min":35,"x_max":913,"o":"m 435 1282 l 653 1282 l 869 1031 l 628 1031 l 544 1149 l 461 1031 l 218 1031 l 435 1282 m 564 -21 q 285 40 406 -21 q 100 216 165 101 q 35 485 35 331 q 100 753 35 639 q 285 930 165 868 q 564 992 406 992 q 750 971 668 992 q 901 906 832 950 l 901 672 q 763 743 840 721 q 586 765 686 765 q 365 691 443 765 q 288 485 288 617 q 366 278 288 353 q 586 203 444 203 q 765 226 686 203 q 913 301 844 250 l 913 69 q 564 -21 781 -21 z "},"Ċ":{"ha":947,"x_min":35,"x_max":913,"o":"m 571 1044 q 494 1075 526 1044 q 463 1150 463 1106 q 494 1226 463 1194 q 571 1258 526 1258 q 645 1226 614 1258 q 676 1150 676 1194 q 646 1075 676 1106 q 571 1044 615 1044 m 564 -21 q 285 40 406 -21 q 100 216 165 101 q 35 485 35 331 q 100 753 35 639 q 285 930 165 868 q 564 992 406 992 q 750 971 668 992 q 901 906 832 950 l 901 672 q 763 743 840 721 q 586 765 686 765 q 365 691 443 765 q 288 485 288 617 q 366 278 288 353 q 586 203 444 203 q 765 226 686 203 q 913 301 844 250 l 913 69 q 564 -21 781 -21 z "},"D":{"ha":974,"x_min":63,"x_max":939,"o":"m 63 971 l 411 971 q 690 913 571 971 q 874 745 810 854 q 939 490 939 636 q 797 124 939 249 q 404 0 656 0 l 63 0 l 63 971 m 425 207 q 619 283 551 207 q 686 490 686 360 q 619 687 686 610 q 433 764 551 764 l 308 764 l 308 207 l 425 207 z "},"Ð":{"ha":1031,"x_min":49,"x_max":996,"o":"m 119 393 l 49 393 l 49 576 l 119 576 l 119 971 l 468 971 q 747 913 628 971 q 931 745 867 854 q 996 490 996 636 q 854 124 996 249 q 461 0 713 0 l 119 0 l 119 393 m 482 207 q 676 283 608 207 q 743 490 743 360 q 676 687 743 610 q 490 764 608 764 l 365 764 l 365 576 l 564 576 l 564 393 l 365 393 l 365 207 l 482 207 z "},"Ď":{"ha":974,"x_min":63,"x_max":939,"o":"m 125 1282 l 368 1282 l 451 1164 l 535 1282 l 776 1282 l 560 1031 l 342 1031 l 125 1282 m 63 971 l 411 971 q 690 913 571 971 q 874 745 810 854 q 939 490 939 636 q 797 124 939 249 q 404 0 656 0 l 63 0 l 63 971 m 425 207 q 619 283 551 207 q 686 490 686 360 q 619 687 686 610 q 433 764 551 764 l 308 764 l 308 207 l 425 207 z "},"Đ":{"ha":1031,"x_min":49,"x_max":996,"o":"m 119 393 l 49 393 l 49 576 l 119 576 l 119 971 l 468 971 q 747 913 628 971 q 931 745 867 854 q 996 490 996 636 q 854 124 996 249 q 461 0 713 0 l 119 0 l 119 393 m 482 207 q 676 283 608 207 q 743 490 743 360 q 676 687 743 610 q 490 764 608 764 l 365 764 l 365 576 l 564 576 l 564 393 l 365 393 l 365 207 l 482 207 z "},"Ḍ":{"ha":974,"x_min":63,"x_max":939,"o":"m 63 971 l 411 971 q 690 913 571 971 q 874 745 810 854 q 939 490 939 636 q 797 124 939 249 q 404 0 656 0 l 63 0 l 63 971 m 425 207 q 619 283 551 207 q 686 490 686 360 q 619 687 686 610 q 433 764 551 764 l 308 764 l 308 207 l 425 207 m 428 -278 q 351 -247 383 -278 q 319 -171 319 -215 q 351 -95 319 -126 q 428 -64 383 -64 q 503 -95 472 -64 q 533 -171 533 -126 q 503 -247 533 -215 q 428 -278 472 -278 z "},"Ḏ":{"ha":974,"x_min":63,"x_max":939,"o":"m 63 971 l 411 971 q 690 913 571 971 q 874 745 810 854 q 939 490 939 636 q 797 124 939 249 q 404 0 656 0 l 63 0 l 63 971 m 425 207 q 619 283 551 207 q 686 490 686 360 q 619 687 686 610 q 433 764 551 764 l 308 764 l 308 207 l 425 207 m 196 -82 l 675 -82 l 675 -239 l 196 -239 l 196 -82 z "},"E":{"ha":786,"x_min":63,"x_max":751,"o":"m 63 971 l 751 971 l 751 764 l 308 764 l 308 582 l 632 582 l 632 389 l 308 389 l 308 207 l 751 207 l 751 0 l 63 0 l 63 971 z "},"É":{"ha":786,"x_min":63,"x_max":751,"o":"m 381 1267 l 638 1267 l 511 1019 l 285 1019 l 381 1267 m 63 971 l 751 971 l 751 764 l 308 764 l 308 582 l 632 582 l 632 389 l 308 389 l 308 207 l 751 207 l 751 0 l 63 0 l 63 971 z "},"Ĕ":{"ha":786,"x_min":63,"x_max":751,"o":"m 428 1031 q 240 1095 307 1031 q 174 1271 174 1160 l 356 1271 q 428 1185 356 1185 q 481 1207 463 1185 q 500 1271 500 1229 l 682 1271 q 615 1095 682 1160 q 428 1031 549 1031 m 63 971 l 751 971 l 751 764 l 308 764 l 308 582 l 632 582 l 632 389 l 308 389 l 308 207 l 751 207 l 751 0 l 63 0 l 63 971 z "},"Ě":{"ha":786,"x_min":63,"x_max":751,"o":"m 99 1282 l 342 1282 l 425 1164 l 508 1282 l 750 1282 l 533 1031 l 315 1031 l 99 1282 m 63 971 l 751 971 l 751 764 l 308 764 l 308 582 l 632 582 l 632 389 l 308 389 l 308 207 l 751 207 l 751 0 l 63 0 l 63 971 z "},"Ê":{"ha":786,"x_min":63,"x_max":751,"o":"m 296 1282 l 514 1282 l 731 1031 l 489 1031 l 406 1149 l 322 1031 l 79 1031 l 296 1282 m 63 971 l 751 971 l 751 764 l 308 764 l 308 582 l 632 582 l 632 389 l 308 389 l 308 207 l 751 207 l 751 0 l 63 0 l 63 971 z "},"Ế":{"ha":786,"x_min":63,"x_max":899,"o":"m 674 1385 l 899 1385 l 786 1192 l 592 1192 l 674 1385 m 326 1249 l 499 1249 l 710 1031 l 493 1031 l 413 1124 l 332 1031 l 115 1031 l 326 1249 m 63 971 l 751 971 l 751 764 l 308 764 l 308 582 l 632 582 l 632 389 l 308 389 l 308 207 l 751 207 l 751 0 l 63 0 l 63 971 z "},"Ệ":{"ha":786,"x_min":63,"x_max":751,"o":"m 314 1282 l 532 1282 l 749 1031 l 507 1031 l 424 1149 l 340 1031 l 97 1031 l 314 1282 m 63 971 l 751 971 l 751 764 l 308 764 l 308 582 l 632 582 l 632 389 l 308 389 l 308 207 l 751 207 l 751 0 l 63 0 l 63 971 m 425 -278 q 349 -247 381 -278 q 317 -171 317 -215 q 349 -95 317 -126 q 425 -64 381 -64 q 500 -95 469 -64 q 531 -171 531 -126 q 500 -247 531 -215 q 425 -278 469 -278 z "},"Ề":{"ha":786,"x_min":-81,"x_max":751,"o":"m -81 1385 l 144 1385 l 226 1192 l 32 1192 l -81 1385 m 342 1249 l 514 1249 l 725 1031 l 508 1031 l 428 1124 l 347 1031 l 131 1031 l 342 1249 m 63 971 l 751 971 l 751 764 l 308 764 l 308 582 l 632 582 l 632 389 l 308 389 l 308 207 l 751 207 l 751 0 l 63 0 l 63 971 z "},"Ể":{"ha":786,"x_min":63,"x_max":832,"o":"m 597 1247 q 651 1256 633 1247 q 669 1283 669 1264 q 614 1315 669 1315 q 563 1306 585 1315 l 563 1388 q 621 1399 586 1394 q 682 1404 656 1404 q 792 1376 753 1404 q 832 1301 832 1349 q 810 1244 832 1268 q 747 1211 788 1221 l 747 1176 l 597 1176 l 597 1247 m 328 1249 l 500 1249 l 711 1031 l 494 1031 l 414 1124 l 333 1031 l 117 1031 l 328 1249 m 63 971 l 751 971 l 751 764 l 308 764 l 308 582 l 632 582 l 632 389 l 308 389 l 308 207 l 751 207 l 751 0 l 63 0 l 63 971 z "},"Ễ":{"ha":786,"x_min":63,"x_max":751,"o":"m 542 1264 q 489 1272 515 1264 q 424 1294 463 1279 q 366 1315 389 1308 q 321 1322 343 1322 q 206 1265 253 1322 l 206 1406 q 321 1453 243 1453 q 369 1446 344 1453 q 433 1424 393 1439 q 493 1402 468 1410 q 542 1394 518 1394 q 657 1451 611 1394 l 657 1310 q 542 1264 619 1264 m 335 1249 l 507 1249 l 718 1031 l 501 1031 l 421 1124 l 340 1031 l 124 1031 l 335 1249 m 63 971 l 751 971 l 751 764 l 308 764 l 308 582 l 632 582 l 632 389 l 308 389 l 308 207 l 751 207 l 751 0 l 63 0 l 63 971 z "},"Ë":{"ha":786,"x_min":63,"x_max":751,"o":"m 250 1044 q 174 1075 206 1044 q 142 1150 142 1106 q 174 1226 142 1194 q 250 1258 206 1258 q 324 1226 293 1258 q 356 1150 356 1194 q 325 1075 356 1106 q 250 1044 294 1044 m 578 1044 q 501 1075 533 1044 q 469 1150 469 1106 q 501 1226 469 1194 q 578 1258 533 1258 q 652 1226 621 1258 q 683 1150 683 1194 q 652 1075 683 1106 q 578 1044 621 1044 m 63 971 l 751 971 l 751 764 l 308 764 l 308 582 l 632 582 l 632 389 l 308 389 l 308 207 l 751 207 l 751 0 l 63 0 l 63 971 z "},"Ė":{"ha":786,"x_min":63,"x_max":751,"o":"m 426 1044 q 350 1075 382 1044 q 318 1150 318 1106 q 350 1226 318 1194 q 426 1258 382 1258 q 501 1226 469 1258 q 532 1150 532 1194 q 501 1075 532 1106 q 426 1044 471 1044 m 63 971 l 751 971 l 751 764 l 308 764 l 308 582 l 632 582 l 632 389 l 308 389 l 308 207 l 751 207 l 751 0 l 63 0 l 63 971 z "},"Ẹ":{"ha":786,"x_min":63,"x_max":751,"o":"m 63 971 l 751 971 l 751 764 l 308 764 l 308 582 l 632 582 l 632 389 l 308 389 l 308 207 l 751 207 l 751 0 l 63 0 l 63 971 m 411 -278 q 335 -247 367 -278 q 303 -171 303 -215 q 335 -95 303 -126 q 411 -64 367 -64 q 486 -95 456 -64 q 517 -171 517 -126 q 486 -247 517 -215 q 411 -278 456 -278 z "},"È":{"ha":786,"x_min":63,"x_max":751,"o":"m 182 1278 l 439 1278 l 535 1031 l 308 1031 l 182 1278 m 63 971 l 751 971 l 751 764 l 308 764 l 308 582 l 632 582 l 632 389 l 308 389 l 308 207 l 751 207 l 751 0 l 63 0 l 63 971 z "},"Ẻ":{"ha":786,"x_min":63,"x_max":751,"o":"m 297 1128 q 380 1140 351 1128 q 408 1183 408 1153 q 326 1229 408 1229 q 284 1225 308 1229 q 247 1215 260 1221 l 247 1332 q 325 1348 278 1342 q 414 1354 372 1354 q 577 1315 521 1354 q 633 1207 633 1275 q 601 1117 633 1156 q 511 1065 568 1079 l 511 1031 l 297 1031 l 297 1128 m 63 971 l 751 971 l 751 764 l 308 764 l 308 582 l 632 582 l 632 389 l 308 389 l 308 207 l 751 207 l 751 0 l 63 0 l 63 971 z "},"Ē":{"ha":786,"x_min":63,"x_max":751,"o":"m 192 1201 l 671 1201 l 671 1044 l 192 1044 l 192 1201 m 63 971 l 751 971 l 751 764 l 308 764 l 308 582 l 632 582 l 632 389 l 308 389 l 308 207 l 751 207 l 751 0 l 63 0 l 63 971 z "},"Ę":{"ha":799,"x_min":63,"x_max":764,"o":"m 697 -162 q 764 -146 733 -162 l 764 -279 q 621 -300 704 -300 q 490 -267 540 -300 q 439 -165 439 -233 q 465 -70 439 -112 q 538 0 492 -28 l 63 0 l 63 971 l 751 971 l 751 764 l 308 764 l 308 582 l 632 582 l 632 389 l 308 389 l 308 207 l 751 207 l 751 0 l 760 0 q 676 -58 703 -31 q 650 -117 650 -86 q 663 -150 650 -137 q 697 -162 675 -162 z "},"Ẽ":{"ha":786,"x_min":63,"x_max":751,"o":"m 147 1208 q 293 1267 196 1267 q 354 1258 324 1267 q 433 1232 385 1250 q 506 1206 475 1215 q 567 1197 536 1197 q 713 1267 654 1197 l 713 1089 q 567 1032 665 1032 q 499 1041 532 1032 q 421 1068 465 1050 q 349 1093 376 1085 q 293 1101 322 1101 q 147 1031 207 1101 l 147 1208 m 63 971 l 751 971 l 751 764 l 308 764 l 308 582 l 632 582 l 632 389 l 308 389 l 308 207 l 751 207 l 751 0 l 63 0 l 63 971 z "},"F":{"ha":758,"x_min":63,"x_max":751,"o":"m 63 971 l 751 971 l 751 764 l 308 764 l 308 582 l 632 582 l 632 389 l 308 389 l 308 0 l 63 0 l 63 971 z "},"G":{"ha":965,"x_min":35,"x_max":931,"o":"m 564 -21 q 285 40 406 -21 q 100 216 165 101 q 35 485 35 331 q 100 753 35 639 q 285 930 165 868 q 564 992 406 992 q 751 972 669 992 q 901 907 832 951 l 901 674 q 763 744 840 722 q 586 765 686 765 q 433 731 500 765 q 326 633 365 697 q 288 485 288 569 q 365 276 288 353 q 574 200 442 200 q 697 225 647 200 l 697 381 l 549 381 l 549 553 l 931 553 l 931 69 q 564 -21 782 -21 z "},"Ğ":{"ha":965,"x_min":35,"x_max":931,"o":"m 575 1031 q 388 1095 454 1031 q 321 1271 321 1160 l 503 1271 q 575 1185 503 1185 q 628 1207 610 1185 q 647 1271 647 1229 l 829 1271 q 763 1095 829 1160 q 575 1031 696 1031 m 564 -21 q 285 40 406 -21 q 100 216 165 101 q 35 485 35 331 q 100 753 35 639 q 285 930 165 868 q 564 992 406 992 q 751 972 669 992 q 901 907 832 951 l 901 674 q 763 744 840 722 q 586 765 686 765 q 433 731 500 765 q 326 633 365 697 q 288 485 288 569 q 365 276 288 353 q 574 200 442 200 q 697 225 647 200 l 697 381 l 549 381 l 549 553 l 931 553 l 931 69 q 564 -21 782 -21 z "},"Ǧ":{"ha":965,"x_min":35,"x_max":931,"o":"m 188 1282 l 431 1282 l 514 1164 l 597 1282 l 839 1282 l 622 1031 l 404 1031 l 188 1282 m 564 -21 q 285 40 406 -21 q 100 216 165 101 q 35 485 35 331 q 100 753 35 639 q 285 930 165 868 q 564 992 406 992 q 751 972 669 992 q 901 907 832 951 l 901 674 q 763 744 840 722 q 586 765 686 765 q 433 731 500 765 q 326 633 365 697 q 288 485 288 569 q 365 276 288 353 q 574 200 442 200 q 697 225 647 200 l 697 381 l 549 381 l 549 553 l 931 553 l 931 69 q 564 -21 782 -21 z "},"Ĝ":{"ha":965,"x_min":35,"x_max":931,"o":"m 442 1282 l 660 1282 l 876 1031 l 635 1031 l 551 1149 l 468 1031 l 225 1031 l 442 1282 m 564 -21 q 285 40 406 -21 q 100 216 165 101 q 35 485 35 331 q 100 753 35 639 q 285 930 165 868 q 564 992 406 992 q 751 972 669 992 q 901 907 832 951 l 901 674 q 763 744 840 722 q 586 765 686 765 q 433 731 500 765 q 326 633 365 697 q 288 485 288 569 q 365 276 288 353 q 574 200 442 200 q 697 225 647 200 l 697 381 l 549 381 l 549 553 l 931 553 l 931 69 q 564 -21 782 -21 z "},"Ģ":{"ha":965,"x_min":35,"x_max":931,"o":"m 564 -21 q 285 40 406 -21 q 100 216 165 101 q 35 485 35 331 q 100 753 35 639 q 285 930 165 868 q 564 992 406 992 q 751 972 669 992 q 901 907 832 951 l 901 674 q 763 744 840 722 q 586 765 686 765 q 433 731 500 765 q 326 633 365 697 q 288 485 288 569 q 365 276 288 353 q 574 200 442 200 q 697 225 647 200 l 697 381 l 549 381 l 549 553 l 931 553 l 931 69 q 564 -21 782 -21 m 460 -68 l 713 -68 l 567 -361 l 344 -361 l 460 -68 z "},"Ġ":{"ha":965,"x_min":35,"x_max":931,"o":"m 560 1044 q 483 1075 515 1044 q 451 1150 451 1106 q 483 1226 451 1194 q 560 1258 515 1258 q 634 1226 603 1258 q 665 1150 665 1194 q 635 1075 665 1106 q 560 1044 604 1044 m 564 -21 q 285 40 406 -21 q 100 216 165 101 q 35 485 35 331 q 100 753 35 639 q 285 930 165 868 q 564 992 406 992 q 751 972 669 992 q 901 907 832 951 l 901 674 q 763 744 840 722 q 586 765 686 765 q 433 731 500 765 q 326 633 365 697 q 288 485 288 569 q 365 276 288 353 q 574 200 442 200 q 697 225 647 200 l 697 381 l 549 381 l 549 553 l 931 553 l 931 69 q 564 -21 782 -21 z "},"Ḡ":{"ha":965,"x_min":35,"x_max":931,"o":"m 333 1201 l 813 1201 l 813 1044 l 333 1044 l 333 1201 m 564 -21 q 285 40 406 -21 q 100 216 165 101 q 35 485 35 331 q 100 753 35 639 q 285 930 165 868 q 564 992 406 992 q 751 972 669 992 q 901 907 832 951 l 901 674 q 763 744 840 722 q 586 765 686 765 q 433 731 500 765 q 326 633 365 697 q 288 485 288 569 q 365 276 288 353 q 574 200 442 200 q 697 225 647 200 l 697 381 l 549 381 l 549 553 l 931 553 l 931 69 q 564 -21 782 -21 z "},"H":{"ha":997,"x_min":63,"x_max":935,"o":"m 63 971 l 308 971 l 308 596 l 689 596 l 689 971 l 935 971 l 935 0 l 689 0 l 689 392 l 308 392 l 308 0 l 63 0 l 63 971 z "},"Ħ":{"ha":1093,"x_min":49,"x_max":1044,"o":"m 108 694 l 49 694 l 49 881 l 108 881 l 108 971 l 365 971 l 365 881 l 724 881 l 724 971 l 981 971 l 981 881 l 1044 881 l 1044 694 l 981 694 l 981 0 l 724 0 l 724 375 l 365 375 l 365 0 l 108 0 l 108 694 m 724 613 l 724 694 l 365 694 l 365 613 l 724 613 z "},"Ḫ":{"ha":997,"x_min":63,"x_max":935,"o":"m 63 971 l 308 971 l 308 596 l 689 596 l 689 971 l 935 971 l 935 0 l 689 0 l 689 392 l 308 392 l 308 0 l 63 0 l 63 971 m 499 -315 q 311 -251 378 -315 q 244 -75 244 -186 l 426 -75 q 499 -161 426 -161 q 552 -139 533 -161 q 571 -75 571 -117 l 753 -75 q 686 -251 753 -186 q 499 -315 619 -315 z "},"Ĥ":{"ha":997,"x_min":63,"x_max":935,"o":"m 390 1282 l 608 1282 l 825 1031 l 583 1031 l 500 1149 l 417 1031 l 174 1031 l 390 1282 m 63 971 l 308 971 l 308 596 l 689 596 l 689 971 l 935 971 l 935 0 l 689 0 l 689 392 l 308 392 l 308 0 l 63 0 l 63 971 z "},"Ḥ":{"ha":997,"x_min":63,"x_max":935,"o":"m 63 971 l 308 971 l 308 596 l 689 596 l 689 971 l 935 971 l 935 0 l 689 0 l 689 392 l 308 392 l 308 0 l 63 0 l 63 971 m 500 -278 q 424 -247 456 -278 q 392 -171 392 -215 q 424 -95 392 -126 q 500 -64 456 -64 q 575 -95 544 -64 q 606 -171 606 -126 q 575 -247 606 -215 q 500 -278 544 -278 z "},"I":{"ha":371,"x_min":63,"x_max":308,"o":"m 63 971 l 308 971 l 308 0 l 63 0 l 63 971 z "},"Ĳ":{"ha":915,"x_min":63,"x_max":860,"o":"m 63 971 l 308 971 l 308 0 l 63 0 l 63 971 m 556 -21 q 459 -12 510 -21 q 383 11 408 -3 l 383 228 q 437 213 404 218 q 503 207 469 207 q 589 233 564 207 q 614 318 614 258 l 614 971 l 860 971 l 860 290 q 782 63 860 147 q 556 -21 704 -21 z "},"Í":{"ha":371,"x_min":63,"x_max":421,"o":"m 164 1278 l 421 1278 l 294 1031 l 68 1031 l 164 1278 m 63 971 l 308 971 l 308 0 l 63 0 l 63 971 z "},"Ĭ":{"ha":371,"x_min":-69,"x_max":439,"o":"m 185 1031 q -3 1095 64 1031 q -69 1271 -69 1160 l 113 1271 q 185 1185 113 1185 q 238 1207 219 1185 q 257 1271 257 1229 l 439 1271 q 372 1095 439 1160 q 185 1031 306 1031 m 63 971 l 308 971 l 308 0 l 63 0 l 63 971 z "},"Ǐ":{"ha":371,"x_min":-142,"x_max":510,"o":"m -142 1282 l 101 1282 l 185 1164 l 268 1282 l 510 1282 l 293 1031 l 75 1031 l -142 1282 m 63 971 l 308 971 l 308 0 l 63 0 l 63 971 z "},"Î":{"ha":371,"x_min":-140,"x_max":511,"o":"m 76 1282 l 294 1282 l 511 1031 l 269 1031 l 186 1149 l 103 1031 l -140 1031 l 76 1282 m 63 971 l 308 971 l 308 0 l 63 0 l 63 971 z "},"Ï":{"ha":371,"x_min":-86,"x_max":456,"o":"m 22 1044 q -54 1075 -22 1044 q -86 1150 -86 1106 q -54 1226 -86 1194 q 22 1258 -22 1258 q 97 1226 65 1258 q 128 1150 128 1194 q 97 1075 128 1106 q 22 1044 67 1044 m 350 1044 q 274 1075 306 1044 q 242 1150 242 1106 q 274 1226 242 1194 q 350 1258 306 1258 q 424 1226 393 1258 q 456 1150 456 1194 q 424 1075 456 1106 q 350 1044 393 1044 m 63 971 l 308 971 l 308 0 l 63 0 l 63 971 z "},"İ":{"ha":371,"x_min":63,"x_max":308,"o":"m 186 1044 q 110 1075 142 1044 q 78 1150 78 1106 q 110 1226 78 1194 q 186 1258 142 1258 q 260 1226 229 1258 q 292 1150 292 1194 q 261 1075 292 1106 q 186 1044 231 1044 m 63 971 l 308 971 l 308 0 l 63 0 l 63 971 z "},"Ị":{"ha":371,"x_min":63,"x_max":308,"o":"m 63 971 l 308 971 l 308 0 l 63 0 l 63 971 m 186 -278 q 110 -247 142 -278 q 78 -171 78 -215 q 110 -95 78 -126 q 186 -64 142 -64 q 261 -95 231 -64 q 292 -171 292 -126 q 261 -247 292 -215 q 186 -278 231 -278 z "},"Ì":{"ha":371,"x_min":-50,"x_max":308,"o":"m -50 1278 l 207 1278 l 303 1031 l 76 1031 l -50 1278 m 63 971 l 308 971 l 308 0 l 63 0 l 63 971 z "},"Ỉ":{"ha":371,"x_min":28,"x_max":414,"o":"m 78 1128 q 160 1140 132 1128 q 189 1183 189 1153 q 107 1229 189 1229 q 65 1225 89 1229 q 28 1215 40 1221 l 28 1332 q 106 1348 58 1342 q 194 1354 153 1354 q 358 1315 301 1354 q 414 1207 414 1275 q 381 1117 414 1156 q 292 1065 349 1079 l 292 1031 l 78 1031 l 78 1128 m 63 971 l 308 971 l 308 0 l 63 0 l 63 971 z "},"Ī":{"ha":371,"x_min":-64,"x_max":435,"o":"m -64 1201 l 435 1201 l 435 1044 l -64 1044 l -64 1201 m 63 971 l 308 971 l 308 0 l 63 0 l 63 971 z "},"Į":{"ha":371,"x_min":-21,"x_max":308,"o":"m 300 0 q 217 -58 243 -31 q 190 -117 190 -86 q 203 -150 190 -137 q 238 -162 215 -162 q 304 -146 274 -162 l 304 -279 q 161 -300 244 -300 q 30 -267 81 -300 q -21 -165 -21 -233 q 6 -70 -21 -112 q 78 0 32 -28 l 63 0 l 63 971 l 308 971 l 308 0 l 300 0 z "},"Ĩ":{"ha":371,"x_min":-96,"x_max":469,"o":"m -96 1208 q 50 1267 -47 1267 q 111 1258 81 1267 q 190 1232 142 1250 q 263 1206 232 1215 q 324 1197 293 1197 q 469 1267 411 1197 l 469 1089 q 324 1032 422 1032 q 256 1041 289 1032 q 178 1068 222 1050 q 106 1093 133 1085 q 50 1101 79 1101 q -96 1031 -36 1101 l -96 1208 m 63 971 l 308 971 l 308 0 l 63 0 l 63 971 z "},"J":{"ha":539,"x_min":7,"x_max":483,"o":"m 179 -21 q 83 -12 133 -21 q 7 11 32 -3 l 7 228 q 60 213 28 218 q 126 207 93 207 q 213 233 188 207 q 238 318 238 258 l 238 971 l 483 971 l 483 290 q 406 63 483 147 q 179 -21 328 -21 z "},"Ĵ":{"ha":539,"x_min":7,"x_max":681,"o":"m 246 1282 l 464 1282 l 681 1031 l 439 1031 l 356 1149 l 272 1031 l 29 1031 l 246 1282 m 179 -21 q 83 -12 133 -21 q 7 11 32 -3 l 7 228 q 60 213 28 218 q 126 207 93 207 q 213 233 188 207 q 238 318 238 258 l 238 971 l 483 971 l 483 290 q 406 63 483 147 q 179 -21 328 -21 z "},"K":{"ha":996,"x_min":63,"x_max":961,"o":"m 63 971 l 308 971 l 308 568 l 643 971 l 935 971 l 542 499 l 961 0 l 669 0 l 308 429 l 308 0 l 63 0 l 63 971 z "},"Ķ":{"ha":996,"x_min":63,"x_max":961,"o":"m 63 971 l 308 971 l 308 568 l 643 971 l 935 971 l 542 499 l 961 0 l 669 0 l 308 429 l 308 0 l 63 0 l 63 971 m 360 -68 l 613 -68 l 467 -361 l 244 -361 l 360 -68 z "},"L":{"ha":738,"x_min":63,"x_max":731,"o":"m 63 971 l 308 971 l 308 207 l 731 207 l 731 0 l 63 0 l 63 971 z "},"Ĺ":{"ha":738,"x_min":63,"x_max":731,"o":"m 175 1278 l 432 1278 l 306 1031 l 79 1031 l 175 1278 m 63 971 l 308 971 l 308 207 l 731 207 l 731 0 l 63 0 l 63 971 z "},"Ľ":{"ha":726,"x_min":63,"x_max":790,"o":"m 538 992 l 790 992 l 644 699 l 422 699 l 538 992 m 63 971 l 308 971 l 308 207 l 731 207 l 731 0 l 63 0 l 63 971 z "},"Ļ":{"ha":738,"x_min":63,"x_max":731,"o":"m 63 971 l 308 971 l 308 207 l 731 207 l 731 0 l 63 0 l 63 971 m 300 -68 l 553 -68 l 407 -361 l 185 -361 l 300 -68 z "},"Ŀ":{"ha":738,"x_min":63,"x_max":731,"o":"m 63 971 l 308 971 l 308 207 l 731 207 l 731 0 l 63 0 l 63 971 m 550 442 q 474 472 506 442 q 442 547 442 503 q 474 624 442 592 q 550 656 506 656 q 624 624 593 656 q 656 547 656 592 q 625 472 656 503 q 550 442 594 442 z "},"Ḷ":{"ha":738,"x_min":63,"x_max":731,"o":"m 63 971 l 308 971 l 308 207 l 731 207 l 731 0 l 63 0 l 63 971 m 386 -278 q 310 -247 342 -278 q 278 -171 278 -215 q 310 -95 278 -126 q 386 -64 342 -64 q 461 -95 431 -64 q 492 -171 492 -126 q 461 -247 492 -215 q 386 -278 431 -278 z "},"Ḹ":{"ha":713,"x_min":7,"x_max":706,"o":"m 7 1201 l 486 1201 l 486 1044 l 7 1044 l 7 1201 m 38 971 l 283 971 l 283 207 l 706 207 l 706 0 l 38 0 l 38 971 m 376 -278 q 300 -247 332 -278 q 268 -171 268 -215 q 300 -95 268 -126 q 376 -64 332 -64 q 451 -95 421 -64 q 482 -171 482 -126 q 451 -247 482 -215 q 376 -278 421 -278 z "},"Ḻ":{"ha":738,"x_min":63,"x_max":731,"o":"m 63 971 l 308 971 l 308 207 l 731 207 l 731 0 l 63 0 l 63 971 m 156 -82 l 635 -82 l 635 -239 l 156 -239 l 156 -82 z "},"Ł":{"ha":760,"x_min":-21,"x_max":753,"o":"m 86 356 l -21 308 l -21 543 l 86 590 l 86 971 l 343 971 l 343 706 l 529 789 l 529 554 l 343 471 l 343 215 l 753 215 l 753 0 l 86 0 l 86 356 z "},"M":{"ha":1158,"x_min":63,"x_max":1096,"o":"m 63 971 l 299 971 l 579 369 l 861 971 l 1096 971 l 1096 0 l 867 0 l 867 488 l 635 0 l 524 0 l 293 488 l 293 0 l 63 0 l 63 971 z "},"Ṃ":{"ha":1158,"x_min":63,"x_max":1096,"o":"m 63 971 l 299 971 l 579 369 l 861 971 l 1096 971 l 1096 0 l 867 0 l 867 488 l 635 0 l 524 0 l 293 488 l 293 0 l 63 0 l 63 971 m 581 -278 q 504 -247 536 -278 q 472 -171 472 -215 q 504 -95 472 -126 q 581 -64 536 -64 q 656 -95 625 -64 q 686 -171 686 -126 q 656 -247 686 -215 q 581 -278 625 -278 z "},"N":{"ha":971,"x_min":63,"x_max":908,"o":"m 63 971 l 306 971 l 663 393 l 663 971 l 908 971 l 908 0 l 667 0 l 308 579 l 308 0 l 63 0 l 63 971 z "},"Ń":{"ha":971,"x_min":63,"x_max":908,"o":"m 463 1278 l 719 1278 l 593 1031 l 367 1031 l 463 1278 m 63 971 l 306 971 l 663 393 l 663 971 l 908 971 l 908 0 l 667 0 l 308 579 l 308 0 l 63 0 l 63 971 z "},"Ň":{"ha":971,"x_min":63,"x_max":908,"o":"m 167 1282 l 410 1282 l 493 1164 l 576 1282 l 818 1282 l 601 1031 l 383 1031 l 167 1282 m 63 971 l 306 971 l 663 393 l 663 971 l 908 971 l 908 0 l 667 0 l 308 579 l 308 0 l 63 0 l 63 971 z "},"Ņ":{"ha":971,"x_min":63,"x_max":908,"o":"m 63 971 l 306 971 l 663 393 l 663 971 l 908 971 l 908 0 l 667 0 l 308 579 l 308 0 l 63 0 l 63 971 m 376 -68 l 629 -68 l 483 -361 l 261 -361 l 376 -68 z "},"Ṅ":{"ha":971,"x_min":63,"x_max":908,"o":"m 506 1044 q 429 1075 461 1044 q 397 1150 397 1106 q 429 1226 397 1194 q 506 1258 461 1258 q 580 1226 549 1258 q 611 1150 611 1194 q 581 1075 611 1106 q 506 1044 550 1044 m 63 971 l 306 971 l 663 393 l 663 971 l 908 971 l 908 0 l 667 0 l 308 579 l 308 0 l 63 0 l 63 971 z "},"Ṇ":{"ha":971,"x_min":63,"x_max":908,"o":"m 63 971 l 306 971 l 663 393 l 663 971 l 908 971 l 908 0 l 667 0 l 308 579 l 308 0 l 63 0 l 63 971 m 504 -278 q 428 -247 460 -278 q 396 -171 396 -215 q 428 -95 396 -126 q 504 -64 460 -64 q 579 -95 549 -64 q 610 -171 610 -126 q 579 -247 610 -215 q 504 -278 549 -278 z "},"Ŋ":{"ha":988,"x_min":63,"x_max":925,"o":"m 925 667 l 925 -50 q 842 -253 925 -185 q 621 -321 758 -321 q 488 -297 539 -321 l 488 -103 q 582 -122 529 -122 q 682 -21 682 -122 l 682 0 l 667 0 l 308 579 l 308 0 l 63 0 l 63 971 l 306 971 l 663 393 l 663 971 l 908 971 l 908 667 l 925 667 z "},"Ṉ":{"ha":971,"x_min":63,"x_max":908,"o":"m 63 971 l 306 971 l 663 393 l 663 971 l 908 971 l 908 0 l 667 0 l 308 579 l 308 0 l 63 0 l 63 971 m 268 -82 l 747 -82 l 747 -239 l 268 -239 l 268 -82 z "},"Ñ":{"ha":971,"x_min":63,"x_max":908,"o":"m 215 1208 q 361 1267 264 1267 q 422 1258 392 1267 q 501 1232 453 1250 q 574 1206 543 1215 q 635 1197 604 1197 q 781 1267 722 1197 l 781 1089 q 635 1032 733 1032 q 567 1041 600 1032 q 489 1068 533 1050 q 417 1093 444 1085 q 361 1101 390 1101 q 215 1031 275 1101 l 215 1208 m 63 971 l 306 971 l 663 393 l 663 971 l 908 971 l 908 0 l 667 0 l 308 579 l 308 0 l 63 0 l 63 971 z "},"O":{"ha":1111,"x_min":35,"x_max":1076,"o":"m 557 -21 q 291 43 410 -21 q 103 222 172 107 q 35 485 35 336 q 103 749 35 633 q 291 928 172 864 q 557 992 410 992 q 822 928 703 992 q 1008 749 940 864 q 1076 485 1076 633 q 1008 222 1076 336 q 822 43 940 107 q 557 -21 703 -21 m 557 210 q 692 243 631 210 q 789 339 753 276 q 825 485 825 401 q 790 630 825 568 q 693 726 754 692 q 557 760 632 760 q 419 726 481 760 q 323 630 358 692 q 288 485 288 568 q 323 339 288 401 q 420 243 358 276 q 557 210 482 210 z "},"Ó":{"ha":1111,"x_min":35,"x_max":1076,"o":"m 536 1278 l 793 1278 l 667 1031 l 440 1031 l 536 1278 m 557 -21 q 291 43 410 -21 q 103 222 172 107 q 35 485 35 336 q 103 749 35 633 q 291 928 172 864 q 557 992 410 992 q 822 928 703 992 q 1008 749 940 864 q 1076 485 1076 633 q 1008 222 1076 336 q 822 43 940 107 q 557 -21 703 -21 m 557 210 q 692 243 631 210 q 789 339 753 276 q 825 485 825 401 q 790 630 825 568 q 693 726 754 692 q 557 760 632 760 q 419 726 481 760 q 323 630 358 692 q 288 485 288 568 q 323 339 288 401 q 420 243 358 276 q 557 210 482 210 z "},"Ŏ":{"ha":1111,"x_min":35,"x_max":1076,"o":"m 556 1031 q 368 1095 435 1031 q 301 1271 301 1160 l 483 1271 q 556 1185 483 1185 q 609 1207 590 1185 q 628 1271 628 1229 l 810 1271 q 743 1095 810 1160 q 556 1031 676 1031 m 557 -21 q 291 43 410 -21 q 103 222 172 107 q 35 485 35 336 q 103 749 35 633 q 291 928 172 864 q 557 992 410 992 q 822 928 703 992 q 1008 749 940 864 q 1076 485 1076 633 q 1008 222 1076 336 q 822 43 940 107 q 557 -21 703 -21 m 557 210 q 692 243 631 210 q 789 339 753 276 q 825 485 825 401 q 790 630 825 568 q 693 726 754 692 q 557 760 632 760 q 419 726 481 760 q 323 630 358 692 q 288 485 288 568 q 323 339 288 401 q 420 243 358 276 q 557 210 482 210 z "},"Ǒ":{"ha":1111,"x_min":35,"x_max":1076,"o":"m 231 1282 l 474 1282 l 557 1164 l 640 1282 l 882 1282 l 665 1031 l 447 1031 l 231 1282 m 557 -21 q 291 43 410 -21 q 103 222 172 107 q 35 485 35 336 q 103 749 35 633 q 291 928 172 864 q 557 992 410 992 q 822 928 703 992 q 1008 749 940 864 q 1076 485 1076 633 q 1008 222 1076 336 q 822 43 940 107 q 557 -21 703 -21 m 557 210 q 692 243 631 210 q 789 339 753 276 q 825 485 825 401 q 790 630 825 568 q 693 726 754 692 q 557 760 632 760 q 419 726 481 760 q 323 630 358 692 q 288 485 288 568 q 323 339 288 401 q 420 243 358 276 q 557 210 482 210 z "},"Ô":{"ha":1111,"x_min":35,"x_max":1076,"o":"m 447 1282 l 665 1282 l 882 1031 l 640 1031 l 557 1149 l 474 1031 l 231 1031 l 447 1282 m 557 -21 q 291 43 410 -21 q 103 222 172 107 q 35 485 35 336 q 103 749 35 633 q 291 928 172 864 q 557 992 410 992 q 822 928 703 992 q 1008 749 940 864 q 1076 485 1076 633 q 1008 222 1076 336 q 822 43 940 107 q 557 -21 703 -21 m 557 210 q 692 243 631 210 q 789 339 753 276 q 825 485 825 401 q 790 630 825 568 q 693 726 754 692 q 557 760 632 760 q 419 726 481 760 q 323 630 358 692 q 288 485 288 568 q 323 339 288 401 q 420 243 358 276 q 557 210 482 210 z "},"Ố":{"ha":1081,"x_min":35,"x_max":1076,"o":"m 824 1385 l 1049 1385 l 936 1192 l 742 1192 l 824 1385 m 476 1249 l 649 1249 l 860 1031 l 643 1031 l 563 1124 l 482 1031 l 265 1031 l 476 1249 m 557 -21 q 291 43 410 -21 q 103 222 172 107 q 35 485 35 336 q 103 749 35 633 q 291 928 172 864 q 557 992 410 992 q 822 928 703 992 q 1008 749 940 864 q 1076 485 1076 633 q 1008 222 1076 336 q 822 43 940 107 q 557 -21 703 -21 m 557 210 q 692 243 631 210 q 789 339 753 276 q 825 485 825 401 q 790 630 825 568 q 693 726 754 692 q 557 760 632 760 q 419 726 481 760 q 323 630 358 692 q 288 485 288 568 q 323 339 288 401 q 420 243 358 276 q 557 210 482 210 z "},"Ộ":{"ha":1111,"x_min":35,"x_max":1076,"o":"m 447 1282 l 665 1282 l 882 1031 l 640 1031 l 557 1149 l 474 1031 l 231 1031 l 447 1282 m 557 -21 q 291 43 410 -21 q 103 222 172 107 q 35 485 35 336 q 103 749 35 633 q 291 928 172 864 q 557 992 410 992 q 822 928 703 992 q 1008 749 940 864 q 1076 485 1076 633 q 1008 222 1076 336 q 822 43 940 107 q 557 -21 703 -21 m 557 210 q 692 243 631 210 q 789 339 753 276 q 825 485 825 401 q 790 630 825 568 q 693 726 754 692 q 557 760 632 760 q 419 726 481 760 q 323 630 358 692 q 288 485 288 568 q 323 339 288 401 q 420 243 358 276 q 557 210 482 210 m 560 -278 q 483 -247 515 -278 q 451 -171 451 -215 q 483 -95 451 -126 q 560 -64 515 -64 q 635 -95 604 -64 q 665 -171 665 -126 q 635 -247 665 -215 q 560 -278 604 -278 z "},"Ồ":{"ha":1081,"x_min":4,"x_max":1046,"o":"m 43 1385 l 268 1385 l 350 1192 l 156 1192 l 43 1385 m 443 1249 l 615 1249 l 826 1031 l 610 1031 l 529 1124 l 449 1031 l 232 1031 l 443 1249 m 526 -21 q 260 43 379 -21 q 73 222 142 107 q 4 485 4 336 q 73 749 4 633 q 260 928 142 864 q 526 992 379 992 q 791 928 672 992 q 978 749 910 864 q 1046 485 1046 633 q 978 222 1046 336 q 791 43 910 107 q 526 -21 672 -21 m 526 210 q 661 243 600 210 q 758 339 722 276 q 794 485 794 401 q 759 630 794 568 q 663 726 724 692 q 526 760 601 760 q 389 726 450 760 q 292 630 328 692 q 257 485 257 568 q 292 339 257 401 q 390 243 328 276 q 526 210 451 210 z "},"Ổ":{"ha":1111,"x_min":35,"x_max":1076,"o":"m 742 1247 q 796 1256 778 1247 q 814 1283 814 1264 q 758 1315 814 1315 q 707 1306 729 1315 l 707 1388 q 765 1399 731 1394 q 826 1404 800 1404 q 937 1376 897 1404 q 976 1301 976 1349 q 954 1244 976 1268 q 892 1211 932 1221 l 892 1176 l 742 1176 l 742 1247 m 472 1249 l 644 1249 l 856 1031 l 639 1031 l 558 1124 l 478 1031 l 261 1031 l 472 1249 m 557 -21 q 291 43 410 -21 q 103 222 172 107 q 35 485 35 336 q 103 749 35 633 q 291 928 172 864 q 557 992 410 992 q 822 928 703 992 q 1008 749 940 864 q 1076 485 1076 633 q 1008 222 1076 336 q 822 43 940 107 q 557 -21 703 -21 m 557 210 q 692 243 631 210 q 789 339 753 276 q 825 485 825 401 q 790 630 825 568 q 693 726 754 692 q 557 760 632 760 q 419 726 481 760 q 323 630 358 692 q 288 485 288 568 q 323 339 288 401 q 420 243 358 276 q 557 210 482 210 z "},"Ỗ":{"ha":1111,"x_min":35,"x_max":1076,"o":"m 667 1281 q 612 1288 639 1281 q 549 1311 585 1296 q 489 1332 511 1325 q 444 1339 467 1339 q 329 1282 376 1339 l 329 1422 q 444 1469 367 1469 q 489 1463 467 1469 q 531 1450 511 1457 q 558 1440 551 1443 q 667 1411 628 1411 q 782 1468 735 1411 l 782 1326 q 667 1281 744 1281 m 556 1031 q 381 1086 446 1031 q 315 1239 315 1142 l 476 1239 q 496 1182 476 1200 q 556 1164 515 1164 q 616 1182 596 1164 q 636 1239 636 1200 l 796 1239 q 731 1086 796 1142 q 556 1031 665 1031 m 557 -21 q 291 43 410 -21 q 103 222 172 107 q 35 485 35 336 q 103 749 35 633 q 291 928 172 864 q 557 992 410 992 q 822 928 703 992 q 1008 749 940 864 q 1076 485 1076 633 q 1008 222 1076 336 q 822 43 940 107 q 557 -21 703 -21 m 557 210 q 692 243 631 210 q 789 339 753 276 q 825 485 825 401 q 790 630 825 568 q 693 726 754 692 q 557 760 632 760 q 419 726 481 760 q 323 630 358 692 q 288 485 288 568 q 323 339 288 401 q 420 243 358 276 q 557 210 482 210 z "},"Ö":{"ha":1111,"x_min":35,"x_max":1076,"o":"m 393 1038 q 317 1068 349 1038 q 285 1143 285 1099 q 317 1219 285 1188 q 393 1251 349 1251 q 467 1219 436 1251 q 499 1143 499 1188 q 468 1068 499 1099 q 393 1038 438 1038 m 721 1038 q 644 1068 676 1038 q 613 1143 613 1099 q 644 1219 613 1188 q 721 1251 676 1251 q 795 1219 764 1251 q 826 1143 826 1188 q 795 1068 826 1099 q 721 1038 764 1038 m 557 -21 q 291 43 410 -21 q 103 222 172 107 q 35 485 35 336 q 103 749 35 633 q 291 928 172 864 q 557 992 410 992 q 822 928 703 992 q 1008 749 940 864 q 1076 485 1076 633 q 1008 222 1076 336 q 822 43 940 107 q 557 -21 703 -21 m 557 210 q 692 243 631 210 q 789 339 753 276 q 825 485 825 401 q 790 630 825 568 q 693 726 754 692 q 557 760 632 760 q 419 726 481 760 q 323 630 358 692 q 288 485 288 568 q 323 339 288 401 q 420 243 358 276 q 557 210 482 210 z "},"Ọ":{"ha":1111,"x_min":35,"x_max":1076,"o":"m 557 -21 q 291 43 410 -21 q 103 222 172 107 q 35 485 35 336 q 103 749 35 633 q 291 928 172 864 q 557 992 410 992 q 822 928 703 992 q 1008 749 940 864 q 1076 485 1076 633 q 1008 222 1076 336 q 822 43 940 107 q 557 -21 703 -21 m 557 210 q 692 243 631 210 q 789 339 753 276 q 825 485 825 401 q 790 630 825 568 q 693 726 754 692 q 557 760 632 760 q 419 726 481 760 q 323 630 358 692 q 288 485 288 568 q 323 339 288 401 q 420 243 358 276 q 557 210 482 210 m 557 -278 q 481 -247 513 -278 q 449 -171 449 -215 q 481 -95 449 -126 q 557 -64 513 -64 q 632 -95 601 -64 q 663 -171 663 -126 q 632 -247 663 -215 q 557 -278 601 -278 z "},"Ò":{"ha":1111,"x_min":35,"x_max":1076,"o":"m 346 1278 l 603 1278 l 699 1031 l 472 1031 l 346 1278 m 557 -21 q 291 43 410 -21 q 103 222 172 107 q 35 485 35 336 q 103 749 35 633 q 291 928 172 864 q 557 992 410 992 q 822 928 703 992 q 1008 749 940 864 q 1076 485 1076 633 q 1008 222 1076 336 q 822 43 940 107 q 557 -21 703 -21 m 557 210 q 692 243 631 210 q 789 339 753 276 q 825 485 825 401 q 790 630 825 568 q 693 726 754 692 q 557 760 632 760 q 419 726 481 760 q 323 630 358 692 q 288 485 288 568 q 323 339 288 401 q 420 243 358 276 q 557 210 482 210 z "},"Ỏ":{"ha":1111,"x_min":35,"x_max":1076,"o":"m 447 1128 q 530 1140 501 1128 q 558 1183 558 1153 q 476 1229 558 1229 q 434 1225 458 1229 q 397 1215 410 1221 l 397 1332 q 475 1348 428 1342 q 564 1354 522 1354 q 727 1315 671 1354 q 783 1207 783 1275 q 751 1117 783 1156 q 661 1065 718 1079 l 661 1031 l 447 1031 l 447 1128 m 557 -21 q 291 43 410 -21 q 103 222 172 107 q 35 485 35 336 q 103 749 35 633 q 291 928 172 864 q 557 992 410 992 q 822 928 703 992 q 1008 749 940 864 q 1076 485 1076 633 q 1008 222 1076 336 q 822 43 940 107 q 557 -21 703 -21 m 557 210 q 692 243 631 210 q 789 339 753 276 q 825 485 825 401 q 790 630 825 568 q 693 726 754 692 q 557 760 632 760 q 419 726 481 760 q 323 630 358 692 q 288 485 288 568 q 323 339 288 401 q 420 243 358 276 q 557 210 482 210 z "},"Ơ":{"ha":1244,"x_min":35,"x_max":1238,"o":"m 557 -21 q 291 43 410 -21 q 103 222 172 107 q 35 485 35 336 q 103 749 35 633 q 291 928 172 864 q 557 992 410 992 q 744 961 656 992 q 901 874 833 931 q 1003 903 974 875 q 1032 990 1032 931 l 1032 1038 l 1238 1038 l 1238 975 q 1183 802 1238 874 q 1028 710 1128 731 q 1076 485 1076 604 q 1008 222 1076 336 q 822 43 940 107 q 557 -21 703 -21 m 557 218 q 688 251 629 218 q 782 344 747 283 q 817 485 817 404 q 783 626 817 565 q 690 719 749 686 q 557 751 631 751 q 424 719 483 751 q 330 626 364 686 q 296 485 296 565 q 331 343 296 404 q 424 250 365 282 q 557 218 483 218 z "},"Ớ":{"ha":1244,"x_min":35,"x_max":1238,"o":"m 556 1278 l 813 1278 l 686 1031 l 460 1031 l 556 1278 m 557 -21 q 291 43 410 -21 q 103 222 172 107 q 35 485 35 336 q 103 749 35 633 q 291 928 172 864 q 557 992 410 992 q 744 961 656 992 q 901 874 833 931 q 1003 903 974 875 q 1032 990 1032 931 l 1032 1038 l 1238 1038 l 1238 975 q 1183 802 1238 874 q 1028 710 1128 731 q 1076 485 1076 604 q 1008 222 1076 336 q 822 43 940 107 q 557 -21 703 -21 m 557 218 q 688 251 629 218 q 782 344 747 283 q 817 485 817 404 q 783 626 817 565 q 690 719 749 686 q 557 751 631 751 q 424 719 483 751 q 330 626 364 686 q 296 485 296 565 q 331 343 296 404 q 424 250 365 282 q 557 218 483 218 z "},"Ợ":{"ha":1244,"x_min":35,"x_max":1238,"o":"m 557 -21 q 291 43 410 -21 q 103 222 172 107 q 35 485 35 336 q 103 749 35 633 q 291 928 172 864 q 557 992 410 992 q 744 961 656 992 q 901 874 833 931 q 1003 903 974 875 q 1032 990 1032 931 l 1032 1038 l 1238 1038 l 1238 975 q 1183 802 1238 874 q 1028 710 1128 731 q 1076 485 1076 604 q 1008 222 1076 336 q 822 43 940 107 q 557 -21 703 -21 m 557 218 q 688 251 629 218 q 782 344 747 283 q 817 485 817 404 q 783 626 817 565 q 690 719 749 686 q 557 751 631 751 q 424 719 483 751 q 330 626 364 686 q 296 485 296 565 q 331 343 296 404 q 424 250 365 282 q 557 218 483 218 m 574 -278 q 497 -247 529 -278 q 465 -171 465 -215 q 497 -95 465 -126 q 574 -64 529 -64 q 649 -95 618 -64 q 679 -171 679 -126 q 649 -247 679 -215 q 574 -278 618 -278 z "},"Ờ":{"ha":1244,"x_min":35,"x_max":1238,"o":"m 325 1278 l 582 1278 l 678 1031 l 451 1031 l 325 1278 m 557 -21 q 291 43 410 -21 q 103 222 172 107 q 35 485 35 336 q 103 749 35 633 q 291 928 172 864 q 557 992 410 992 q 744 961 656 992 q 901 874 833 931 q 1003 903 974 875 q 1032 990 1032 931 l 1032 1038 l 1238 1038 l 1238 975 q 1183 802 1238 874 q 1028 710 1128 731 q 1076 485 1076 604 q 1008 222 1076 336 q 822 43 940 107 q 557 -21 703 -21 m 557 218 q 688 251 629 218 q 782 344 747 283 q 817 485 817 404 q 783 626 817 565 q 690 719 749 686 q 557 751 631 751 q 424 719 483 751 q 330 626 364 686 q 296 485 296 565 q 331 343 296 404 q 424 250 365 282 q 557 218 483 218 z "},"Ở":{"ha":1244,"x_min":35,"x_max":1238,"o":"m 461 1128 q 544 1140 515 1128 q 572 1183 572 1153 q 490 1229 572 1229 q 448 1225 472 1229 q 411 1215 424 1221 l 411 1332 q 489 1348 442 1342 q 578 1354 536 1354 q 741 1315 685 1354 q 797 1207 797 1275 q 765 1117 797 1156 q 675 1065 732 1079 l 675 1031 l 461 1031 l 461 1128 m 557 -21 q 291 43 410 -21 q 103 222 172 107 q 35 485 35 336 q 103 749 35 633 q 291 928 172 864 q 557 992 410 992 q 744 961 656 992 q 901 874 833 931 q 1003 903 974 875 q 1032 990 1032 931 l 1032 1038 l 1238 1038 l 1238 975 q 1183 802 1238 874 q 1028 710 1128 731 q 1076 485 1076 604 q 1008 222 1076 336 q 822 43 940 107 q 557 -21 703 -21 m 557 218 q 688 251 629 218 q 782 344 747 283 q 817 485 817 404 q 783 626 817 565 q 690 719 749 686 q 557 751 631 751 q 424 719 483 751 q 330 626 364 686 q 296 485 296 565 q 331 343 296 404 q 424 250 365 282 q 557 218 483 218 z "},"Ỡ":{"ha":1244,"x_min":35,"x_max":1238,"o":"m 289 1208 q 435 1267 338 1267 q 496 1258 465 1267 q 575 1232 526 1250 q 647 1206 617 1215 q 708 1197 678 1197 q 854 1267 796 1197 l 854 1089 q 708 1032 807 1032 q 640 1041 674 1032 q 563 1068 607 1050 q 491 1093 518 1085 q 435 1101 464 1101 q 289 1031 349 1101 l 289 1208 m 557 -21 q 291 43 410 -21 q 103 222 172 107 q 35 485 35 336 q 103 749 35 633 q 291 928 172 864 q 557 992 410 992 q 744 961 656 992 q 901 874 833 931 q 1003 903 974 875 q 1032 990 1032 931 l 1032 1038 l 1238 1038 l 1238 975 q 1183 802 1238 874 q 1028 710 1128 731 q 1076 485 1076 604 q 1008 222 1076 336 q 822 43 940 107 q 557 -21 703 -21 m 557 218 q 688 251 629 218 q 782 344 747 283 q 817 485 817 404 q 783 626 817 565 q 690 719 749 686 q 557 751 631 751 q 424 719 483 751 q 330 626 364 686 q 296 485 296 565 q 331 343 296 404 q 424 250 365 282 q 557 218 483 218 z "},"Ő":{"ha":1111,"x_min":35,"x_max":1076,"o":"m 360 1276 l 596 1276 l 469 1031 l 264 1031 l 360 1276 m 710 1276 l 944 1276 l 819 1031 l 614 1031 l 710 1276 m 557 -21 q 291 43 410 -21 q 103 222 172 107 q 35 485 35 336 q 103 749 35 633 q 291 928 172 864 q 557 992 410 992 q 822 928 703 992 q 1008 749 940 864 q 1076 485 1076 633 q 1008 222 1076 336 q 822 43 940 107 q 557 -21 703 -21 m 557 210 q 692 243 631 210 q 789 339 753 276 q 825 485 825 401 q 790 630 825 568 q 693 726 754 692 q 557 760 632 760 q 419 726 481 760 q 323 630 358 692 q 288 485 288 568 q 323 339 288 401 q 420 243 358 276 q 557 210 482 210 z "},"Ō":{"ha":1111,"x_min":35,"x_max":1076,"o":"m 317 1201 l 796 1201 l 796 1044 l 317 1044 l 317 1201 m 557 -21 q 291 43 410 -21 q 103 222 172 107 q 35 485 35 336 q 103 749 35 633 q 291 928 172 864 q 557 992 410 992 q 822 928 703 992 q 1008 749 940 864 q 1076 485 1076 633 q 1008 222 1076 336 q 822 43 940 107 q 557 -21 703 -21 m 557 210 q 692 243 631 210 q 789 339 753 276 q 825 485 825 401 q 790 630 825 568 q 693 726 754 692 q 557 760 632 760 q 419 726 481 760 q 323 630 358 692 q 288 485 288 568 q 323 339 288 401 q 420 243 358 276 q 557 210 482 210 z "},"Ø":{"ha":1111,"x_min":35,"x_max":1076,"o":"m 292 42 q 103 221 172 106 q 35 485 35 336 q 103 749 35 633 q 291 928 172 864 q 557 992 410 992 q 669 981 611 992 l 713 1089 l 882 1089 l 818 929 q 1007 751 938 867 q 1076 485 1076 635 q 1008 222 1076 336 q 822 43 940 107 q 557 -21 703 -21 q 440 -10 500 -21 l 396 -119 l 226 -119 l 292 42 m 579 758 q 557 760 572 760 q 419 726 481 760 q 323 630 358 692 q 288 485 288 568 q 313 359 288 414 q 382 268 338 304 l 579 758 m 557 210 q 692 243 631 210 q 789 339 753 276 q 825 485 825 401 q 799 610 825 554 q 726 703 772 667 l 529 211 q 557 210 538 210 z "},"Ǿ":{"ha":1111,"x_min":35,"x_max":1076,"o":"m 496 1276 l 753 1276 l 628 1031 l 401 1031 l 496 1276 m 286 46 q 102 224 169 110 q 35 485 35 338 q 103 749 35 633 q 291 928 172 864 q 557 992 410 992 q 663 982 615 992 l 706 1089 l 889 1089 l 824 926 q 1008 747 940 863 q 1076 485 1076 632 q 1008 222 1076 336 q 822 43 940 107 q 557 -21 703 -21 q 446 -11 510 -21 l 403 -119 l 219 -119 l 286 46 m 569 751 l 557 751 q 424 719 483 751 q 330 626 364 686 q 296 485 296 565 q 318 367 296 419 q 381 281 340 315 l 569 751 m 557 218 q 688 251 629 218 q 782 344 747 283 q 817 485 817 404 q 794 603 817 550 q 729 692 771 656 l 539 218 l 557 218 z "},"Õ":{"ha":1111,"x_min":35,"x_max":1076,"o":"m 274 1208 q 419 1267 322 1267 q 481 1258 450 1267 q 560 1232 511 1250 q 632 1206 601 1215 q 693 1197 663 1197 q 839 1267 781 1197 l 839 1089 q 693 1032 792 1032 q 625 1041 658 1032 q 547 1068 592 1050 q 476 1093 503 1085 q 419 1101 449 1101 q 274 1031 333 1101 l 274 1208 m 557 -21 q 291 43 410 -21 q 103 222 172 107 q 35 485 35 336 q 103 749 35 633 q 291 928 172 864 q 557 992 410 992 q 822 928 703 992 q 1008 749 940 864 q 1076 485 1076 633 q 1008 222 1076 336 q 822 43 940 107 q 557 -21 703 -21 m 557 210 q 692 243 631 210 q 789 339 753 276 q 825 485 825 401 q 790 630 825 568 q 693 726 754 692 q 557 760 632 760 q 419 726 481 760 q 323 630 358 692 q 288 485 288 568 q 323 339 288 401 q 420 243 358 276 q 557 210 482 210 z "},"Œ":{"ha":1235,"x_min":35,"x_max":1200,"o":"m 589 0 q 302 58 428 0 q 106 226 176 117 q 35 485 35 336 q 106 744 35 633 q 302 913 176 854 q 589 971 428 971 l 1200 971 l 1200 764 l 810 764 l 810 582 l 1081 582 l 1081 389 l 810 389 l 810 207 l 1200 207 l 1200 0 l 589 0 m 564 764 q 361 689 435 764 q 288 485 288 614 q 362 281 288 356 q 564 207 436 207 l 564 764 z "},"P":{"ha":883,"x_min":63,"x_max":863,"o":"m 63 971 l 490 971 q 761 882 660 971 q 863 633 863 793 q 762 380 863 469 q 490 290 661 290 l 308 290 l 308 0 l 63 0 l 63 971 m 451 497 q 567 528 525 497 q 610 633 610 558 q 568 736 610 708 q 451 764 526 764 l 308 764 l 308 497 l 451 497 z "},"Þ":{"ha":883,"x_min":63,"x_max":863,"o":"m 63 971 l 308 971 l 308 817 l 496 817 q 765 733 667 817 q 863 489 863 650 q 765 244 863 326 q 496 161 668 161 l 308 161 l 308 0 l 63 0 l 63 971 m 451 368 q 569 393 528 368 q 610 489 610 418 q 569 585 610 560 q 451 610 528 610 l 308 610 l 308 368 l 451 368 z "},"Q":{"ha":1115,"x_min":35,"x_max":1101,"o":"m 588 0 q 297 59 422 0 q 103 228 172 118 q 35 486 35 338 q 103 750 35 635 q 291 928 172 865 q 557 992 410 992 q 822 928 703 992 q 1008 750 940 865 q 1076 486 1076 635 q 1037 322 1076 403 q 939 192 997 240 l 1101 192 l 1101 0 l 588 0 m 557 210 q 692 243 631 210 q 789 339 753 276 q 825 485 825 401 q 790 630 825 568 q 693 726 754 692 q 557 760 632 760 q 419 726 481 760 q 323 630 358 692 q 288 485 288 568 q 323 339 288 401 q 420 243 358 276 q 557 210 482 210 z "},"R":{"ha":897,"x_min":63,"x_max":863,"o":"m 63 971 l 499 971 q 766 885 669 971 q 863 638 863 799 q 815 453 863 529 q 682 339 768 376 l 854 0 l 601 0 l 447 304 l 308 304 l 308 0 l 63 0 l 63 971 m 456 511 q 569 540 529 511 q 610 638 610 568 q 570 737 610 710 q 456 764 531 764 l 308 764 l 308 511 l 456 511 z "},"Ŕ":{"ha":897,"x_min":63,"x_max":863,"o":"m 372 1278 l 629 1278 l 503 1031 l 276 1031 l 372 1278 m 63 971 l 499 971 q 766 885 669 971 q 863 638 863 799 q 815 453 863 529 q 682 339 768 376 l 854 0 l 601 0 l 447 304 l 308 304 l 308 0 l 63 0 l 63 971 m 456 511 q 569 540 529 511 q 610 638 610 568 q 570 737 610 710 q 456 764 531 764 l 308 764 l 308 511 l 456 511 z "},"Ř":{"ha":897,"x_min":63,"x_max":863,"o":"m 114 1282 l 357 1282 l 440 1164 l 524 1282 l 765 1282 l 549 1031 l 331 1031 l 114 1282 m 63 971 l 499 971 q 766 885 669 971 q 863 638 863 799 q 815 453 863 529 q 682 339 768 376 l 854 0 l 601 0 l 447 304 l 308 304 l 308 0 l 63 0 l 63 971 m 456 511 q 569 540 529 511 q 610 638 610 568 q 570 737 610 710 q 456 764 531 764 l 308 764 l 308 511 l 456 511 z "},"Ŗ":{"ha":897,"x_min":63,"x_max":863,"o":"m 63 971 l 499 971 q 766 885 669 971 q 863 638 863 799 q 815 453 863 529 q 682 339 768 376 l 854 0 l 601 0 l 447 304 l 308 304 l 308 0 l 63 0 l 63 971 m 456 511 q 569 540 529 511 q 610 638 610 568 q 570 737 610 710 q 456 764 531 764 l 308 764 l 308 511 l 456 511 m 321 -68 l 574 -68 l 428 -361 l 206 -361 l 321 -68 z "},"Ṛ":{"ha":897,"x_min":63,"x_max":863,"o":"m 63 971 l 499 971 q 766 885 669 971 q 863 638 863 799 q 815 453 863 529 q 682 339 768 376 l 854 0 l 601 0 l 447 304 l 308 304 l 308 0 l 63 0 l 63 971 m 456 511 q 569 540 529 511 q 610 638 610 568 q 570 737 610 710 q 456 764 531 764 l 308 764 l 308 511 l 456 511 m 450 -278 q 374 -247 406 -278 q 342 -171 342 -215 q 374 -95 342 -126 q 450 -64 406 -64 q 525 -95 494 -64 q 556 -171 556 -126 q 525 -247 556 -215 q 450 -278 494 -278 z "},"Ṝ":{"ha":897,"x_min":63,"x_max":863,"o":"m 186 1201 l 665 1201 l 665 1044 l 186 1044 l 186 1201 m 63 971 l 499 971 q 766 885 669 971 q 863 638 863 799 q 815 453 863 529 q 682 339 768 376 l 854 0 l 601 0 l 447 304 l 308 304 l 308 0 l 63 0 l 63 971 m 456 511 q 569 540 529 511 q 610 638 610 568 q 570 737 610 710 q 456 764 531 764 l 308 764 l 308 511 l 456 511 m 426 -278 q 350 -247 382 -278 q 318 -171 318 -215 q 350 -95 318 -126 q 426 -64 382 -64 q 501 -95 471 -64 q 532 -171 532 -126 q 501 -247 532 -215 q 426 -278 471 -278 z "},"Ṟ":{"ha":897,"x_min":63,"x_max":863,"o":"m 63 971 l 499 971 q 766 885 669 971 q 863 638 863 799 q 815 453 863 529 q 682 339 768 376 l 854 0 l 601 0 l 447 304 l 308 304 l 308 0 l 63 0 l 63 971 m 456 511 q 569 540 529 511 q 610 638 610 568 q 570 737 610 710 q 456 764 531 764 l 308 764 l 308 511 l 456 511 m 210 -82 l 689 -82 l 689 -239 l 210 -239 l 210 -82 z "},"S":{"ha":790,"x_min":35,"x_max":756,"o":"m 365 -21 q 183 -3 274 -21 q 35 44 93 14 l 35 265 q 191 207 110 226 q 346 188 272 188 q 449 208 414 188 q 483 268 483 229 q 465 319 483 297 q 410 358 446 340 q 297 408 374 376 q 101 535 163 465 q 40 706 40 604 q 87 854 40 789 q 217 956 133 919 q 408 992 300 992 q 567 978 497 992 q 700 933 636 964 l 700 718 q 454 782 578 782 q 348 760 388 782 q 308 699 308 739 q 349 633 308 658 q 497 565 389 608 q 651 486 596 525 q 731 396 706 447 q 756 265 756 344 q 658 55 756 131 q 365 -21 560 -21 z "},"Ś":{"ha":790,"x_min":35,"x_max":756,"o":"m 379 1278 l 636 1278 l 510 1031 l 283 1031 l 379 1278 m 365 -21 q 183 -3 274 -21 q 35 44 93 14 l 35 265 q 191 207 110 226 q 346 188 272 188 q 449 208 414 188 q 483 268 483 229 q 465 319 483 297 q 410 358 446 340 q 297 408 374 376 q 101 535 163 465 q 40 706 40 604 q 87 854 40 789 q 217 956 133 919 q 408 992 300 992 q 567 978 497 992 q 700 933 636 964 l 700 718 q 454 782 578 782 q 348 760 388 782 q 308 699 308 739 q 349 633 308 658 q 497 565 389 608 q 651 486 596 525 q 731 396 706 447 q 756 265 756 344 q 658 55 756 131 q 365 -21 560 -21 z "},"Š":{"ha":790,"x_min":35,"x_max":756,"o":"m 83 1282 l 326 1282 l 410 1164 l 493 1282 l 735 1282 l 518 1031 l 300 1031 l 83 1282 m 365 -21 q 183 -3 274 -21 q 35 44 93 14 l 35 265 q 191 207 110 226 q 346 188 272 188 q 449 208 414 188 q 483 268 483 229 q 465 319 483 297 q 410 358 446 340 q 297 408 374 376 q 101 535 163 465 q 40 706 40 604 q 87 854 40 789 q 217 956 133 919 q 408 992 300 992 q 567 978 497 992 q 700 933 636 964 l 700 718 q 454 782 578 782 q 348 760 388 782 q 308 699 308 739 q 349 633 308 658 q 497 565 389 608 q 651 486 596 525 q 731 396 706 447 q 756 265 756 344 q 658 55 756 131 q 365 -21 560 -21 z "},"Ş":{"ha":790,"x_min":35,"x_max":756,"o":"m 756 265 q 690 83 756 154 q 492 -11 624 11 l 471 -64 q 563 -105 532 -74 q 594 -196 594 -136 q 535 -307 594 -269 q 372 -344 475 -344 q 281 -339 325 -344 q 215 -325 238 -333 l 215 -207 q 300 -226 251 -226 q 351 -214 333 -226 q 369 -179 369 -201 q 338 -138 369 -153 q 233 -124 307 -124 l 274 -17 q 35 44 121 0 l 35 265 q 191 207 110 226 q 346 188 272 188 q 449 208 414 188 q 483 268 483 229 q 465 319 483 297 q 410 358 446 340 q 297 408 374 376 q 101 535 163 465 q 40 706 40 604 q 87 854 40 789 q 217 956 133 919 q 408 992 300 992 q 567 978 497 992 q 700 933 636 964 l 700 718 q 454 782 578 782 q 348 760 388 782 q 308 699 308 739 q 349 633 308 658 q 497 565 389 608 q 651 486 596 525 q 731 396 706 447 q 756 265 756 344 z "},"Ŝ":{"ha":790,"x_min":35,"x_max":756,"o":"m 294 1282 l 513 1282 l 729 1031 l 488 1031 l 404 1149 l 321 1031 l 78 1031 l 294 1282 m 365 -21 q 183 -3 274 -21 q 35 44 93 14 l 35 265 q 191 207 110 226 q 346 188 272 188 q 449 208 414 188 q 483 268 483 229 q 465 319 483 297 q 410 358 446 340 q 297 408 374 376 q 101 535 163 465 q 40 706 40 604 q 87 854 40 789 q 217 956 133 919 q 408 992 300 992 q 567 978 497 992 q 700 933 636 964 l 700 718 q 454 782 578 782 q 348 760 388 782 q 308 699 308 739 q 349 633 308 658 q 497 565 389 608 q 651 486 596 525 q 731 396 706 447 q 756 265 756 344 q 658 55 756 131 q 365 -21 560 -21 z "},"Ș":{"ha":790,"x_min":35,"x_max":756,"o":"m 365 -21 q 183 -3 274 -21 q 35 44 93 14 l 35 265 q 191 207 110 226 q 346 188 272 188 q 449 208 414 188 q 483 268 483 229 q 465 319 483 297 q 410 358 446 340 q 297 408 374 376 q 101 535 163 465 q 40 706 40 604 q 87 854 40 789 q 217 956 133 919 q 408 992 300 992 q 567 978 497 992 q 700 933 636 964 l 700 718 q 454 782 578 782 q 348 760 388 782 q 308 699 308 739 q 349 633 308 658 q 497 565 389 608 q 651 486 596 525 q 731 396 706 447 q 756 265 756 344 q 658 55 756 131 q 365 -21 560 -21 m 282 -68 l 533 -68 l 389 -360 l 167 -360 l 282 -68 z "},"Ṡ":{"ha":790,"x_min":35,"x_max":756,"o":"m 417 1044 q 340 1075 372 1044 q 308 1150 308 1106 q 340 1226 308 1194 q 417 1258 372 1258 q 491 1226 460 1258 q 522 1150 522 1194 q 492 1075 522 1106 q 417 1044 461 1044 m 365 -21 q 183 -3 274 -21 q 35 44 93 14 l 35 265 q 191 207 110 226 q 346 188 272 188 q 449 208 414 188 q 483 268 483 229 q 465 319 483 297 q 410 358 446 340 q 297 408 374 376 q 101 535 163 465 q 40 706 40 604 q 87 854 40 789 q 217 956 133 919 q 408 992 300 992 q 567 978 497 992 q 700 933 636 964 l 700 718 q 454 782 578 782 q 348 760 388 782 q 308 699 308 739 q 349 633 308 658 q 497 565 389 608 q 651 486 596 525 q 731 396 706 447 q 756 265 756 344 q 658 55 756 131 q 365 -21 560 -21 z "},"Ṣ":{"ha":790,"x_min":35,"x_max":756,"o":"m 365 -21 q 183 -3 274 -21 q 35 44 93 14 l 35 265 q 191 207 110 226 q 346 188 272 188 q 449 208 414 188 q 483 268 483 229 q 465 319 483 297 q 410 358 446 340 q 297 408 374 376 q 101 535 163 465 q 40 706 40 604 q 87 854 40 789 q 217 956 133 919 q 408 992 300 992 q 567 978 497 992 q 700 933 636 964 l 700 718 q 454 782 578 782 q 348 760 388 782 q 308 699 308 739 q 349 633 308 658 q 497 565 389 608 q 651 486 596 525 q 731 396 706 447 q 756 265 756 344 q 658 55 756 131 q 365 -21 560 -21 m 397 -278 q 321 -247 353 -278 q 289 -171 289 -215 q 321 -95 289 -126 q 397 -64 353 -64 q 472 -95 442 -64 q 503 -171 503 -126 q 472 -247 503 -215 q 397 -278 442 -278 z "},"ẞ":{"ha":906,"x_min":56,"x_max":871,"o":"m 542 -21 q 367 4 426 -21 l 367 207 q 481 179 410 179 q 585 208 547 179 q 622 294 622 238 q 587 383 622 356 q 474 410 551 410 l 393 410 l 393 535 l 544 700 q 509 767 538 742 q 431 792 481 792 q 333 757 367 792 q 300 656 300 722 l 300 0 l 56 0 l 56 631 q 151 897 56 801 q 431 992 247 992 q 634 949 551 992 q 760 838 717 907 q 811 685 804 768 l 674 535 q 871 272 871 483 q 785 57 871 135 q 542 -21 699 -21 z "},"Ə":{"ha":1140,"x_min":35,"x_max":1106,"o":"m 565 -21 q 274 43 393 -21 q 94 218 154 107 q 35 471 35 329 l 35 578 l 806 578 q 698 727 785 672 q 472 782 611 782 q 285 766 381 782 q 119 722 189 750 l 119 924 q 299 973 193 954 q 517 992 404 992 q 833 933 700 992 q 1035 760 965 874 q 1106 489 1106 647 q 1043 219 1106 333 q 859 42 981 104 q 565 -21 738 -21 m 560 186 q 735 242 674 186 q 807 392 797 297 l 308 392 q 379 242 317 297 q 560 186 442 186 z "},"T":{"ha":822,"x_min":14,"x_max":808,"o":"m 288 764 l 14 764 l 14 971 l 808 971 l 808 764 l 533 764 l 533 0 l 288 0 l 288 764 z "},"Ŧ":{"ha":822,"x_min":14,"x_max":808,"o":"m 282 351 l 136 351 l 136 557 l 282 557 l 282 754 l 14 754 l 14 971 l 808 971 l 808 754 l 539 754 l 539 557 l 689 557 l 689 351 l 539 351 l 539 0 l 282 0 l 282 351 z "},"Ť":{"ha":822,"x_min":14,"x_max":808,"o":"m 86 1282 l 329 1282 l 413 1164 l 496 1282 l 738 1282 l 521 1031 l 303 1031 l 86 1282 m 288 764 l 14 764 l 14 971 l 808 971 l 808 764 l 533 764 l 533 0 l 288 0 l 288 764 z "},"Ţ":{"ha":822,"x_min":14,"x_max":808,"o":"m 533 764 l 533 0 l 535 0 l 510 -64 q 602 -105 571 -74 q 633 -196 633 -136 q 574 -307 633 -269 q 411 -344 514 -344 q 320 -339 364 -344 q 254 -325 276 -333 l 254 -207 q 339 -226 290 -226 q 390 -214 372 -226 q 408 -179 408 -201 q 377 -138 408 -153 q 272 -124 346 -124 l 319 0 l 288 0 l 288 764 l 14 764 l 14 971 l 808 971 l 808 764 l 533 764 z "},"Ț":{"ha":822,"x_min":14,"x_max":808,"o":"m 288 764 l 14 764 l 14 971 l 808 971 l 808 764 l 533 764 l 533 0 l 288 0 l 288 764 m 279 -68 l 532 -68 l 386 -361 l 164 -361 l 279 -68 z "},"Ṭ":{"ha":822,"x_min":14,"x_max":808,"o":"m 288 764 l 14 764 l 14 971 l 808 971 l 808 764 l 533 764 l 533 0 l 288 0 l 288 764 m 413 -278 q 336 -247 368 -278 q 304 -171 304 -215 q 336 -95 304 -126 q 413 -64 368 -64 q 488 -95 457 -64 q 518 -171 518 -126 q 488 -247 518 -215 q 413 -278 457 -278 z "},"Ṯ":{"ha":822,"x_min":14,"x_max":808,"o":"m 288 764 l 14 764 l 14 971 l 808 971 l 808 764 l 533 764 l 533 0 l 288 0 l 288 764 m 172 -82 l 651 -82 l 651 -239 l 172 -239 l 172 -82 z "},"U":{"ha":993,"x_min":56,"x_max":938,"o":"m 497 -21 q 167 97 278 -21 q 56 407 56 214 l 56 971 l 301 971 l 301 404 q 353 257 301 307 q 497 207 406 207 q 640 257 589 207 q 692 404 692 307 l 692 971 l 938 971 l 938 407 q 827 96 938 213 q 497 -21 717 -21 z "},"Ú":{"ha":993,"x_min":56,"x_max":938,"o":"m 488 1278 l 744 1278 l 618 1031 l 392 1031 l 488 1278 m 497 -21 q 167 97 278 -21 q 56 407 56 214 l 56 971 l 301 971 l 301 404 q 353 257 301 307 q 497 207 406 207 q 640 257 589 207 q 692 404 692 307 l 692 971 l 938 971 l 938 407 q 827 96 938 213 q 497 -21 717 -21 z "},"Ŭ":{"ha":993,"x_min":56,"x_max":938,"o":"m 496 1031 q 308 1095 375 1031 q 242 1271 242 1160 l 424 1271 q 496 1185 424 1185 q 549 1207 531 1185 q 568 1271 568 1229 l 750 1271 q 683 1095 750 1160 q 496 1031 617 1031 m 497 -21 q 167 97 278 -21 q 56 407 56 214 l 56 971 l 301 971 l 301 404 q 353 257 301 307 q 497 207 406 207 q 640 257 589 207 q 692 404 692 307 l 692 971 l 938 971 l 938 407 q 827 96 938 213 q 497 -21 717 -21 z "},"Ǔ":{"ha":993,"x_min":56,"x_max":938,"o":"m 171 1282 l 414 1282 l 497 1164 l 581 1282 l 822 1282 l 606 1031 l 388 1031 l 171 1282 m 497 -21 q 167 97 278 -21 q 56 407 56 214 l 56 971 l 301 971 l 301 404 q 353 257 301 307 q 497 207 406 207 q 640 257 589 207 q 692 404 692 307 l 692 971 l 938 971 l 938 407 q 827 96 938 213 q 497 -21 717 -21 z "},"Û":{"ha":993,"x_min":56,"x_max":938,"o":"m 388 1282 l 606 1282 l 822 1031 l 581 1031 l 497 1149 l 414 1031 l 171 1031 l 388 1282 m 497 -21 q 167 97 278 -21 q 56 407 56 214 l 56 971 l 301 971 l 301 404 q 353 257 301 307 q 497 207 406 207 q 640 257 589 207 q 692 404 692 307 l 692 971 l 938 971 l 938 407 q 827 96 938 213 q 497 -21 717 -21 z "},"Ü":{"ha":993,"x_min":56,"x_max":938,"o":"m 333 1038 q 257 1068 289 1038 q 225 1143 225 1099 q 257 1219 225 1188 q 333 1251 289 1251 q 408 1219 376 1251 q 439 1143 439 1188 q 408 1068 439 1099 q 333 1038 378 1038 m 661 1038 q 585 1068 617 1038 q 553 1143 553 1099 q 585 1219 553 1188 q 661 1251 617 1251 q 735 1219 704 1251 q 767 1143 767 1188 q 735 1068 767 1099 q 661 1038 704 1038 m 497 -21 q 167 97 278 -21 q 56 407 56 214 l 56 971 l 301 971 l 301 404 q 353 257 301 307 q 497 207 406 207 q 640 257 589 207 q 692 404 692 307 l 692 971 l 938 971 l 938 407 q 827 96 938 213 q 497 -21 717 -21 z "},"Ǘ":{"ha":993,"x_min":56,"x_max":938,"o":"m 488 1454 l 688 1454 l 590 1278 l 418 1278 l 488 1454 m 338 1044 q 261 1075 293 1044 q 229 1150 229 1106 q 261 1226 229 1194 q 338 1258 293 1258 q 412 1226 381 1258 q 443 1150 443 1194 q 413 1075 443 1106 q 338 1044 382 1044 m 665 1044 q 589 1075 621 1044 q 557 1150 557 1106 q 589 1226 557 1194 q 665 1258 621 1258 q 740 1226 708 1258 q 771 1150 771 1194 q 740 1075 771 1106 q 665 1044 708 1044 m 497 -21 q 167 97 278 -21 q 56 407 56 214 l 56 971 l 301 971 l 301 404 q 353 257 301 307 q 497 207 406 207 q 640 257 589 207 q 692 404 692 307 l 692 971 l 938 971 l 938 407 q 827 96 938 213 q 497 -21 717 -21 z "},"Ǚ":{"ha":993,"x_min":56,"x_max":938,"o":"m 251 1428 l 429 1428 l 496 1351 l 563 1428 l 740 1428 l 567 1249 l 425 1249 l 251 1428 m 331 1044 q 256 1075 288 1044 q 225 1150 225 1106 q 256 1226 225 1194 q 331 1258 288 1258 q 407 1226 375 1258 q 439 1150 439 1194 q 407 1075 439 1106 q 331 1044 375 1044 m 658 1044 q 583 1075 614 1044 q 553 1150 553 1106 q 584 1226 553 1194 q 658 1258 615 1258 q 735 1226 703 1258 q 767 1150 767 1194 q 735 1075 767 1106 q 658 1044 703 1044 m 497 -21 q 167 97 278 -21 q 56 407 56 214 l 56 971 l 301 971 l 301 404 q 353 257 301 307 q 497 207 406 207 q 640 257 589 207 q 692 404 692 307 l 692 971 l 938 971 l 938 407 q 827 96 938 213 q 497 -21 717 -21 z "},"Ǜ":{"ha":993,"x_min":56,"x_max":938,"o":"m 314 1454 l 514 1454 l 583 1278 l 411 1278 l 314 1454 m 336 1044 q 262 1075 293 1044 q 231 1150 231 1106 q 262 1226 231 1194 q 336 1258 293 1258 q 413 1226 381 1258 q 444 1150 444 1194 q 413 1075 444 1106 q 336 1044 381 1044 m 664 1044 q 589 1075 619 1044 q 558 1150 558 1106 q 590 1226 558 1194 q 664 1258 621 1258 q 740 1226 708 1258 q 772 1150 772 1194 q 740 1075 772 1106 q 664 1044 708 1044 m 497 -21 q 167 97 278 -21 q 56 407 56 214 l 56 971 l 301 971 l 301 404 q 353 257 301 307 q 497 207 406 207 q 640 257 589 207 q 692 404 692 307 l 692 971 l 938 971 l 938 407 q 827 96 938 213 q 497 -21 717 -21 z "},"Ǖ":{"ha":993,"x_min":56,"x_max":938,"o":"m 257 1461 l 736 1461 l 736 1304 l 257 1304 l 257 1461 m 333 1044 q 257 1075 289 1044 q 225 1150 225 1106 q 257 1226 225 1194 q 333 1258 289 1258 q 408 1226 376 1258 q 439 1150 439 1194 q 408 1075 439 1106 q 333 1044 378 1044 m 661 1044 q 585 1075 617 1044 q 553 1150 553 1106 q 585 1226 553 1194 q 661 1258 617 1258 q 735 1226 704 1258 q 767 1150 767 1194 q 735 1075 767 1106 q 661 1044 704 1044 m 497 -21 q 167 97 278 -21 q 56 407 56 214 l 56 971 l 301 971 l 301 404 q 353 257 301 307 q 497 207 406 207 q 640 257 589 207 q 692 404 692 307 l 692 971 l 938 971 l 938 407 q 827 96 938 213 q 497 -21 717 -21 z "},"Ụ":{"ha":993,"x_min":56,"x_max":938,"o":"m 497 -21 q 167 97 278 -21 q 56 407 56 214 l 56 971 l 301 971 l 301 404 q 353 257 301 307 q 497 207 406 207 q 640 257 589 207 q 692 404 692 307 l 692 971 l 938 971 l 938 407 q 827 96 938 213 q 497 -21 717 -21 m 497 -278 q 421 -247 453 -278 q 389 -171 389 -215 q 421 -95 389 -126 q 497 -64 453 -64 q 572 -95 542 -64 q 603 -171 603 -126 q 572 -247 603 -215 q 497 -278 542 -278 z "},"Ù":{"ha":993,"x_min":56,"x_max":938,"o":"m 285 1278 l 542 1278 l 638 1031 l 411 1031 l 285 1278 m 497 -21 q 167 97 278 -21 q 56 407 56 214 l 56 971 l 301 971 l 301 404 q 353 257 301 307 q 497 207 406 207 q 640 257 589 207 q 692 404 692 307 l 692 971 l 938 971 l 938 407 q 827 96 938 213 q 497 -21 717 -21 z "},"Ủ":{"ha":993,"x_min":56,"x_max":938,"o":"m 394 1128 q 477 1140 449 1128 q 506 1183 506 1153 q 424 1229 506 1229 q 381 1225 406 1229 q 344 1215 357 1221 l 344 1332 q 422 1348 375 1342 q 511 1354 469 1354 q 674 1315 618 1354 q 731 1207 731 1275 q 698 1117 731 1156 q 608 1065 665 1079 l 608 1031 l 394 1031 l 394 1128 m 497 -21 q 167 97 278 -21 q 56 407 56 214 l 56 971 l 301 971 l 301 404 q 353 257 301 307 q 497 207 406 207 q 640 257 589 207 q 692 404 692 307 l 692 971 l 938 971 l 938 407 q 827 96 938 213 q 497 -21 717 -21 z "},"Ư":{"ha":1260,"x_min":56,"x_max":1253,"o":"m 497 -21 q 167 97 278 -21 q 56 407 56 214 l 56 971 l 313 971 l 313 411 q 360 263 313 313 q 497 214 407 214 q 634 263 588 214 q 681 411 681 313 l 681 971 l 939 971 l 939 878 q 1025 903 1003 878 q 1047 990 1047 928 l 1047 1038 l 1253 1038 l 1253 975 q 1176 777 1253 851 q 939 703 1100 703 l 939 407 q 828 97 939 214 q 497 -21 717 -21 z "},"Ứ":{"ha":1260,"x_min":56,"x_max":1253,"o":"m 483 1278 l 740 1278 l 614 1031 l 388 1031 l 483 1278 m 497 -21 q 167 97 278 -21 q 56 407 56 214 l 56 971 l 313 971 l 313 411 q 360 263 313 313 q 497 214 407 214 q 634 263 588 214 q 681 411 681 313 l 681 971 l 939 971 l 939 878 q 1025 903 1003 878 q 1047 990 1047 928 l 1047 1038 l 1253 1038 l 1253 975 q 1176 777 1253 851 q 939 703 1100 703 l 939 407 q 828 97 939 214 q 497 -21 717 -21 z "},"Ự":{"ha":1260,"x_min":56,"x_max":1253,"o":"m 497 -21 q 167 97 278 -21 q 56 407 56 214 l 56 971 l 313 971 l 313 411 q 360 263 313 313 q 497 214 407 214 q 634 263 588 214 q 681 411 681 313 l 681 971 l 939 971 l 939 878 q 1025 903 1003 878 q 1047 990 1047 928 l 1047 1038 l 1253 1038 l 1253 975 q 1176 777 1253 851 q 939 703 1100 703 l 939 407 q 828 97 939 214 q 497 -21 717 -21 m 514 -278 q 438 -247 469 -278 q 406 -171 406 -215 q 438 -95 406 -126 q 514 -64 469 -64 q 589 -95 558 -64 q 619 -171 619 -126 q 589 -247 619 -215 q 514 -278 558 -278 z "},"Ừ":{"ha":1260,"x_min":56,"x_max":1253,"o":"m 281 1278 l 538 1278 l 633 1031 l 407 1031 l 281 1278 m 497 -21 q 167 97 278 -21 q 56 407 56 214 l 56 971 l 313 971 l 313 411 q 360 263 313 313 q 497 214 407 214 q 634 263 588 214 q 681 411 681 313 l 681 971 l 939 971 l 939 878 q 1025 903 1003 878 q 1047 990 1047 928 l 1047 1038 l 1253 1038 l 1253 975 q 1176 777 1253 851 q 939 703 1100 703 l 939 407 q 828 97 939 214 q 497 -21 717 -21 z "},"Ử":{"ha":1260,"x_min":56,"x_max":1253,"o":"m 394 1128 q 477 1140 449 1128 q 506 1183 506 1153 q 424 1229 506 1229 q 381 1225 406 1229 q 344 1215 357 1221 l 344 1332 q 422 1348 375 1342 q 511 1354 469 1354 q 674 1315 618 1354 q 731 1207 731 1275 q 698 1117 731 1156 q 608 1065 665 1079 l 608 1031 l 394 1031 l 394 1128 m 497 -21 q 167 97 278 -21 q 56 407 56 214 l 56 971 l 313 971 l 313 411 q 360 263 313 313 q 497 214 407 214 q 634 263 588 214 q 681 411 681 313 l 681 971 l 939 971 l 939 878 q 1025 903 1003 878 q 1047 990 1047 928 l 1047 1038 l 1253 1038 l 1253 975 q 1176 777 1253 851 q 939 703 1100 703 l 939 407 q 828 97 939 214 q 497 -21 717 -21 z "},"Ữ":{"ha":1260,"x_min":56,"x_max":1253,"o":"m 240 1208 q 386 1267 289 1267 q 447 1258 417 1267 q 526 1232 478 1250 q 599 1206 568 1215 q 660 1197 629 1197 q 806 1267 747 1197 l 806 1089 q 660 1032 758 1032 q 592 1041 625 1032 q 514 1068 558 1050 q 442 1093 469 1085 q 386 1101 415 1101 q 240 1031 300 1101 l 240 1208 m 497 -21 q 167 97 278 -21 q 56 407 56 214 l 56 971 l 313 971 l 313 411 q 360 263 313 313 q 497 214 407 214 q 634 263 588 214 q 681 411 681 313 l 681 971 l 939 971 l 939 878 q 1025 903 1003 878 q 1047 990 1047 928 l 1047 1038 l 1253 1038 l 1253 975 q 1176 777 1253 851 q 939 703 1100 703 l 939 407 q 828 97 939 214 q 497 -21 717 -21 z "},"Ű":{"ha":993,"x_min":56,"x_max":938,"o":"m 318 1276 l 554 1276 l 428 1031 l 222 1031 l 318 1276 m 668 1276 l 903 1276 l 778 1031 l 572 1031 l 668 1276 m 497 -21 q 167 97 278 -21 q 56 407 56 214 l 56 971 l 301 971 l 301 404 q 353 257 301 307 q 497 207 406 207 q 640 257 589 207 q 692 404 692 307 l 692 971 l 938 971 l 938 407 q 827 96 938 213 q 497 -21 717 -21 z "},"Ū":{"ha":993,"x_min":56,"x_max":938,"o":"m 257 1201 l 736 1201 l 736 1044 l 257 1044 l 257 1201 m 497 -21 q 167 97 278 -21 q 56 407 56 214 l 56 971 l 301 971 l 301 404 q 353 257 301 307 q 497 207 406 207 q 640 257 589 207 q 692 404 692 307 l 692 971 l 938 971 l 938 407 q 827 96 938 213 q 497 -21 717 -21 z "},"Ų":{"ha":993,"x_min":56,"x_max":938,"o":"m 938 971 l 938 407 q 860 136 938 246 q 629 -7 783 26 q 533 -117 533 -62 q 546 -150 533 -137 q 581 -162 558 -162 q 647 -146 615 -162 l 647 -279 q 504 -300 588 -300 q 373 -267 424 -300 q 322 -165 322 -233 q 343 -79 322 -118 q 400 -14 364 -40 q 142 124 229 11 q 56 407 56 236 l 56 971 l 301 971 l 301 404 q 353 257 301 307 q 497 207 406 207 q 640 257 589 207 q 692 404 692 307 l 692 971 l 938 971 z "},"Ů":{"ha":993,"x_min":56,"x_max":938,"o":"m 496 1031 q 398 1056 443 1031 q 326 1126 353 1082 q 300 1224 300 1171 q 326 1322 300 1276 q 398 1392 353 1367 q 496 1418 443 1418 q 594 1392 549 1418 q 667 1322 640 1367 q 693 1224 693 1276 q 667 1126 693 1171 q 594 1056 640 1082 q 496 1031 549 1031 m 496 1160 q 541 1178 522 1160 q 560 1224 560 1197 q 542 1269 560 1251 q 496 1288 524 1288 q 451 1269 469 1288 q 432 1224 432 1250 q 451 1178 432 1197 q 496 1160 469 1160 m 497 -21 q 167 97 278 -21 q 56 407 56 214 l 56 971 l 301 971 l 301 404 q 353 257 301 307 q 497 207 406 207 q 640 257 589 207 q 692 404 692 307 l 692 971 l 938 971 l 938 407 q 827 96 938 213 q 497 -21 717 -21 z "},"Ũ":{"ha":993,"x_min":56,"x_max":938,"o":"m 214 1208 q 360 1267 263 1267 q 421 1258 390 1267 q 500 1232 451 1250 q 572 1206 542 1215 q 633 1197 603 1197 q 779 1267 721 1197 l 779 1089 q 633 1032 732 1032 q 565 1041 599 1032 q 488 1068 532 1050 q 416 1093 443 1085 q 360 1101 389 1101 q 214 1031 274 1101 l 214 1208 m 497 -21 q 167 97 278 -21 q 56 407 56 214 l 56 971 l 301 971 l 301 404 q 353 257 301 307 q 497 207 406 207 q 640 257 589 207 q 692 404 692 307 l 692 971 l 938 971 l 938 407 q 827 96 938 213 q 497 -21 717 -21 z "},"V":{"ha":1088,"x_min":35,"x_max":1053,"o":"m 35 971 l 297 971 l 544 325 l 792 971 l 1053 971 l 665 0 l 424 0 l 35 971 z "},"W":{"ha":1378,"x_min":35,"x_max":1343,"o":"m 35 971 l 288 971 l 450 396 l 607 971 l 782 971 l 929 394 l 1090 971 l 1343 971 l 1075 0 l 849 0 l 689 564 l 531 0 l 303 0 l 35 971 z "},"Ẃ":{"ha":1378,"x_min":35,"x_max":1343,"o":"m 682 1278 l 939 1278 l 813 1031 l 586 1031 l 682 1278 m 35 971 l 288 971 l 450 396 l 607 971 l 782 971 l 929 394 l 1090 971 l 1343 971 l 1075 0 l 849 0 l 689 564 l 531 0 l 303 0 l 35 971 z "},"Ŵ":{"ha":1378,"x_min":35,"x_max":1343,"o":"m 581 1282 l 799 1282 l 1015 1031 l 774 1031 l 690 1149 l 607 1031 l 364 1031 l 581 1282 m 35 971 l 288 971 l 450 396 l 607 971 l 782 971 l 929 394 l 1090 971 l 1343 971 l 1075 0 l 849 0 l 689 564 l 531 0 l 303 0 l 35 971 z "},"Ẅ":{"ha":1378,"x_min":35,"x_max":1343,"o":"m 526 1044 q 450 1075 482 1044 q 418 1150 418 1106 q 450 1226 418 1194 q 526 1258 482 1258 q 601 1226 569 1258 q 632 1150 632 1194 q 601 1075 632 1106 q 526 1044 571 1044 m 854 1044 q 778 1075 810 1044 q 746 1150 746 1106 q 778 1226 746 1194 q 854 1258 810 1258 q 928 1226 897 1258 q 960 1150 960 1194 q 928 1075 960 1106 q 854 1044 897 1044 m 35 971 l 288 971 l 450 396 l 607 971 l 782 971 l 929 394 l 1090 971 l 1343 971 l 1075 0 l 849 0 l 689 564 l 531 0 l 303 0 l 35 971 z "},"Ẁ":{"ha":1378,"x_min":35,"x_max":1343,"o":"m 454 1278 l 711 1278 l 807 1031 l 581 1031 l 454 1278 m 35 971 l 288 971 l 450 396 l 607 971 l 782 971 l 929 394 l 1090 971 l 1343 971 l 1075 0 l 849 0 l 689 564 l 531 0 l 303 0 l 35 971 z "},"X":{"ha":1054,"x_min":35,"x_max":1019,"o":"m 386 486 l 36 971 l 318 971 l 528 681 l 738 971 l 1019 971 l 668 486 l 1019 0 l 738 0 l 528 290 l 317 0 l 35 0 l 386 486 z "},"Y":{"ha":1042,"x_min":35,"x_max":1007,"o":"m 393 369 l 35 971 l 297 971 l 517 594 l 746 971 l 1007 971 l 639 369 l 639 0 l 393 0 l 393 369 z "},"Ý":{"ha":1042,"x_min":35,"x_max":1007,"o":"m 483 1278 l 740 1278 l 614 1031 l 388 1031 l 483 1278 m 393 369 l 35 971 l 297 971 l 517 594 l 746 971 l 1007 971 l 639 369 l 639 0 l 393 0 l 393 369 z "},"Ŷ":{"ha":1042,"x_min":35,"x_max":1007,"o":"m 408 1282 l 626 1282 l 843 1031 l 601 1031 l 518 1149 l 435 1031 l 192 1031 l 408 1282 m 393 369 l 35 971 l 297 971 l 517 594 l 746 971 l 1007 971 l 639 369 l 639 0 l 393 0 l 393 369 z "},"Ÿ":{"ha":1042,"x_min":35,"x_max":1007,"o":"m 354 1044 q 278 1075 310 1044 q 246 1150 246 1106 q 278 1226 246 1194 q 354 1258 310 1258 q 428 1226 397 1258 q 460 1150 460 1194 q 429 1075 460 1106 q 354 1044 399 1044 m 682 1044 q 606 1075 638 1044 q 574 1150 574 1106 q 606 1226 574 1194 q 682 1258 638 1258 q 756 1226 725 1258 q 788 1150 788 1194 q 756 1075 788 1106 q 682 1044 725 1044 m 393 369 l 35 971 l 297 971 l 517 594 l 746 971 l 1007 971 l 639 369 l 639 0 l 393 0 l 393 369 z "},"Ẏ":{"ha":1042,"x_min":35,"x_max":1007,"o":"m 518 1044 q 442 1075 474 1044 q 410 1150 410 1106 q 442 1226 410 1194 q 518 1258 474 1258 q 592 1226 561 1258 q 624 1150 624 1194 q 593 1075 624 1106 q 518 1044 563 1044 m 393 369 l 35 971 l 297 971 l 517 594 l 746 971 l 1007 971 l 639 369 l 639 0 l 393 0 l 393 369 z "},"Ỵ":{"ha":1042,"x_min":35,"x_max":1007,"o":"m 393 369 l 35 971 l 297 971 l 517 594 l 746 971 l 1007 971 l 639 369 l 639 0 l 393 0 l 393 369 m 519 -278 q 443 -247 475 -278 q 411 -171 411 -215 q 443 -95 411 -126 q 519 -64 475 -64 q 594 -95 564 -64 q 625 -171 625 -126 q 594 -247 625 -215 q 519 -278 564 -278 z "},"Ỳ":{"ha":1042,"x_min":35,"x_max":1007,"o":"m 301 1278 l 558 1278 l 654 1031 l 428 1031 l 301 1278 m 393 369 l 35 971 l 297 971 l 517 594 l 746 971 l 1007 971 l 639 369 l 639 0 l 393 0 l 393 369 z "},"Ỷ":{"ha":1042,"x_min":35,"x_max":1007,"o":"m 422 1128 q 505 1140 476 1128 q 533 1183 533 1153 q 451 1229 533 1229 q 409 1225 433 1229 q 372 1215 385 1221 l 372 1332 q 450 1348 403 1342 q 539 1354 497 1354 q 702 1315 646 1354 q 758 1207 758 1275 q 726 1117 758 1156 q 636 1065 693 1079 l 636 1031 l 422 1031 l 422 1128 m 393 369 l 35 971 l 297 971 l 517 594 l 746 971 l 1007 971 l 639 369 l 639 0 l 393 0 l 393 369 z "},"Ỹ":{"ha":1042,"x_min":35,"x_max":1007,"o":"m 235 1208 q 381 1267 283 1267 q 442 1258 411 1267 q 521 1232 472 1250 q 593 1206 563 1215 q 654 1197 624 1197 q 800 1267 742 1197 l 800 1089 q 654 1032 753 1032 q 586 1041 619 1032 q 508 1068 553 1050 q 437 1093 464 1085 q 381 1101 410 1101 q 235 1031 294 1101 l 235 1208 m 393 369 l 35 971 l 297 971 l 517 594 l 746 971 l 1007 971 l 639 369 l 639 0 l 393 0 l 393 369 z "},"Z":{"ha":849,"x_min":35,"x_max":814,"o":"m 35 167 l 476 764 l 46 764 l 46 971 l 783 971 l 783 803 l 344 207 l 814 207 l 814 0 l 35 0 l 35 167 z "},"Ź":{"ha":849,"x_min":35,"x_max":814,"o":"m 385 1278 l 642 1278 l 515 1031 l 289 1031 l 385 1278 m 35 167 l 476 764 l 46 764 l 46 971 l 783 971 l 783 803 l 344 207 l 814 207 l 814 0 l 35 0 l 35 167 z "},"Ž":{"ha":849,"x_min":35,"x_max":814,"o":"m 107 1282 l 350 1282 l 433 1164 l 517 1282 l 758 1282 l 542 1031 l 324 1031 l 107 1282 m 35 167 l 476 764 l 46 764 l 46 971 l 783 971 l 783 803 l 344 207 l 814 207 l 814 0 l 35 0 l 35 167 z "},"Ż":{"ha":849,"x_min":35,"x_max":814,"o":"m 428 1044 q 351 1075 383 1044 q 319 1150 319 1106 q 351 1226 319 1194 q 428 1258 383 1258 q 502 1226 471 1258 q 533 1150 533 1194 q 503 1075 533 1106 q 428 1044 472 1044 m 35 167 l 476 764 l 46 764 l 46 971 l 783 971 l 783 803 l 344 207 l 814 207 l 814 0 l 35 0 l 35 167 z "},"Ẓ":{"ha":849,"x_min":35,"x_max":814,"o":"m 35 167 l 476 764 l 46 764 l 46 971 l 783 971 l 783 803 l 344 207 l 814 207 l 814 0 l 35 0 l 35 167 m 432 -278 q 356 -247 388 -278 q 324 -171 324 -215 q 356 -95 324 -126 q 432 -64 388 -64 q 507 -95 476 -64 q 538 -171 538 -126 q 507 -247 538 -215 q 432 -278 476 -278 z "},"a":{"ha":824,"x_min":35,"x_max":768,"o":"m 314 -21 q 112 40 189 -21 q 35 208 35 100 q 109 381 35 321 q 322 442 183 442 q 431 430 376 442 q 524 399 485 418 l 524 413 q 349 519 524 519 q 125 472 226 519 l 125 640 q 242 674 169 661 q 392 688 314 688 q 673 613 578 688 q 768 406 768 539 l 768 0 l 539 0 l 539 57 q 444 0 501 21 q 314 -21 388 -21 m 386 129 q 467 147 429 129 q 524 192 504 164 l 524 250 q 388 290 464 290 q 313 269 339 290 q 286 208 286 249 q 312 150 286 171 q 386 129 338 129 z "},"á":{"ha":824,"x_min":35,"x_max":768,"o":"m 401 967 l 658 967 l 532 719 l 306 719 l 401 967 m 314 -21 q 112 40 189 -21 q 35 208 35 100 q 109 381 35 321 q 322 442 183 442 q 431 430 376 442 q 524 399 485 418 l 524 413 q 349 519 524 519 q 125 472 226 519 l 125 640 q 242 674 169 661 q 392 688 314 688 q 673 613 578 688 q 768 406 768 539 l 768 0 l 539 0 l 539 57 q 444 0 501 21 q 314 -21 388 -21 m 386 129 q 467 147 429 129 q 524 192 504 164 l 524 250 q 388 290 464 290 q 313 269 339 290 q 286 208 286 249 q 312 150 286 171 q 386 129 338 129 z "},"ă":{"ha":824,"x_min":35,"x_max":768,"o":"m 456 729 q 268 794 335 729 q 201 969 201 858 l 383 969 q 456 883 383 883 q 509 906 490 883 q 528 969 528 928 l 710 969 q 643 794 710 858 q 456 729 576 729 m 314 -21 q 112 40 189 -21 q 35 208 35 100 q 109 381 35 321 q 322 442 183 442 q 431 430 376 442 q 524 399 485 418 l 524 413 q 349 519 524 519 q 125 472 226 519 l 125 640 q 242 674 169 661 q 392 688 314 688 q 673 613 578 688 q 768 406 768 539 l 768 0 l 539 0 l 539 57 q 444 0 501 21 q 314 -21 388 -21 m 386 129 q 467 147 429 129 q 524 192 504 164 l 524 250 q 388 290 464 290 q 313 269 339 290 q 286 208 286 249 q 312 150 286 171 q 386 129 338 129 z "},"ắ":{"ha":824,"x_min":35,"x_max":768,"o":"m 428 1144 l 628 1144 l 531 968 l 358 968 l 428 1144 m 443 729 q 268 785 333 729 q 203 938 203 840 l 363 938 q 383 881 363 899 q 443 863 403 863 q 503 881 483 863 q 522 938 522 899 l 683 938 q 618 785 683 840 q 443 729 553 729 m 314 -21 q 112 40 189 -21 q 35 208 35 100 q 109 381 35 321 q 322 442 183 442 q 431 430 376 442 q 524 399 485 418 l 524 413 q 349 519 524 519 q 125 472 226 519 l 125 640 q 242 674 169 661 q 392 688 314 688 q 673 613 578 688 q 768 406 768 539 l 768 0 l 539 0 l 539 57 q 444 0 501 21 q 314 -21 388 -21 m 386 129 q 467 147 429 129 q 524 192 504 164 l 524 250 q 388 290 464 290 q 313 269 339 290 q 286 208 286 249 q 312 150 286 171 q 386 129 338 129 z "},"ặ":{"ha":824,"x_min":35,"x_max":768,"o":"m 432 729 q 244 794 311 729 q 178 969 178 858 l 360 969 q 432 883 360 883 q 485 906 467 883 q 504 969 504 928 l 686 969 q 619 794 686 858 q 432 729 553 729 m 314 -21 q 112 40 189 -21 q 35 208 35 100 q 109 381 35 321 q 322 442 183 442 q 431 430 376 442 q 524 399 485 418 l 524 413 q 349 519 524 519 q 125 472 226 519 l 125 640 q 242 674 169 661 q 392 688 314 688 q 673 613 578 688 q 768 406 768 539 l 768 0 l 539 0 l 539 57 q 444 0 501 21 q 314 -21 388 -21 m 386 129 q 467 147 429 129 q 524 192 504 164 l 524 250 q 388 290 464 290 q 313 269 339 290 q 286 208 286 249 q 312 150 286 171 q 386 129 338 129 m 433 -278 q 357 -247 389 -278 q 325 -171 325 -215 q 357 -95 325 -126 q 433 -64 389 -64 q 508 -95 478 -64 q 539 -171 539 -126 q 508 -247 539 -215 q 433 -278 478 -278 z "},"ằ":{"ha":824,"x_min":35,"x_max":768,"o":"m 261 1142 l 461 1142 l 531 965 l 358 965 l 261 1142 m 446 726 q 271 782 336 726 q 206 935 206 838 l 367 935 q 386 878 367 896 q 446 860 406 860 q 506 878 486 860 q 526 935 526 896 l 686 935 q 621 782 686 838 q 446 726 556 726 m 314 -21 q 112 40 189 -21 q 35 208 35 100 q 109 381 35 321 q 322 442 183 442 q 431 430 376 442 q 524 399 485 418 l 524 413 q 349 519 524 519 q 125 472 226 519 l 125 640 q 242 674 169 661 q 392 688 314 688 q 673 613 578 688 q 768 406 768 539 l 768 0 l 539 0 l 539 57 q 444 0 501 21 q 314 -21 388 -21 m 386 129 q 467 147 429 129 q 524 192 504 164 l 524 250 q 388 290 464 290 q 313 269 339 290 q 286 208 286 249 q 312 150 286 171 q 386 129 338 129 z "},"ẳ":{"ha":824,"x_min":35,"x_max":768,"o":"m 374 1015 q 426 1024 408 1015 q 444 1051 444 1032 q 431 1076 444 1068 q 389 1083 418 1083 q 361 1081 376 1083 q 339 1074 346 1078 l 339 1156 q 394 1167 361 1163 q 457 1172 428 1172 q 570 1145 532 1172 q 608 1071 608 1118 q 524 975 608 993 l 524 949 l 374 949 l 374 1015 m 443 726 q 268 782 333 726 q 203 935 203 838 l 364 935 q 383 878 364 896 q 443 860 403 860 q 503 878 483 860 q 524 935 524 896 l 683 935 q 618 782 683 838 q 443 726 553 726 m 314 -21 q 112 40 189 -21 q 35 208 35 100 q 109 381 35 321 q 322 442 183 442 q 431 430 376 442 q 524 399 485 418 l 524 413 q 349 519 524 519 q 125 472 226 519 l 125 640 q 242 674 169 661 q 392 688 314 688 q 673 613 578 688 q 768 406 768 539 l 768 0 l 539 0 l 539 57 q 444 0 501 21 q 314 -21 388 -21 m 386 129 q 467 147 429 129 q 524 192 504 164 l 524 250 q 388 290 464 290 q 313 269 339 290 q 286 208 286 249 q 312 150 286 171 q 386 129 338 129 z "},"ẵ":{"ha":824,"x_min":35,"x_max":768,"o":"m 567 979 q 513 988 540 979 q 449 1010 485 996 q 389 1031 411 1024 q 344 1038 367 1038 q 229 981 276 1038 l 229 1121 q 344 1168 267 1168 q 389 1162 367 1168 q 431 1149 411 1156 q 458 1139 451 1142 q 567 1110 528 1110 q 682 1167 635 1110 l 682 1025 q 567 979 644 979 m 456 729 q 281 785 346 729 q 215 938 215 840 l 376 938 q 396 881 376 899 q 456 863 415 863 q 516 881 496 863 q 536 938 536 899 l 696 938 q 631 785 696 840 q 456 729 565 729 m 314 -21 q 112 40 189 -21 q 35 208 35 100 q 109 381 35 321 q 322 442 183 442 q 431 430 376 442 q 524 399 485 418 l 524 413 q 349 519 524 519 q 125 472 226 519 l 125 640 q 242 674 169 661 q 392 688 314 688 q 673 613 578 688 q 768 406 768 539 l 768 0 l 539 0 l 539 57 q 444 0 501 21 q 314 -21 388 -21 m 386 129 q 467 147 429 129 q 524 192 504 164 l 524 250 q 388 290 464 290 q 313 269 339 290 q 286 208 286 249 q 312 150 286 171 q 386 129 338 129 z "},"ǎ":{"ha":844,"x_min":35,"x_max":789,"o":"m 138 981 l 381 981 l 464 863 l 547 981 l 789 981 l 572 729 l 354 729 l 138 981 m 314 -21 q 112 40 189 -21 q 35 208 35 100 q 109 381 35 321 q 322 442 183 442 q 431 430 376 442 q 524 399 485 418 l 524 413 q 349 519 524 519 q 125 472 226 519 l 125 640 q 242 674 169 661 q 392 688 314 688 q 673 613 578 688 q 768 406 768 539 l 768 0 l 539 0 l 539 57 q 444 0 501 21 q 314 -21 388 -21 m 386 129 q 467 147 429 129 q 524 192 504 164 l 524 250 q 388 290 464 290 q 313 269 339 290 q 286 208 286 249 q 312 150 286 171 q 386 129 338 129 z "},"â":{"ha":825,"x_min":35,"x_max":769,"o":"m 335 981 l 553 981 l 769 729 l 528 729 l 444 847 l 361 729 l 118 729 l 335 981 m 314 -21 q 112 40 189 -21 q 35 208 35 100 q 109 381 35 321 q 322 442 183 442 q 431 430 376 442 q 524 399 485 418 l 524 413 q 349 519 524 519 q 125 472 226 519 l 125 640 q 242 674 169 661 q 392 688 314 688 q 673 613 578 688 q 768 406 768 539 l 768 0 l 539 0 l 539 57 q 444 0 501 21 q 314 -21 388 -21 m 386 129 q 467 147 429 129 q 524 192 504 164 l 524 250 q 388 290 464 290 q 313 269 339 290 q 286 208 286 249 q 312 150 286 171 q 386 129 338 129 z "},"ấ":{"ha":804,"x_min":35,"x_max":931,"o":"m 706 1083 l 931 1083 l 818 890 l 624 890 l 706 1083 m 358 947 l 531 947 l 742 729 l 525 729 l 444 822 l 364 729 l 147 729 l 358 947 m 314 -21 q 112 40 189 -21 q 35 208 35 100 q 109 381 35 321 q 322 442 183 442 q 431 430 376 442 q 524 399 485 418 l 524 413 q 349 519 524 519 q 125 472 226 519 l 125 640 q 242 674 169 661 q 392 688 314 688 q 673 613 578 688 q 768 406 768 539 l 768 0 l 539 0 l 539 57 q 444 0 501 21 q 314 -21 388 -21 m 386 129 q 467 147 429 129 q 524 192 504 164 l 524 250 q 388 290 464 290 q 313 269 339 290 q 286 208 286 249 q 312 150 286 171 q 386 129 338 129 z "},"ậ":{"ha":824,"x_min":35,"x_max":768,"o":"m 317 981 l 535 981 l 751 729 l 510 729 l 426 847 l 343 729 l 100 729 l 317 981 m 314 -21 q 112 40 189 -21 q 35 208 35 100 q 109 381 35 321 q 322 442 183 442 q 431 430 376 442 q 524 399 485 418 l 524 413 q 349 519 524 519 q 125 472 226 519 l 125 640 q 242 674 169 661 q 392 688 314 688 q 673 613 578 688 q 768 406 768 539 l 768 0 l 539 0 l 539 57 q 444 0 501 21 q 314 -21 388 -21 m 386 129 q 467 147 429 129 q 524 192 504 164 l 524 250 q 388 290 464 290 q 313 269 339 290 q 286 208 286 249 q 312 150 286 171 q 386 129 338 129 m 435 -278 q 358 -247 390 -278 q 326 -171 326 -215 q 358 -95 326 -126 q 435 -64 390 -64 q 510 -95 479 -64 q 540 -171 540 -126 q 510 -247 540 -215 q 435 -278 479 -278 z "},"ầ":{"ha":763,"x_min":-104,"x_max":707,"o":"m -104 1083 l 121 1083 l 203 890 l 8 890 l -104 1083 m 296 947 l 468 947 l 679 729 l 463 729 l 382 822 l 301 729 l 85 729 l 296 947 m 253 -21 q 51 40 128 -21 q -26 208 -26 100 q 48 381 -26 321 q 261 442 122 442 q 369 430 315 442 q 463 399 424 418 l 463 413 q 288 519 463 519 q 64 472 165 519 l 64 640 q 181 674 108 661 q 331 688 253 688 q 612 613 517 688 q 707 406 707 539 l 707 0 l 478 0 l 478 57 q 383 0 440 21 q 253 -21 326 -21 m 325 129 q 406 147 368 129 q 463 192 443 164 l 463 250 q 326 290 403 290 q 251 269 278 290 q 225 208 225 249 q 251 150 225 171 q 325 129 276 129 z "},"ẩ":{"ha":844,"x_min":35,"x_max":851,"o":"m 617 946 q 671 954 653 946 q 689 982 689 963 q 633 1014 689 1014 q 582 1004 604 1014 l 582 1086 q 640 1098 606 1093 q 701 1103 675 1103 q 812 1075 772 1103 q 851 1000 851 1047 q 829 943 851 967 q 767 910 807 919 l 767 875 l 617 875 l 617 946 m 347 947 l 519 947 l 731 729 l 514 729 l 433 822 l 353 729 l 136 729 l 347 947 m 314 -21 q 112 40 189 -21 q 35 208 35 100 q 109 381 35 321 q 322 442 183 442 q 431 430 376 442 q 524 399 485 418 l 524 413 q 349 519 524 519 q 125 472 226 519 l 125 640 q 242 674 169 661 q 392 688 314 688 q 673 613 578 688 q 768 406 768 539 l 768 0 l 539 0 l 539 57 q 444 0 501 21 q 314 -21 388 -21 m 386 129 q 467 147 429 129 q 524 192 504 164 l 524 250 q 388 290 464 290 q 313 269 339 290 q 286 208 286 249 q 312 150 286 171 q 386 129 338 129 z "},"ẫ":{"ha":824,"x_min":35,"x_max":768,"o":"m 561 963 q 508 970 535 963 q 443 993 482 978 q 385 1014 408 1007 q 340 1021 363 1021 q 225 964 272 1021 l 225 1104 q 340 1151 263 1151 q 388 1144 364 1151 q 453 1122 413 1138 q 513 1101 488 1108 q 561 1093 538 1093 q 676 1150 631 1093 l 676 1008 q 561 963 639 963 m 354 947 l 526 947 l 738 729 l 521 729 l 440 822 l 360 729 l 143 729 l 354 947 m 314 -21 q 112 40 189 -21 q 35 208 35 100 q 109 381 35 321 q 322 442 183 442 q 431 430 376 442 q 524 399 485 418 l 524 413 q 349 519 524 519 q 125 472 226 519 l 125 640 q 242 674 169 661 q 392 688 314 688 q 673 613 578 688 q 768 406 768 539 l 768 0 l 539 0 l 539 57 q 444 0 501 21 q 314 -21 388 -21 m 386 129 q 467 147 429 129 q 524 192 504 164 l 524 250 q 388 290 464 290 q 313 269 339 290 q 286 208 286 249 q 312 150 286 171 q 386 129 338 129 z "},"ä":{"ha":824,"x_min":35,"x_max":768,"o":"m 269 724 q 193 754 225 724 q 161 829 161 785 q 193 906 161 874 q 269 938 225 938 q 344 906 313 938 q 375 829 375 874 q 344 754 375 785 q 269 724 314 724 m 597 724 q 521 754 553 724 q 489 829 489 785 q 521 906 489 874 q 597 938 553 938 q 672 906 640 938 q 703 829 703 874 q 672 754 703 785 q 597 724 640 724 m 314 -21 q 112 40 189 -21 q 35 208 35 100 q 109 381 35 321 q 322 442 183 442 q 431 430 376 442 q 524 399 485 418 l 524 413 q 349 519 524 519 q 125 472 226 519 l 125 640 q 242 674 169 661 q 392 688 314 688 q 673 613 578 688 q 768 406 768 539 l 768 0 l 539 0 l 539 57 q 444 0 501 21 q 314 -21 388 -21 m 386 129 q 467 147 429 129 q 524 192 504 164 l 524 250 q 388 290 464 290 q 313 269 339 290 q 286 208 286 249 q 312 150 286 171 q 386 129 338 129 z "},"ạ":{"ha":824,"x_min":35,"x_max":768,"o":"m 314 -21 q 112 40 189 -21 q 35 208 35 100 q 109 381 35 321 q 322 442 183 442 q 431 430 376 442 q 524 399 485 418 l 524 413 q 349 519 524 519 q 125 472 226 519 l 125 640 q 242 674 169 661 q 392 688 314 688 q 673 613 578 688 q 768 406 768 539 l 768 0 l 539 0 l 539 57 q 444 0 501 21 q 314 -21 388 -21 m 386 129 q 467 147 429 129 q 524 192 504 164 l 524 250 q 388 290 464 290 q 313 269 339 290 q 286 208 286 249 q 312 150 286 171 q 386 129 338 129 m 438 -278 q 361 -247 393 -278 q 329 -171 329 -215 q 361 -95 329 -126 q 438 -64 393 -64 q 513 -95 482 -64 q 543 -171 543 -126 q 513 -247 543 -215 q 438 -278 482 -278 z "},"à":{"ha":824,"x_min":35,"x_max":768,"o":"m 236 967 l 493 967 l 589 719 l 363 719 l 236 967 m 314 -21 q 112 40 189 -21 q 35 208 35 100 q 109 381 35 321 q 322 442 183 442 q 431 430 376 442 q 524 399 485 418 l 524 413 q 349 519 524 519 q 125 472 226 519 l 125 640 q 242 674 169 661 q 392 688 314 688 q 673 613 578 688 q 768 406 768 539 l 768 0 l 539 0 l 539 57 q 444 0 501 21 q 314 -21 388 -21 m 386 129 q 467 147 429 129 q 524 192 504 164 l 524 250 q 388 290 464 290 q 313 269 339 290 q 286 208 286 249 q 312 150 286 171 q 386 129 338 129 z "},"ả":{"ha":824,"x_min":35,"x_max":768,"o":"m 336 828 q 419 840 390 828 q 447 883 447 853 q 365 929 447 929 q 323 925 347 929 q 286 915 299 921 l 286 1032 q 364 1048 317 1042 q 453 1054 411 1054 q 616 1015 560 1054 q 672 907 672 975 q 640 817 672 856 q 550 765 607 779 l 550 731 l 336 731 l 336 828 m 314 -21 q 112 40 189 -21 q 35 208 35 100 q 109 381 35 321 q 322 442 183 442 q 431 430 376 442 q 524 399 485 418 l 524 413 q 349 519 524 519 q 125 472 226 519 l 125 640 q 242 674 169 661 q 392 688 314 688 q 673 613 578 688 q 768 406 768 539 l 768 0 l 539 0 l 539 57 q 444 0 501 21 q 314 -21 388 -21 m 386 129 q 467 147 429 129 q 524 192 504 164 l 524 250 q 388 290 464 290 q 313 269 339 290 q 286 208 286 249 q 312 150 286 171 q 386 129 338 129 z "},"ɑ":{"ha":924,"x_min":35,"x_max":861,"o":"m 389 -21 q 204 23 285 -21 q 79 147 124 67 q 35 332 35 226 q 79 517 35 436 q 203 643 124 599 q 389 688 283 688 q 517 668 458 688 q 617 613 575 649 l 617 667 l 861 667 l 861 0 l 625 0 l 625 67 q 389 -21 532 -21 m 453 168 q 553 197 508 168 q 617 274 597 225 l 617 392 q 553 469 597 440 q 453 497 508 497 q 332 453 378 497 q 286 332 286 408 q 332 212 286 256 q 453 168 378 168 z "},"ā":{"ha":824,"x_min":35,"x_max":768,"o":"m 201 888 l 681 888 l 681 731 l 201 731 l 201 888 m 314 -21 q 112 40 189 -21 q 35 208 35 100 q 109 381 35 321 q 322 442 183 442 q 431 430 376 442 q 524 399 485 418 l 524 413 q 349 519 524 519 q 125 472 226 519 l 125 640 q 242 674 169 661 q 392 688 314 688 q 673 613 578 688 q 768 406 768 539 l 768 0 l 539 0 l 539 57 q 444 0 501 21 q 314 -21 388 -21 m 386 129 q 467 147 429 129 q 524 192 504 164 l 524 250 q 388 290 464 290 q 313 269 339 290 q 286 208 286 249 q 312 150 286 171 q 386 129 338 129 z "},"ą":{"ha":838,"x_min":35,"x_max":782,"o":"m 715 -162 q 782 -146 751 -162 l 782 -279 q 639 -300 722 -300 q 508 -267 558 -300 q 457 -165 457 -233 q 483 -70 457 -112 q 556 0 510 -28 l 539 0 l 539 57 q 444 0 501 21 q 314 -21 388 -21 q 112 40 189 -21 q 35 208 35 100 q 109 381 35 321 q 322 442 183 442 q 431 430 376 442 q 524 399 485 418 l 524 413 q 349 519 524 519 q 125 472 226 519 l 125 640 q 242 674 169 661 q 392 688 314 688 q 673 613 578 688 q 768 406 768 539 l 768 0 l 778 0 q 694 -58 721 -31 q 668 -117 668 -86 q 681 -150 668 -137 q 715 -162 693 -162 m 524 250 q 388 290 464 290 q 313 269 339 290 q 286 208 286 249 q 312 150 286 171 q 386 129 338 129 q 467 147 429 129 q 524 192 504 164 l 524 250 z "},"å":{"ha":824,"x_min":35,"x_max":768,"o":"m 447 729 q 349 755 394 729 q 278 825 304 781 q 251 922 251 869 q 278 1020 251 975 q 349 1091 304 1065 q 447 1117 394 1117 q 546 1091 500 1117 q 618 1020 592 1065 q 644 922 644 975 q 618 825 644 869 q 546 755 592 781 q 447 729 500 729 m 447 858 q 492 877 474 858 q 511 922 511 896 q 493 968 511 950 q 447 986 475 986 q 402 967 421 986 q 383 922 383 949 q 402 877 383 896 q 447 858 421 858 m 314 -21 q 112 40 189 -21 q 35 208 35 100 q 109 381 35 321 q 322 442 183 442 q 431 430 376 442 q 524 399 485 418 l 524 413 q 349 519 524 519 q 125 472 226 519 l 125 640 q 242 674 169 661 q 392 688 314 688 q 673 613 578 688 q 768 406 768 539 l 768 0 l 539 0 l 539 57 q 444 0 501 21 q 314 -21 388 -21 m 386 129 q 467 147 429 129 q 524 192 504 164 l 524 250 q 388 290 464 290 q 313 269 339 290 q 286 208 286 249 q 312 150 286 171 q 386 129 338 129 z "},"ǻ":{"ha":824,"x_min":35,"x_max":768,"o":"m 378 1344 l 635 1344 l 508 1147 l 282 1147 l 378 1344 m 408 729 q 310 755 356 729 q 239 825 265 781 q 213 922 213 869 q 239 1020 213 975 q 310 1091 265 1065 q 408 1117 356 1117 q 507 1091 461 1117 q 579 1020 553 1065 q 606 922 606 975 q 579 825 606 869 q 507 755 553 781 q 408 729 461 729 m 408 858 q 453 877 435 858 q 472 922 472 896 q 454 968 472 950 q 408 986 436 986 q 363 967 382 986 q 344 922 344 949 q 363 877 344 896 q 408 858 382 858 m 314 -21 q 112 40 189 -21 q 35 208 35 100 q 109 381 35 321 q 322 442 183 442 q 431 430 376 442 q 524 399 485 418 l 524 413 q 349 519 524 519 q 125 472 226 519 l 125 640 q 242 674 169 661 q 392 688 314 688 q 673 613 578 688 q 768 406 768 539 l 768 0 l 539 0 l 539 57 q 444 0 501 21 q 314 -21 388 -21 m 386 129 q 467 147 429 129 q 524 192 504 164 l 524 250 q 388 290 464 290 q 313 269 339 290 q 286 208 286 249 q 312 150 286 171 q 386 129 338 129 z "},"ã":{"ha":824,"x_min":35,"x_max":768,"o":"m 174 907 q 319 965 222 965 q 381 957 350 965 q 460 931 411 949 q 532 905 501 914 q 593 896 563 896 q 739 965 681 896 l 739 788 q 593 731 692 731 q 525 740 558 731 q 447 767 492 749 q 376 792 403 783 q 319 800 349 800 q 174 729 233 800 l 174 907 m 314 -21 q 112 40 189 -21 q 35 208 35 100 q 109 381 35 321 q 322 442 183 442 q 431 430 376 442 q 524 399 485 418 l 524 413 q 349 519 524 519 q 125 472 226 519 l 125 640 q 242 674 169 661 q 392 688 314 688 q 673 613 578 688 q 768 406 768 539 l 768 0 l 539 0 l 539 57 q 444 0 501 21 q 314 -21 388 -21 m 386 129 q 467 147 429 129 q 524 192 504 164 l 524 250 q 388 290 464 290 q 313 269 339 290 q 286 208 286 249 q 312 150 286 171 q 386 129 338 129 z "},"æ":{"ha":1333,"x_min":35,"x_max":1299,"o":"m 333 -21 q 116 39 197 -21 q 35 208 35 99 q 111 381 35 319 q 322 442 188 442 q 431 430 376 442 q 524 399 485 418 l 524 413 q 349 519 524 519 q 125 472 226 519 l 125 640 q 242 674 169 661 q 392 688 314 688 q 658 603 558 688 q 774 665 707 643 q 921 688 842 688 q 1126 642 1040 688 q 1255 519 1211 597 q 1299 342 1299 440 l 1299 257 l 768 257 q 988 146 797 146 q 1122 157 1053 146 q 1240 188 1190 168 l 1240 26 q 1114 -8 1189 6 q 960 -21 1039 -21 q 788 5 865 -21 q 656 79 710 31 q 519 5 594 31 q 333 -21 443 -21 m 1068 401 q 1024 488 1063 457 q 917 519 985 519 q 812 488 850 519 q 768 401 774 456 l 1068 401 m 386 129 q 466 145 429 129 q 524 189 503 161 l 524 250 q 388 290 464 290 q 313 269 339 290 q 286 208 286 249 q 312 150 286 171 q 386 129 338 129 z "},"ǽ":{"ha":1333,"x_min":35,"x_max":1299,"o":"m 608 972 l 865 972 l 739 725 l 513 725 l 608 972 m 333 -21 q 116 39 197 -21 q 35 208 35 99 q 111 381 35 319 q 322 442 188 442 q 431 430 376 442 q 524 399 485 418 l 524 413 q 349 519 524 519 q 125 472 226 519 l 125 640 q 242 674 169 661 q 392 688 314 688 q 658 603 558 688 q 774 665 707 643 q 921 688 842 688 q 1126 642 1040 688 q 1255 519 1211 597 q 1299 342 1299 440 l 1299 257 l 768 257 q 988 146 797 146 q 1122 157 1053 146 q 1240 188 1190 168 l 1240 26 q 1114 -8 1189 6 q 960 -21 1039 -21 q 788 5 865 -21 q 656 79 710 31 q 519 5 594 31 q 333 -21 443 -21 m 1068 401 q 1024 488 1063 457 q 917 519 985 519 q 812 488 850 519 q 768 401 774 456 l 1068 401 m 386 129 q 466 145 429 129 q 524 189 503 161 l 524 250 q 388 290 464 290 q 313 269 339 290 q 286 208 286 249 q 312 150 286 171 q 386 129 338 129 z "},"b":{"ha":924,"x_min":63,"x_max":889,"o":"m 535 -21 q 299 67 392 -21 l 299 0 l 63 0 l 63 1026 l 307 1026 l 307 613 q 408 667 347 647 q 535 688 468 688 q 720 643 640 688 q 844 517 800 599 q 889 332 889 436 q 844 147 889 226 q 719 23 800 67 q 535 -21 639 -21 m 471 168 q 592 212 546 168 q 638 332 638 256 q 592 453 638 408 q 471 497 546 497 q 371 469 415 497 q 307 392 326 440 l 307 274 q 371 197 326 225 q 471 168 415 168 z "},"c":{"ha":749,"x_min":35,"x_max":714,"o":"m 432 -21 q 142 71 249 -21 q 35 332 35 163 q 142 594 35 501 q 433 688 250 688 q 587 672 515 688 q 706 626 658 656 l 706 436 q 482 497 621 497 q 340 456 393 497 q 286 332 286 415 q 339 208 286 247 q 481 168 392 168 q 714 232 615 168 l 714 43 q 432 -21 608 -21 z "},"ć":{"ha":749,"x_min":35,"x_max":714,"o":"m 421 967 l 678 967 l 551 719 l 325 719 l 421 967 m 432 -21 q 142 71 249 -21 q 35 332 35 163 q 142 594 35 501 q 433 688 250 688 q 587 672 515 688 q 706 626 658 656 l 706 436 q 482 497 621 497 q 340 456 393 497 q 286 332 286 415 q 339 208 286 247 q 481 168 392 168 q 714 232 615 168 l 714 43 q 432 -21 608 -21 z "},"č":{"ha":736,"x_min":35,"x_max":747,"o":"m 96 981 l 339 981 l 422 863 l 506 981 l 747 981 l 531 729 l 313 729 l 96 981 m 432 -21 q 142 71 249 -21 q 35 332 35 163 q 142 594 35 501 q 433 688 250 688 q 587 672 515 688 q 706 626 658 656 l 706 436 q 482 497 621 497 q 340 456 393 497 q 286 332 286 415 q 339 208 286 247 q 481 168 392 168 q 714 232 615 168 l 714 43 q 432 -21 608 -21 z "},"ç":{"ha":749,"x_min":35,"x_max":714,"o":"m 714 43 q 557 -11 651 6 l 536 -64 q 628 -105 597 -74 q 660 -196 660 -136 q 600 -307 660 -269 q 438 -344 540 -344 q 347 -339 390 -344 q 281 -325 303 -333 l 281 -207 q 365 -226 317 -226 q 417 -214 399 -226 q 435 -179 435 -201 q 403 -138 435 -153 q 299 -124 372 -124 l 340 -14 q 116 96 197 7 q 35 332 35 185 q 142 594 35 501 q 433 688 250 688 q 587 672 515 688 q 706 626 658 656 l 706 436 q 482 497 621 497 q 340 456 393 497 q 286 332 286 415 q 339 208 286 247 q 481 168 392 168 q 714 232 615 168 l 714 43 z "},"ĉ":{"ha":735,"x_min":35,"x_max":760,"o":"m 325 981 l 543 981 l 760 729 l 518 729 l 435 847 l 351 729 l 108 729 l 325 981 m 432 -21 q 142 71 249 -21 q 35 332 35 163 q 142 594 35 501 q 433 688 250 688 q 587 672 515 688 q 706 626 658 656 l 706 436 q 482 497 621 497 q 340 456 393 497 q 286 332 286 415 q 339 208 286 247 q 481 168 392 168 q 714 232 615 168 l 714 43 q 432 -21 608 -21 z "},"ċ":{"ha":749,"x_min":35,"x_max":714,"o":"m 442 731 q 365 761 397 731 q 333 836 333 792 q 365 913 333 881 q 442 944 397 944 q 516 913 485 944 q 547 836 547 881 q 517 761 547 792 q 442 731 486 731 m 432 -21 q 142 71 249 -21 q 35 332 35 163 q 142 594 35 501 q 433 688 250 688 q 587 672 515 688 q 706 626 658 656 l 706 436 q 482 497 621 497 q 340 456 393 497 q 286 332 286 415 q 339 208 286 247 q 481 168 392 168 q 714 232 615 168 l 714 43 q 432 -21 608 -21 z "},"d":{"ha":924,"x_min":35,"x_max":861,"o":"m 389 -21 q 204 23 285 -21 q 79 147 124 67 q 35 332 35 226 q 79 517 35 436 q 203 643 124 599 q 389 688 283 688 q 517 668 458 688 q 617 613 575 649 l 617 1026 l 861 1026 l 861 0 l 625 0 l 625 67 q 389 -21 532 -21 m 453 168 q 553 197 508 168 q 617 274 597 225 l 617 392 q 553 469 597 440 q 453 497 508 497 q 332 453 378 497 q 286 332 286 408 q 332 212 286 256 q 453 168 378 168 z "},"ð":{"ha":872,"x_min":35,"x_max":838,"o":"m 424 -21 q 208 22 296 -21 q 78 141 121 65 q 35 314 35 217 q 132 551 35 467 q 392 635 229 635 q 506 618 450 635 q 597 571 561 601 q 528 750 586 690 l 356 658 l 356 756 l 439 800 q 376 807 407 807 q 276 798 325 807 q 193 772 226 789 l 193 965 q 281 984 228 976 q 381 992 333 992 q 651 913 542 992 l 813 999 l 813 903 l 717 851 q 838 453 838 711 q 786 200 838 307 q 641 36 735 93 q 424 -21 547 -21 m 432 164 q 533 206 496 164 q 571 308 571 247 q 532 413 571 374 q 432 451 493 451 q 329 413 367 451 q 292 308 292 375 q 329 203 292 242 q 432 164 367 164 z "},"ď":{"ha":882,"x_min":35,"x_max":1207,"o":"m 1006 1068 l 1207 1068 l 1071 797 l 892 797 l 1006 1068 m 389 -28 q 204 16 285 -28 q 79 140 124 60 q 35 326 35 219 q 79 511 35 431 q 203 636 124 592 q 389 681 283 681 q 520 656 458 681 q 618 589 582 631 l 618 1019 l 861 1019 l 861 -7 l 626 -7 l 626 74 q 523 -1 586 26 q 389 -28 460 -28 m 453 161 q 554 188 510 161 q 618 264 599 215 l 618 388 q 554 463 599 436 q 453 490 510 490 q 333 447 379 490 q 288 325 288 403 q 333 204 288 247 q 453 161 379 161 z "},"đ":{"ha":954,"x_min":35,"x_max":933,"o":"m 933 736 l 861 736 l 861 0 l 625 0 l 625 67 q 389 -21 532 -21 q 204 23 285 -21 q 79 147 124 67 q 35 332 35 226 q 79 517 35 436 q 203 643 124 599 q 389 688 283 688 q 517 668 458 688 q 617 613 575 649 l 617 736 l 418 736 l 418 918 l 617 918 l 617 1026 l 861 1026 l 861 918 l 933 918 l 933 736 m 617 392 q 553 469 597 440 q 453 497 508 497 q 332 453 378 497 q 286 332 286 408 q 332 212 286 256 q 453 168 378 168 q 553 197 508 168 q 617 274 597 225 l 617 392 z "},"ḍ":{"ha":924,"x_min":35,"x_max":861,"o":"m 389 -21 q 204 23 285 -21 q 79 147 124 67 q 35 332 35 226 q 79 517 35 436 q 203 643 124 599 q 389 688 283 688 q 517 668 458 688 q 617 613 575 649 l 617 1026 l 861 1026 l 861 0 l 625 0 l 625 67 q 389 -21 532 -21 m 453 168 q 553 197 508 168 q 617 274 597 225 l 617 392 q 553 469 597 440 q 453 497 508 497 q 332 453 378 497 q 286 332 286 408 q 332 212 286 256 q 453 168 378 168 m 481 -278 q 404 -247 436 -278 q 372 -171 372 -215 q 404 -95 372 -126 q 481 -64 436 -64 q 556 -95 525 -64 q 586 -171 586 -126 q 556 -247 586 -215 q 481 -278 525 -278 z "},"ḏ":{"ha":924,"x_min":35,"x_max":861,"o":"m 389 -21 q 204 23 285 -21 q 79 147 124 67 q 35 332 35 226 q 79 517 35 436 q 203 643 124 599 q 389 688 283 688 q 517 668 458 688 q 617 613 575 649 l 617 1026 l 861 1026 l 861 0 l 625 0 l 625 67 q 389 -21 532 -21 m 453 168 q 553 197 508 168 q 617 274 597 225 l 617 392 q 553 469 597 440 q 453 497 508 497 q 332 453 378 497 q 286 332 286 408 q 332 212 286 256 q 453 168 378 168 m 265 -82 l 744 -82 l 744 -239 l 265 -239 l 265 -82 z "},"e":{"ha":833,"x_min":35,"x_max":799,"o":"m 454 -21 q 147 71 258 -21 q 35 331 35 163 q 134 592 35 496 q 421 688 233 688 q 626 642 540 688 q 755 519 711 597 q 799 342 799 440 l 799 251 l 267 251 q 336 171 281 196 q 488 146 392 146 q 622 157 553 146 q 740 188 690 168 l 740 26 q 612 -8 689 6 q 454 -21 535 -21 m 568 404 q 524 489 563 458 q 417 519 485 519 q 311 488 350 519 q 267 404 272 457 l 568 404 z "},"é":{"ha":833,"x_min":35,"x_max":799,"o":"m 403 967 l 660 967 l 533 719 l 307 719 l 403 967 m 454 -21 q 147 71 258 -21 q 35 331 35 163 q 134 592 35 496 q 421 688 233 688 q 626 642 540 688 q 755 519 711 597 q 799 342 799 440 l 799 251 l 267 251 q 336 171 281 196 q 488 146 392 146 q 622 157 553 146 q 740 188 690 168 l 740 26 q 612 -8 689 6 q 454 -21 535 -21 m 568 404 q 524 489 563 458 q 417 519 485 519 q 311 488 350 519 q 267 404 272 457 l 568 404 z "},"ĕ":{"ha":833,"x_min":35,"x_max":799,"o":"m 444 729 q 257 794 324 729 q 190 969 190 858 l 372 969 q 444 883 372 883 q 498 906 479 883 q 517 969 517 928 l 699 969 q 632 794 699 858 q 444 729 565 729 m 454 -21 q 147 71 258 -21 q 35 331 35 163 q 134 592 35 496 q 421 688 233 688 q 626 642 540 688 q 755 519 711 597 q 799 342 799 440 l 799 251 l 267 251 q 336 171 281 196 q 488 146 392 146 q 622 157 553 146 q 740 188 690 168 l 740 26 q 612 -8 689 6 q 454 -21 535 -21 m 568 404 q 524 489 563 458 q 417 519 485 519 q 311 488 350 519 q 267 404 272 457 l 568 404 z "},"ě":{"ha":863,"x_min":64,"x_max":828,"o":"m 142 981 l 385 981 l 468 863 l 551 981 l 793 981 l 576 729 l 358 729 l 142 981 m 483 -21 q 176 71 288 -21 q 64 331 64 163 q 163 592 64 496 q 450 688 263 688 q 655 642 569 688 q 784 519 740 597 q 828 342 828 440 l 828 251 l 296 251 q 365 171 310 196 q 517 146 421 146 q 651 157 582 146 q 769 188 719 168 l 769 26 q 641 -8 718 6 q 483 -21 564 -21 m 597 404 q 553 489 592 458 q 446 519 514 519 q 340 488 379 519 q 296 404 301 457 l 597 404 z "},"ê":{"ha":858,"x_min":60,"x_max":824,"o":"m 343 981 l 561 981 l 778 729 l 536 729 l 453 847 l 369 729 l 126 729 l 343 981 m 479 -21 q 172 71 283 -21 q 60 331 60 163 q 159 592 60 496 q 446 688 258 688 q 651 642 565 688 q 780 519 736 597 q 824 342 824 440 l 824 251 l 292 251 q 361 171 306 196 q 513 146 417 146 q 647 157 578 146 q 765 188 715 168 l 765 26 q 637 -8 714 6 q 479 -21 560 -21 m 593 404 q 549 489 588 458 q 442 519 510 519 q 336 488 375 519 q 292 404 297 457 l 593 404 z "},"ế":{"ha":792,"x_min":35,"x_max":926,"o":"m 701 1083 l 926 1083 l 814 890 l 619 890 l 701 1083 m 354 947 l 526 947 l 738 729 l 521 729 l 440 822 l 360 729 l 143 729 l 354 947 m 454 -21 q 147 71 258 -21 q 35 331 35 163 q 134 592 35 496 q 421 688 233 688 q 626 642 540 688 q 755 519 711 597 q 799 342 799 440 l 799 251 l 267 251 q 336 171 281 196 q 488 146 392 146 q 622 157 553 146 q 740 188 690 168 l 740 26 q 612 -8 689 6 q 454 -21 535 -21 m 568 404 q 524 489 563 458 q 417 519 485 519 q 311 488 350 519 q 267 404 272 457 l 568 404 z "},"ệ":{"ha":853,"x_min":54,"x_max":818,"o":"m 349 981 l 567 981 l 783 729 l 542 729 l 458 847 l 375 729 l 132 729 l 349 981 m 474 -21 q 166 71 278 -21 q 54 331 54 163 q 153 592 54 496 q 440 688 253 688 q 645 642 560 688 q 774 519 731 597 q 818 342 818 440 l 818 251 l 286 251 q 356 171 300 196 q 507 146 411 146 q 641 157 572 146 q 760 188 710 168 l 760 26 q 631 -8 708 6 q 474 -21 554 -21 m 588 404 q 543 489 582 458 q 436 519 504 519 q 331 488 369 519 q 286 404 292 457 l 588 404 m 460 -278 q 383 -247 415 -278 q 351 -171 351 -215 q 383 -95 351 -126 q 460 -64 415 -64 q 535 -95 504 -64 q 565 -171 565 -126 q 535 -247 565 -215 q 460 -278 504 -278 z "},"ề":{"ha":750,"x_min":-124,"x_max":715,"o":"m -124 1083 l 101 1083 l 183 890 l -11 890 l -124 1083 m 276 947 l 449 947 l 660 729 l 443 729 l 363 822 l 282 729 l 65 729 l 276 947 m 371 -21 q 63 71 175 -21 q -49 331 -49 163 q 51 592 -49 496 q 338 688 150 688 q 542 642 457 688 q 672 519 628 597 q 715 342 715 440 l 715 251 l 183 251 q 253 171 197 196 q 404 146 308 146 q 538 157 469 146 q 657 188 607 168 l 657 26 q 528 -8 606 6 q 371 -21 451 -21 m 485 404 q 440 489 479 458 q 333 519 401 519 q 228 488 267 519 q 183 404 189 457 l 485 404 z "},"ể":{"ha":856,"x_min":35,"x_max":849,"o":"m 614 953 q 668 961 650 953 q 686 989 686 969 q 631 1021 686 1021 q 579 1011 601 1021 l 579 1093 q 638 1105 603 1100 q 699 1110 672 1110 q 809 1082 769 1110 q 849 1007 849 1054 q 826 950 849 974 q 764 917 804 926 l 764 882 l 614 882 l 614 953 m 344 954 l 517 954 l 728 736 l 511 736 l 431 829 l 350 736 l 133 736 l 344 954 m 454 -21 q 147 71 258 -21 q 35 331 35 163 q 134 592 35 496 q 421 688 233 688 q 626 642 540 688 q 755 519 711 597 q 799 342 799 440 l 799 251 l 267 251 q 336 171 281 196 q 488 146 392 146 q 622 157 553 146 q 740 188 690 168 l 740 26 q 612 -8 689 6 q 454 -21 535 -21 m 568 404 q 524 489 563 458 q 417 519 485 519 q 311 488 350 519 q 267 404 272 457 l 568 404 z "},"ễ":{"ha":833,"x_min":35,"x_max":799,"o":"m 558 963 q 506 970 532 963 q 440 993 479 978 q 383 1014 406 1007 q 338 1021 360 1021 q 222 964 269 1021 l 222 1104 q 338 1151 260 1151 q 385 1144 361 1151 q 450 1122 410 1138 q 510 1101 485 1108 q 558 1093 535 1093 q 674 1150 628 1093 l 674 1008 q 558 963 636 963 m 351 947 l 524 947 l 735 729 l 518 729 l 438 822 l 357 729 l 140 729 l 351 947 m 454 -21 q 147 71 258 -21 q 35 331 35 163 q 134 592 35 496 q 421 688 233 688 q 626 642 540 688 q 755 519 711 597 q 799 342 799 440 l 799 251 l 267 251 q 336 171 281 196 q 488 146 392 146 q 622 157 553 146 q 740 188 690 168 l 740 26 q 612 -8 689 6 q 454 -21 535 -21 m 568 404 q 524 489 563 458 q 417 519 485 519 q 311 488 350 519 q 267 404 272 457 l 568 404 z "},"ë":{"ha":833,"x_min":35,"x_max":799,"o":"m 269 731 q 193 761 225 731 q 161 836 161 792 q 193 913 161 881 q 269 944 225 944 q 344 913 313 944 q 375 836 375 881 q 344 761 375 792 q 269 731 314 731 m 597 731 q 521 761 553 731 q 489 836 489 792 q 521 913 489 881 q 597 944 553 944 q 672 913 640 944 q 703 836 703 881 q 672 761 703 792 q 597 731 640 731 m 454 -21 q 147 71 258 -21 q 35 331 35 163 q 134 592 35 496 q 421 688 233 688 q 626 642 540 688 q 755 519 711 597 q 799 342 799 440 l 799 251 l 267 251 q 336 171 281 196 q 488 146 392 146 q 622 157 553 146 q 740 188 690 168 l 740 26 q 612 -8 689 6 q 454 -21 535 -21 m 568 404 q 524 489 563 458 q 417 519 485 519 q 311 488 350 519 q 267 404 272 457 l 568 404 z "},"ė":{"ha":833,"x_min":35,"x_max":799,"o":"m 433 731 q 357 761 389 731 q 325 836 325 792 q 357 913 325 881 q 433 944 389 944 q 508 913 476 944 q 539 836 539 881 q 508 761 539 792 q 433 731 478 731 m 454 -21 q 147 71 258 -21 q 35 331 35 163 q 134 592 35 496 q 421 688 233 688 q 626 642 540 688 q 755 519 711 597 q 799 342 799 440 l 799 251 l 267 251 q 336 171 281 196 q 488 146 392 146 q 622 157 553 146 q 740 188 690 168 l 740 26 q 612 -8 689 6 q 454 -21 535 -21 m 568 404 q 524 489 563 458 q 417 519 485 519 q 311 488 350 519 q 267 404 272 457 l 568 404 z "},"ẹ":{"ha":833,"x_min":35,"x_max":799,"o":"m 454 -21 q 147 71 258 -21 q 35 331 35 163 q 134 592 35 496 q 421 688 233 688 q 626 642 540 688 q 755 519 711 597 q 799 342 799 440 l 799 251 l 267 251 q 336 171 281 196 q 488 146 392 146 q 622 157 553 146 q 740 188 690 168 l 740 26 q 612 -8 689 6 q 454 -21 535 -21 m 568 404 q 524 489 563 458 q 417 519 485 519 q 311 488 350 519 q 267 404 272 457 l 568 404 m 457 -278 q 381 -247 413 -278 q 349 -171 349 -215 q 381 -95 349 -126 q 457 -64 413 -64 q 532 -95 501 -64 q 563 -171 563 -126 q 532 -247 563 -215 q 457 -278 501 -278 z "},"è":{"ha":833,"x_min":35,"x_max":799,"o":"m 217 967 l 474 967 l 569 719 l 343 719 l 217 967 m 454 -21 q 147 71 258 -21 q 35 331 35 163 q 134 592 35 496 q 421 688 233 688 q 626 642 540 688 q 755 519 711 597 q 799 342 799 440 l 799 251 l 267 251 q 336 171 281 196 q 488 146 392 146 q 622 157 553 146 q 740 188 690 168 l 740 26 q 612 -8 689 6 q 454 -21 535 -21 m 568 404 q 524 489 563 458 q 417 519 485 519 q 311 488 350 519 q 267 404 272 457 l 568 404 z "},"ẻ":{"ha":833,"x_min":35,"x_max":799,"o":"m 324 828 q 406 840 378 828 q 435 883 435 853 q 353 929 435 929 q 310 925 335 929 q 274 915 286 921 l 274 1032 q 351 1048 304 1042 q 440 1054 399 1054 q 603 1015 547 1054 q 660 907 660 975 q 627 817 660 856 q 538 765 594 779 l 538 731 l 324 731 l 324 828 m 454 -21 q 147 71 258 -21 q 35 331 35 163 q 134 592 35 496 q 421 688 233 688 q 626 642 540 688 q 755 519 711 597 q 799 342 799 440 l 799 251 l 267 251 q 336 171 281 196 q 488 146 392 146 q 622 157 553 146 q 740 188 690 168 l 740 26 q 612 -8 689 6 q 454 -21 535 -21 m 568 404 q 524 489 563 458 q 417 519 485 519 q 311 488 350 519 q 267 404 272 457 l 568 404 z "},"ē":{"ha":833,"x_min":35,"x_max":799,"o":"m 201 888 l 681 888 l 681 731 l 201 731 l 201 888 m 454 -21 q 147 71 258 -21 q 35 331 35 163 q 134 592 35 496 q 421 688 233 688 q 626 642 540 688 q 755 519 711 597 q 799 342 799 440 l 799 251 l 267 251 q 336 171 281 196 q 488 146 392 146 q 622 157 553 146 q 740 188 690 168 l 740 26 q 612 -8 689 6 q 454 -21 535 -21 m 568 404 q 524 489 563 458 q 417 519 485 519 q 311 488 350 519 q 267 404 272 457 l 568 404 z "},"ę":{"ha":833,"x_min":35,"x_max":799,"o":"m 799 251 l 267 251 q 336 171 281 196 q 488 146 392 146 q 622 157 553 146 q 740 188 690 168 l 740 26 q 653 0 700 10 q 569 -58 596 -31 q 543 -117 543 -86 q 556 -150 543 -137 q 590 -162 568 -162 q 657 -146 626 -162 l 657 -279 q 514 -300 597 -300 q 383 -267 433 -300 q 332 -165 332 -233 q 351 -83 332 -121 q 403 -19 369 -46 q 132 84 229 -7 q 35 331 35 175 q 134 592 35 496 q 421 688 233 688 q 626 642 540 688 q 755 519 711 597 q 799 342 799 440 l 799 251 m 568 404 q 524 489 563 458 q 417 519 485 519 q 311 488 350 519 q 267 404 272 457 l 568 404 z "},"ẽ":{"ha":833,"x_min":35,"x_max":799,"o":"m 168 908 q 314 967 217 967 q 375 958 344 967 q 454 932 406 950 q 526 906 496 915 q 588 897 557 897 q 733 967 675 897 l 733 789 q 588 732 686 732 q 519 741 553 732 q 442 768 486 750 q 370 793 397 785 q 314 801 343 801 q 168 731 228 801 l 168 908 m 454 -21 q 147 71 258 -21 q 35 331 35 163 q 134 592 35 496 q 421 688 233 688 q 626 642 540 688 q 755 519 711 597 q 799 342 799 440 l 799 251 l 267 251 q 336 171 281 196 q 488 146 392 146 q 622 157 553 146 q 740 188 690 168 l 740 26 q 612 -8 689 6 q 454 -21 535 -21 m 568 404 q 524 489 563 458 q 417 519 485 519 q 311 488 350 519 q 267 404 272 457 l 568 404 z "},"f":{"ha":519,"x_min":7,"x_max":540,"o":"m 100 497 l 7 497 l 7 667 l 100 667 l 100 750 q 185 959 100 885 q 407 1033 271 1033 q 540 1008 483 1033 l 540 814 q 453 833 501 833 q 371 808 397 833 q 344 729 344 783 l 344 667 l 499 667 l 499 497 l 344 497 l 344 0 l 100 0 l 100 497 z "},"g":{"ha":924,"x_min":35,"x_max":861,"o":"m 425 -319 q 291 -307 358 -319 q 175 -274 224 -294 l 175 -104 q 425 -151 285 -151 q 572 -110 526 -151 q 617 13 617 -68 l 617 53 q 517 -1 576 18 q 392 -21 458 -21 q 206 24 286 -21 q 80 149 125 68 q 35 333 35 229 q 79 519 35 439 q 204 644 124 600 q 389 688 285 688 q 625 600 532 688 l 625 667 l 861 667 l 861 46 q 755 -224 861 -128 q 425 -319 649 -319 m 453 168 q 554 197 510 168 q 617 275 599 226 l 617 392 q 553 469 597 440 q 453 497 508 497 q 332 453 378 497 q 286 335 286 410 q 332 213 286 258 q 453 168 378 168 z "},"ğ":{"ha":924,"x_min":35,"x_max":861,"o":"m 492 729 q 304 794 371 729 q 238 969 238 858 l 419 969 q 492 883 419 883 q 545 906 526 883 q 564 969 564 928 l 746 969 q 679 794 746 858 q 492 729 613 729 m 425 -319 q 291 -307 358 -319 q 175 -274 224 -294 l 175 -104 q 425 -151 285 -151 q 572 -110 526 -151 q 617 13 617 -68 l 617 53 q 517 -1 576 18 q 392 -21 458 -21 q 206 24 286 -21 q 80 149 125 68 q 35 333 35 229 q 79 519 35 439 q 204 644 124 600 q 389 688 285 688 q 625 600 532 688 l 625 667 l 861 667 l 861 46 q 755 -224 861 -128 q 425 -319 649 -319 m 453 168 q 554 197 510 168 q 617 275 599 226 l 617 392 q 553 469 597 440 q 453 497 508 497 q 332 453 378 497 q 286 335 286 410 q 332 213 286 258 q 453 168 378 168 z "},"ǧ":{"ha":924,"x_min":35,"x_max":861,"o":"m 57 996 l 300 996 l 383 878 l 467 996 l 708 996 l 492 744 l 274 744 l 57 996 m 425 -319 q 291 -307 358 -319 q 175 -274 224 -294 l 175 -104 q 425 -151 285 -151 q 572 -110 526 -151 q 617 13 617 -68 l 617 53 q 517 -1 576 18 q 392 -21 458 -21 q 206 24 286 -21 q 80 149 125 68 q 35 333 35 229 q 79 519 35 439 q 204 644 124 600 q 389 688 285 688 q 625 600 532 688 l 625 667 l 861 667 l 861 46 q 755 -224 861 -128 q 425 -319 649 -319 m 453 168 q 554 197 510 168 q 617 275 599 226 l 617 392 q 553 469 597 440 q 453 497 508 497 q 332 453 378 497 q 286 335 286 410 q 332 213 286 258 q 453 168 378 168 z "},"ĝ":{"ha":924,"x_min":35,"x_max":861,"o":"m 392 981 l 610 981 l 826 729 l 585 729 l 501 847 l 418 729 l 175 729 l 392 981 m 425 -319 q 291 -307 358 -319 q 175 -274 224 -294 l 175 -104 q 425 -151 285 -151 q 572 -110 526 -151 q 617 13 617 -68 l 617 53 q 517 -1 576 18 q 392 -21 458 -21 q 206 24 286 -21 q 80 149 125 68 q 35 333 35 229 q 79 519 35 439 q 204 644 124 600 q 389 688 285 688 q 625 600 532 688 l 625 667 l 861 667 l 861 46 q 755 -224 861 -128 q 425 -319 649 -319 m 453 168 q 554 197 510 168 q 617 275 599 226 l 617 392 q 553 469 597 440 q 453 497 508 497 q 332 453 378 497 q 286 335 286 410 q 332 213 286 258 q 453 168 378 168 z "},"ģ":{"ha":924,"x_min":35,"x_max":861,"o":"m 517 1024 l 739 1024 l 624 731 l 371 731 l 517 1024 m 425 -319 q 291 -307 358 -319 q 175 -274 224 -294 l 175 -104 q 425 -151 285 -151 q 572 -110 526 -151 q 617 13 617 -68 l 617 53 q 517 -1 576 18 q 392 -21 458 -21 q 206 24 286 -21 q 80 149 125 68 q 35 333 35 229 q 79 519 35 439 q 204 644 124 600 q 389 688 285 688 q 625 600 532 688 l 625 667 l 861 667 l 861 46 q 755 -224 861 -128 q 425 -319 649 -319 m 453 168 q 554 197 510 168 q 617 275 599 226 l 617 392 q 553 469 597 440 q 453 497 508 497 q 332 453 378 497 q 286 335 286 410 q 332 213 286 258 q 453 168 378 168 z "},"ġ":{"ha":924,"x_min":35,"x_max":861,"o":"m 519 731 q 443 761 475 731 q 411 836 411 792 q 443 913 411 881 q 519 944 475 944 q 594 913 563 944 q 625 836 625 881 q 594 761 625 792 q 519 731 564 731 m 425 -319 q 291 -307 358 -319 q 175 -274 224 -294 l 175 -104 q 425 -151 285 -151 q 572 -110 526 -151 q 617 13 617 -68 l 617 53 q 517 -1 576 18 q 392 -21 458 -21 q 206 24 286 -21 q 80 149 125 68 q 35 333 35 229 q 79 519 35 439 q 204 644 124 600 q 389 688 285 688 q 625 600 532 688 l 625 667 l 861 667 l 861 46 q 755 -224 861 -128 q 425 -319 649 -319 m 453 168 q 554 197 510 168 q 617 275 599 226 l 617 392 q 553 469 597 440 q 453 497 508 497 q 332 453 378 497 q 286 335 286 410 q 332 213 286 258 q 453 168 378 168 z "},"ḡ":{"ha":924,"x_min":35,"x_max":861,"o":"m 250 901 l 729 901 l 729 744 l 250 744 l 250 901 m 425 -319 q 291 -307 358 -319 q 175 -274 224 -294 l 175 -104 q 425 -151 285 -151 q 572 -110 526 -151 q 617 13 617 -68 l 617 53 q 517 -1 576 18 q 392 -21 458 -21 q 206 24 286 -21 q 80 149 125 68 q 35 333 35 229 q 79 519 35 439 q 204 644 124 600 q 389 688 285 688 q 625 600 532 688 l 625 667 l 861 667 l 861 46 q 755 -224 861 -128 q 425 -319 649 -319 m 453 168 q 554 197 510 168 q 617 275 599 226 l 617 392 q 553 469 597 440 q 453 497 508 497 q 332 453 378 497 q 286 335 286 410 q 332 213 286 258 q 453 168 378 168 z "},"h":{"ha":861,"x_min":63,"x_max":806,"o":"m 63 1026 l 307 1026 l 307 599 q 409 665 351 643 q 531 688 467 688 q 738 615 671 688 q 806 417 806 542 l 806 0 l 561 0 l 561 385 q 458 497 561 497 q 372 476 411 497 q 307 410 333 454 l 307 0 l 63 0 l 63 1026 z "},"ħ":{"ha":864,"x_min":7,"x_max":808,"o":"m 67 739 l 7 739 l 7 911 l 67 911 l 67 1026 l 310 1026 l 310 911 l 483 911 l 483 739 l 310 739 l 310 597 q 413 665 356 642 q 535 688 471 688 q 742 616 675 688 q 808 419 808 544 l 808 0 l 564 0 l 564 385 q 460 497 564 497 q 310 410 363 497 l 310 0 l 67 0 l 67 739 z "},"ḫ":{"ha":861,"x_min":63,"x_max":806,"o":"m 63 1026 l 307 1026 l 307 599 q 409 665 351 643 q 531 688 467 688 q 738 615 671 688 q 806 417 806 542 l 806 0 l 561 0 l 561 385 q 458 497 561 497 q 372 476 411 497 q 307 410 333 454 l 307 0 l 63 0 l 63 1026 m 456 -315 q 268 -251 335 -315 q 201 -75 201 -186 l 383 -75 q 456 -161 383 -161 q 509 -139 490 -161 q 528 -75 528 -117 l 710 -75 q 643 -251 710 -186 q 456 -315 576 -315 z "},"ĥ":{"ha":861,"x_min":63,"x_max":806,"o":"m 299 1308 l 517 1308 l 733 1057 l 492 1057 l 408 1175 l 325 1057 l 82 1057 l 299 1308 m 63 1026 l 307 1026 l 307 599 q 409 665 351 643 q 531 688 467 688 q 738 615 671 688 q 806 417 806 542 l 806 0 l 561 0 l 561 385 q 458 497 561 497 q 372 476 411 497 q 307 410 333 454 l 307 0 l 63 0 l 63 1026 z "},"ḥ":{"ha":861,"x_min":63,"x_max":806,"o":"m 63 1026 l 307 1026 l 307 599 q 409 665 351 643 q 531 688 467 688 q 738 615 671 688 q 806 417 806 542 l 806 0 l 561 0 l 561 385 q 458 497 561 497 q 372 476 411 497 q 307 410 333 454 l 307 0 l 63 0 l 63 1026 m 449 -278 q 372 -247 404 -278 q 340 -171 340 -215 q 372 -95 340 -126 q 449 -64 404 -64 q 524 -95 493 -64 q 554 -171 554 -126 q 524 -247 554 -215 q 449 -278 493 -278 z "},"i":{"ha":386,"x_min":63,"x_max":324,"o":"m 193 756 q 100 792 138 756 q 63 883 63 828 q 100 974 63 938 q 193 1011 138 1011 q 285 974 247 1011 q 324 883 324 938 q 285 792 324 829 q 193 756 247 756 m 71 667 l 315 667 l 315 0 l 71 0 l 71 667 z "},"ı":{"ha":369,"x_min":63,"x_max":307,"o":"m 63 667 l 307 667 l 307 0 l 63 0 l 63 667 z "},"í":{"ha":369,"x_min":63,"x_max":417,"o":"m 160 967 l 417 967 l 290 719 l 64 719 l 160 967 m 63 667 l 307 667 l 307 0 l 63 0 l 63 667 z "},"ĭ":{"ha":369,"x_min":-69,"x_max":439,"o":"m 185 729 q -3 794 64 729 q -69 969 -69 858 l 113 969 q 185 883 113 883 q 238 906 219 883 q 257 969 257 928 l 439 969 q 372 794 439 858 q 185 729 306 729 m 63 667 l 307 667 l 307 0 l 63 0 l 63 667 z "},"ǐ":{"ha":350,"x_min":-151,"x_max":500,"o":"m -151 986 l 92 986 l 175 868 l 258 986 l 500 986 l 283 735 l 65 735 l -151 986 m 53 667 l 297 667 l 297 0 l 53 0 l 53 667 z "},"î":{"ha":369,"x_min":-140,"x_max":511,"o":"m 76 981 l 294 981 l 511 729 l 269 729 l 186 847 l 103 729 l -140 729 l 76 981 m 63 667 l 307 667 l 307 0 l 63 0 l 63 667 z "},"ï":{"ha":369,"x_min":-86,"x_max":456,"o":"m 22 731 q -54 761 -22 731 q -86 836 -86 792 q -54 913 -86 881 q 22 944 -22 944 q 97 913 65 944 q 128 836 128 881 q 97 761 128 792 q 22 731 67 731 m 350 731 q 274 761 306 731 q 242 836 242 792 q 274 913 242 881 q 350 944 306 944 q 424 913 393 944 q 456 836 456 881 q 424 761 456 792 q 350 731 393 731 m 63 667 l 307 667 l 307 0 l 63 0 l 63 667 z "},"ị":{"ha":386,"x_min":63,"x_max":324,"o":"m 193 756 q 100 792 138 756 q 63 883 63 828 q 100 974 63 938 q 193 1011 138 1011 q 285 974 247 1011 q 324 883 324 938 q 285 792 324 829 q 193 756 247 756 m 71 667 l 315 667 l 315 0 l 71 0 l 71 667 m 194 -278 q 118 -247 150 -278 q 86 -171 86 -215 q 118 -95 86 -126 q 194 -64 150 -64 q 269 -95 239 -64 q 300 -171 300 -126 q 269 -247 300 -215 q 194 -278 239 -278 z "},"ì":{"ha":369,"x_min":-49,"x_max":307,"o":"m -49 967 l 208 967 l 304 719 l 78 719 l -49 967 m 63 667 l 307 667 l 307 0 l 63 0 l 63 667 z "},"ỉ":{"ha":369,"x_min":28,"x_max":414,"o":"m 78 828 q 160 840 132 828 q 189 883 189 853 q 107 929 189 929 q 65 925 89 929 q 28 915 40 921 l 28 1032 q 106 1048 58 1042 q 194 1054 153 1054 q 358 1015 301 1054 q 414 907 414 975 q 381 817 414 856 q 292 765 349 779 l 292 731 l 78 731 l 78 828 m 63 667 l 307 667 l 307 0 l 63 0 l 63 667 z "},"ĳ":{"ha":735,"x_min":63,"x_max":672,"o":"m 193 756 q 100 792 138 756 q 63 883 63 828 q 100 974 63 938 q 193 1011 138 1011 q 285 974 247 1011 q 324 883 324 938 q 285 792 324 829 q 193 756 247 756 m 542 756 q 449 792 486 756 q 411 883 411 828 q 449 974 411 938 q 542 1011 486 1011 q 634 974 596 1011 q 672 883 672 938 q 634 792 672 829 q 542 756 596 756 m 71 667 l 315 667 l 315 0 l 71 0 l 71 667 m 358 -321 q 225 -297 276 -321 l 225 -103 q 319 -122 267 -122 q 419 -21 419 -122 l 419 667 l 664 667 l 664 -50 q 580 -252 664 -183 q 358 -321 496 -321 z "},"ī":{"ha":369,"x_min":-64,"x_max":435,"o":"m -64 901 l 435 901 l 435 744 l -64 744 l -64 901 m 63 667 l 307 667 l 307 0 l 63 0 l 63 667 z "},"į":{"ha":386,"x_min":-10,"x_max":324,"o":"m 193 756 q 100 792 138 756 q 63 883 63 828 q 100 974 63 938 q 193 1011 138 1011 q 285 974 247 1011 q 324 883 324 938 q 285 792 324 829 q 193 756 247 756 m 71 667 l 315 667 l 315 0 l 311 0 q 228 -58 254 -31 q 201 -117 201 -86 q 214 -150 201 -137 q 249 -162 226 -162 q 315 -146 285 -162 l 315 -279 q 172 -300 256 -300 q 41 -267 92 -300 q -10 -165 -10 -233 q 17 -70 -10 -112 q 89 0 43 -28 l 71 0 l 71 667 z "},"ĩ":{"ha":369,"x_min":-96,"x_max":469,"o":"m -96 907 q 50 965 -47 965 q 111 957 81 965 q 190 931 142 949 q 263 905 232 914 q 324 896 293 896 q 469 965 411 896 l 469 788 q 324 731 422 731 q 256 740 289 731 q 178 767 222 749 q 106 792 133 783 q 50 800 79 800 q -96 729 -36 800 l -96 907 m 63 667 l 307 667 l 307 0 l 63 0 l 63 667 z "},"j":{"ha":385,"x_min":-125,"x_max":322,"o":"m 192 756 q 99 792 136 756 q 61 883 61 828 q 99 974 61 938 q 192 1011 136 1011 q 284 974 246 1011 q 322 883 322 938 q 284 792 322 829 q 192 756 246 756 m 8 -321 q -125 -297 -74 -321 l -125 -103 q -31 -122 -83 -122 q 69 -21 69 -122 l 69 667 l 314 667 l 314 -50 q 230 -252 314 -183 q 8 -321 146 -321 z "},"ȷ":{"ha":376,"x_min":-125,"x_max":314,"o":"m 8 -321 q -125 -297 -74 -321 l -125 -103 q -31 -122 -83 -122 q 69 -21 69 -122 l 69 667 l 314 667 l 314 -50 q 230 -252 314 -183 q 8 -321 146 -321 z "},"ĵ":{"ha":376,"x_min":-156,"x_max":496,"o":"m 61 981 l 279 981 l 496 729 l 254 729 l 171 847 l 88 729 l -156 729 l 61 981 m 8 -321 q -125 -297 -74 -321 l -125 -103 q -31 -122 -83 -122 q 69 -21 69 -122 l 69 667 l 314 667 l 314 -50 q 230 -252 314 -183 q 8 -321 146 -321 z "},"k":{"ha":878,"x_min":63,"x_max":843,"o":"m 63 1026 l 307 1026 l 307 399 l 526 667 l 807 667 l 542 344 l 843 0 l 563 0 l 307 293 l 307 0 l 63 0 l 63 1026 z "},"ķ":{"ha":878,"x_min":63,"x_max":843,"o":"m 63 1026 l 307 1026 l 307 399 l 526 667 l 807 667 l 542 344 l 843 0 l 563 0 l 307 293 l 307 0 l 63 0 l 63 1026 m 300 -68 l 553 -68 l 407 -361 l 185 -361 l 300 -68 z "},"ĸ":{"ha":878,"x_min":63,"x_max":843,"o":"m 63 667 l 307 667 l 307 389 l 526 667 l 807 667 l 542 333 l 843 0 l 563 0 l 307 283 l 307 0 l 63 0 l 63 667 z "},"l":{"ha":369,"x_min":63,"x_max":307,"o":"m 63 1026 l 307 1026 l 307 0 l 63 0 l 63 1026 z "},"ĺ":{"ha":369,"x_min":63,"x_max":421,"o":"m 164 1317 l 421 1317 l 294 1069 l 68 1069 l 164 1317 m 63 1026 l 307 1026 l 307 0 l 63 0 l 63 1026 z "},"ľ":{"ha":703,"x_min":63,"x_max":721,"o":"m 468 1056 l 721 1056 l 575 763 l 353 763 l 468 1056 m 63 1026 l 307 1026 l 307 0 l 63 0 l 63 1026 z "},"ļ":{"ha":369,"x_min":-56,"x_max":313,"o":"m 63 1026 l 307 1026 l 307 0 l 63 0 l 63 1026 m 60 -68 l 313 -68 l 167 -361 l -56 -361 l 60 -68 z "},"ŀ":{"ha":569,"x_min":63,"x_max":576,"o":"m 63 1026 l 307 1026 l 307 0 l 63 0 l 63 1026 m 471 429 q 394 460 426 429 q 363 535 363 490 q 394 611 363 579 q 471 643 426 643 q 545 611 514 643 q 576 535 576 579 q 546 460 576 490 q 471 429 515 429 z "},"ḷ":{"ha":371,"x_min":63,"x_max":307,"o":"m 63 1026 l 307 1026 l 307 0 l 63 0 l 63 1026 m 186 -278 q 110 -247 142 -278 q 78 -171 78 -215 q 110 -95 78 -126 q 186 -64 142 -64 q 261 -95 231 -64 q 292 -171 292 -126 q 261 -247 292 -215 q 186 -278 231 -278 z "},"ḹ":{"ha":369,"x_min":-56,"x_max":424,"o":"m -56 1231 l 424 1231 l 424 1074 l -56 1074 l -56 1231 m 63 1026 l 307 1026 l 307 0 l 63 0 l 63 1026 m 186 -278 q 110 -247 142 -278 q 78 -171 78 -215 q 110 -95 78 -126 q 186 -64 142 -64 q 261 -95 231 -64 q 292 -171 292 -126 q 261 -247 292 -215 q 186 -278 231 -278 z "},"ḻ":{"ha":369,"x_min":-54,"x_max":425,"o":"m 63 1026 l 307 1026 l 307 0 l 63 0 l 63 1026 m -54 -82 l 425 -82 l 425 -239 l -54 -239 l -54 -82 z "},"ł":{"ha":410,"x_min":-65,"x_max":485,"o":"m 79 340 l -65 276 l -65 513 l 79 576 l 79 1026 l 322 1026 l 322 685 l 485 758 l 485 522 l 322 449 l 322 0 l 79 0 l 79 340 z "},"m":{"ha":1214,"x_min":63,"x_max":1158,"o":"m 63 667 l 289 667 l 289 594 q 385 663 331 639 q 500 688 439 688 q 620 665 575 688 q 693 599 665 643 q 794 664 735 640 q 915 688 854 688 q 1103 620 1047 688 q 1158 426 1158 553 l 1158 0 l 925 0 l 925 392 q 904 472 925 447 q 835 497 883 497 q 733 453 772 497 q 735 381 735 429 l 735 0 l 501 0 l 501 401 q 483 475 501 453 q 419 497 465 497 q 297 418 349 497 l 297 0 l 63 0 l 63 667 z "},"ṃ":{"ha":1214,"x_min":63,"x_max":1158,"o":"m 63 667 l 289 667 l 289 594 q 385 663 331 639 q 500 688 439 688 q 620 665 575 688 q 693 599 665 643 q 794 664 735 640 q 915 688 854 688 q 1103 620 1047 688 q 1158 426 1158 553 l 1158 0 l 925 0 l 925 392 q 904 472 925 447 q 835 497 883 497 q 733 453 772 497 q 735 381 735 429 l 735 0 l 501 0 l 501 401 q 483 475 501 453 q 419 497 465 497 q 297 418 349 497 l 297 0 l 63 0 l 63 667 m 617 -278 q 540 -247 572 -278 q 508 -171 508 -215 q 540 -95 508 -126 q 617 -64 572 -64 q 692 -95 661 -64 q 722 -171 722 -126 q 692 -247 722 -215 q 617 -278 661 -278 z "},"n":{"ha":861,"x_min":63,"x_max":806,"o":"m 63 667 l 299 667 l 299 593 q 403 664 342 640 q 531 688 464 688 q 738 615 671 688 q 806 417 806 542 l 806 0 l 561 0 l 561 385 q 458 497 561 497 q 372 476 411 497 q 307 410 333 454 l 307 0 l 63 0 l 63 667 z "},"ń":{"ha":861,"x_min":63,"x_max":806,"o":"m 389 983 l 646 983 l 519 736 l 293 736 l 389 983 m 63 667 l 299 667 l 299 593 q 403 664 342 640 q 531 688 464 688 q 738 615 671 688 q 806 417 806 542 l 806 0 l 561 0 l 561 385 q 458 497 561 497 q 372 476 411 497 q 307 410 333 454 l 307 0 l 63 0 l 63 667 z "},"ŉ":{"ha":1000,"x_min":-65,"x_max":944,"o":"m 50 992 l 303 992 l 157 699 l -65 699 l 50 992 m 201 667 l 438 667 l 438 593 q 542 664 481 640 q 669 688 603 688 q 877 615 810 688 q 944 417 944 542 l 944 0 l 700 0 l 700 385 q 597 497 700 497 q 511 476 550 497 q 446 410 472 454 l 446 0 l 201 0 l 201 667 z "},"ň":{"ha":861,"x_min":63,"x_max":806,"o":"m 107 988 l 350 988 l 433 869 l 517 988 l 758 988 l 542 736 l 324 736 l 107 988 m 63 667 l 299 667 l 299 593 q 403 664 342 640 q 531 688 464 688 q 738 615 671 688 q 806 417 806 542 l 806 0 l 561 0 l 561 385 q 458 497 561 497 q 372 476 411 497 q 307 410 333 454 l 307 0 l 63 0 l 63 667 z "},"ņ":{"ha":861,"x_min":63,"x_max":806,"o":"m 63 667 l 299 667 l 299 593 q 403 664 342 640 q 531 688 464 688 q 738 615 671 688 q 806 417 806 542 l 806 0 l 561 0 l 561 385 q 458 497 561 497 q 372 476 411 497 q 307 410 333 454 l 307 0 l 63 0 l 63 667 m 326 -68 l 579 -68 l 433 -361 l 211 -361 l 326 -68 z "},"ṅ":{"ha":861,"x_min":63,"x_max":806,"o":"m 447 731 q 371 761 403 731 q 339 836 339 792 q 371 913 339 881 q 447 944 403 944 q 522 913 490 944 q 553 836 553 881 q 522 761 553 792 q 447 731 492 731 m 63 667 l 299 667 l 299 593 q 403 664 342 640 q 531 688 464 688 q 738 615 671 688 q 806 417 806 542 l 806 0 l 561 0 l 561 385 q 458 497 561 497 q 372 476 411 497 q 307 410 333 454 l 307 0 l 63 0 l 63 667 z "},"ṇ":{"ha":861,"x_min":63,"x_max":806,"o":"m 63 667 l 299 667 l 299 593 q 403 664 342 640 q 531 688 464 688 q 738 615 671 688 q 806 417 806 542 l 806 0 l 561 0 l 561 385 q 458 497 561 497 q 372 476 411 497 q 307 410 333 454 l 307 0 l 63 0 l 63 667 m 456 -278 q 379 -247 411 -278 q 347 -171 347 -215 q 379 -95 347 -126 q 456 -64 411 -64 q 531 -95 500 -64 q 561 -171 561 -126 q 531 -247 561 -215 q 456 -278 500 -278 z "},"ŋ":{"ha":860,"x_min":63,"x_max":804,"o":"m 500 -321 q 367 -297 424 -321 l 367 -101 q 461 -122 407 -122 q 561 -21 561 -122 l 561 385 q 458 497 561 497 q 372 476 411 497 q 307 410 333 454 l 307 0 l 63 0 l 63 667 l 299 667 l 299 593 q 403 664 342 640 q 531 688 464 688 q 738 615 671 688 q 804 417 804 542 l 804 -49 q 721 -252 804 -183 q 500 -321 638 -321 z "},"ṉ":{"ha":861,"x_min":63,"x_max":806,"o":"m 63 667 l 299 667 l 299 593 q 403 664 342 640 q 531 688 464 688 q 738 615 671 688 q 806 417 806 542 l 806 0 l 561 0 l 561 385 q 458 497 561 497 q 372 476 411 497 q 307 410 333 454 l 307 0 l 63 0 l 63 667 m 228 -82 l 707 -82 l 707 -239 l 228 -239 l 228 -82 z "},"ñ":{"ha":861,"x_min":63,"x_max":806,"o":"m 157 908 q 303 967 206 967 q 364 958 333 967 q 443 932 394 950 q 515 906 485 915 q 576 897 546 897 q 722 967 664 897 l 722 789 q 576 732 675 732 q 508 741 542 732 q 431 768 475 750 q 359 793 386 785 q 303 801 332 801 q 157 731 217 801 l 157 908 m 63 667 l 299 667 l 299 593 q 403 664 342 640 q 531 688 464 688 q 738 615 671 688 q 806 417 806 542 l 806 0 l 561 0 l 561 385 q 458 497 561 497 q 372 476 411 497 q 307 410 333 454 l 307 0 l 63 0 l 63 667 z "},"o":{"ha":892,"x_min":35,"x_max":857,"o":"m 446 -21 q 229 24 322 -21 q 85 149 136 69 q 35 333 35 229 q 85 517 35 438 q 229 642 136 597 q 446 688 322 688 q 663 642 569 688 q 806 517 756 597 q 857 333 857 438 q 806 149 857 229 q 663 24 756 69 q 446 -21 569 -21 m 446 169 q 563 213 519 169 q 607 333 607 257 q 563 453 607 410 q 446 497 519 497 q 328 453 372 497 q 285 333 285 410 q 328 213 285 257 q 446 169 372 169 z "},"ó":{"ha":892,"x_min":35,"x_max":857,"o":"m 433 967 l 690 967 l 564 719 l 338 719 l 433 967 m 446 -21 q 229 24 322 -21 q 85 149 136 69 q 35 333 35 229 q 85 517 35 438 q 229 642 136 597 q 446 688 322 688 q 663 642 569 688 q 806 517 756 597 q 857 333 857 438 q 806 149 857 229 q 663 24 756 69 q 446 -21 569 -21 m 446 169 q 563 213 519 169 q 607 333 607 257 q 563 453 607 410 q 446 497 519 497 q 328 453 372 497 q 285 333 285 410 q 328 213 285 257 q 446 169 372 169 z "},"ŏ":{"ha":892,"x_min":35,"x_max":857,"o":"m 447 717 q 260 781 326 717 q 193 957 193 846 l 375 957 q 447 871 375 871 q 501 893 482 871 q 519 957 519 915 l 701 957 q 635 781 701 846 q 447 717 568 717 m 446 -21 q 229 24 322 -21 q 85 149 136 69 q 35 333 35 229 q 85 517 35 438 q 229 642 136 597 q 446 688 322 688 q 663 642 569 688 q 806 517 756 597 q 857 333 857 438 q 806 149 857 229 q 663 24 756 69 q 446 -21 569 -21 m 446 169 q 563 213 519 169 q 607 333 607 257 q 563 453 607 410 q 446 497 519 497 q 328 453 372 497 q 285 333 285 410 q 328 213 285 257 q 446 169 372 169 z "},"ǒ":{"ha":892,"x_min":35,"x_max":857,"o":"m 122 981 l 365 981 l 449 863 l 532 981 l 774 981 l 557 729 l 339 729 l 122 981 m 446 -21 q 229 24 322 -21 q 85 149 136 69 q 35 333 35 229 q 85 517 35 438 q 229 642 136 597 q 446 688 322 688 q 663 642 569 688 q 806 517 756 597 q 857 333 857 438 q 806 149 857 229 q 663 24 756 69 q 446 -21 569 -21 m 446 169 q 563 213 519 169 q 607 333 607 257 q 563 453 607 410 q 446 497 519 497 q 328 453 372 497 q 285 333 285 410 q 328 213 285 257 q 446 169 372 169 z "},"ô":{"ha":892,"x_min":35,"x_max":857,"o":"m 339 981 l 557 981 l 774 729 l 532 729 l 449 847 l 365 729 l 122 729 l 339 981 m 446 -21 q 229 24 322 -21 q 85 149 136 69 q 35 333 35 229 q 85 517 35 438 q 229 642 136 597 q 446 688 322 688 q 663 642 569 688 q 806 517 756 597 q 857 333 857 438 q 806 149 857 229 q 663 24 756 69 q 446 -21 569 -21 m 446 169 q 563 213 519 169 q 607 333 607 257 q 563 453 607 410 q 446 497 519 497 q 328 453 372 497 q 285 333 285 410 q 328 213 285 257 q 446 169 372 169 z "},"ố":{"ha":892,"x_min":35,"x_max":931,"o":"m 706 1083 l 931 1083 l 818 890 l 624 890 l 706 1083 m 358 947 l 531 947 l 742 729 l 525 729 l 444 822 l 364 729 l 147 729 l 358 947 m 446 -21 q 229 24 322 -21 q 85 149 136 69 q 35 333 35 229 q 85 517 35 438 q 229 642 136 597 q 446 688 322 688 q 663 642 569 688 q 806 517 756 597 q 857 333 857 438 q 806 149 857 229 q 663 24 756 69 q 446 -21 569 -21 m 446 169 q 563 213 519 169 q 607 333 607 257 q 563 453 607 410 q 446 497 519 497 q 328 453 372 497 q 285 333 285 410 q 328 213 285 257 q 446 169 372 169 z "},"ộ":{"ha":892,"x_min":35,"x_max":857,"o":"m 338 981 l 556 981 l 772 729 l 531 729 l 447 847 l 364 729 l 121 729 l 338 981 m 446 -21 q 229 24 322 -21 q 85 149 136 69 q 35 333 35 229 q 85 517 35 438 q 229 642 136 597 q 446 688 322 688 q 663 642 569 688 q 806 517 756 597 q 857 333 857 438 q 806 149 857 229 q 663 24 756 69 q 446 -21 569 -21 m 446 169 q 563 213 519 169 q 607 333 607 257 q 563 453 607 410 q 446 497 519 497 q 328 453 372 497 q 285 333 285 410 q 328 213 285 257 q 446 169 372 169 m 449 -278 q 372 -247 404 -278 q 340 -171 340 -215 q 372 -95 340 -126 q 449 -64 404 -64 q 524 -95 493 -64 q 554 -171 554 -126 q 524 -247 554 -215 q 449 -278 493 -278 z "},"ồ":{"ha":892,"x_min":-37,"x_max":857,"o":"m -37 1083 l 188 1083 l 269 890 l 75 890 l -37 1083 m 368 947 l 540 947 l 751 729 l 535 729 l 454 822 l 374 729 l 157 729 l 368 947 m 446 -21 q 229 24 322 -21 q 85 149 136 69 q 35 333 35 229 q 85 517 35 438 q 229 642 136 597 q 446 688 322 688 q 663 642 569 688 q 806 517 756 597 q 857 333 857 438 q 806 149 857 229 q 663 24 756 69 q 446 -21 569 -21 m 446 169 q 563 213 519 169 q 607 333 607 257 q 563 453 607 410 q 446 497 519 497 q 328 453 372 497 q 285 333 285 410 q 328 213 285 257 q 446 169 372 169 z "},"ổ":{"ha":892,"x_min":35,"x_max":881,"o":"m 646 946 q 700 954 682 946 q 718 982 718 963 q 663 1014 718 1014 q 611 1004 633 1014 l 611 1086 q 669 1098 635 1093 q 731 1103 704 1103 q 841 1075 801 1103 q 881 1000 881 1047 q 858 943 881 967 q 796 910 836 919 l 796 875 l 646 875 l 646 946 m 376 947 l 549 947 l 760 729 l 543 729 l 463 822 l 382 729 l 165 729 l 376 947 m 446 -21 q 229 24 322 -21 q 85 149 136 69 q 35 333 35 229 q 85 517 35 438 q 229 642 136 597 q 446 688 322 688 q 663 642 569 688 q 806 517 756 597 q 857 333 857 438 q 806 149 857 229 q 663 24 756 69 q 446 -21 569 -21 m 446 169 q 563 213 519 169 q 607 333 607 257 q 563 453 607 410 q 446 497 519 497 q 328 453 372 497 q 285 333 285 410 q 328 213 285 257 q 446 169 372 169 z "},"ỗ":{"ha":892,"x_min":35,"x_max":857,"o":"m 557 979 q 503 988 531 979 q 439 1010 475 996 q 379 1031 401 1024 q 335 1038 357 1038 q 219 981 267 1038 l 219 1121 q 335 1168 257 1168 q 379 1162 357 1168 q 422 1149 401 1156 q 449 1139 442 1142 q 557 1110 518 1110 q 672 1167 625 1110 l 672 1025 q 557 979 635 979 m 446 729 q 271 785 336 729 q 206 938 206 840 l 367 938 q 386 881 367 899 q 446 863 406 863 q 506 881 486 863 q 526 938 526 899 l 686 938 q 621 785 686 840 q 446 729 556 729 m 446 -21 q 229 24 322 -21 q 85 149 136 69 q 35 333 35 229 q 85 517 35 438 q 229 642 136 597 q 446 688 322 688 q 663 642 569 688 q 806 517 756 597 q 857 333 857 438 q 806 149 857 229 q 663 24 756 69 q 446 -21 569 -21 m 446 169 q 563 213 519 169 q 607 333 607 257 q 563 453 607 410 q 446 497 519 497 q 328 453 372 497 q 285 333 285 410 q 328 213 285 257 q 446 169 372 169 z "},"ö":{"ha":892,"x_min":35,"x_max":857,"o":"m 285 731 q 208 761 240 731 q 176 836 176 792 q 208 913 176 881 q 285 944 240 944 q 359 913 328 944 q 390 836 390 881 q 360 761 390 792 q 285 731 329 731 m 613 731 q 536 761 568 731 q 504 836 504 792 q 536 913 504 881 q 613 944 568 944 q 687 913 656 944 q 718 836 718 881 q 687 761 718 792 q 613 731 656 731 m 446 -21 q 229 24 322 -21 q 85 149 136 69 q 35 333 35 229 q 85 517 35 438 q 229 642 136 597 q 446 688 322 688 q 663 642 569 688 q 806 517 756 597 q 857 333 857 438 q 806 149 857 229 q 663 24 756 69 q 446 -21 569 -21 m 446 169 q 563 213 519 169 q 607 333 607 257 q 563 453 607 410 q 446 497 519 497 q 328 453 372 497 q 285 333 285 410 q 328 213 285 257 q 446 169 372 169 z "},"ọ":{"ha":892,"x_min":35,"x_max":857,"o":"m 446 -21 q 229 24 322 -21 q 85 149 136 69 q 35 333 35 229 q 85 517 35 438 q 229 642 136 597 q 446 688 322 688 q 663 642 569 688 q 806 517 756 597 q 857 333 857 438 q 806 149 857 229 q 663 24 756 69 q 446 -21 569 -21 m 446 169 q 563 213 519 169 q 607 333 607 257 q 563 453 607 410 q 446 497 519 497 q 328 453 372 497 q 285 333 285 410 q 328 213 285 257 q 446 169 372 169 m 447 -278 q 371 -247 403 -278 q 339 -171 339 -215 q 371 -95 339 -126 q 447 -64 403 -64 q 522 -95 492 -64 q 553 -171 553 -126 q 522 -247 553 -215 q 447 -278 492 -278 z "},"ò":{"ha":892,"x_min":35,"x_max":857,"o":"m 228 967 l 485 967 l 581 719 l 354 719 l 228 967 m 446 -21 q 229 24 322 -21 q 85 149 136 69 q 35 333 35 229 q 85 517 35 438 q 229 642 136 597 q 446 688 322 688 q 663 642 569 688 q 806 517 756 597 q 857 333 857 438 q 806 149 857 229 q 663 24 756 69 q 446 -21 569 -21 m 446 169 q 563 213 519 169 q 607 333 607 257 q 563 453 607 410 q 446 497 519 497 q 328 453 372 497 q 285 333 285 410 q 328 213 285 257 q 446 169 372 169 z "},"ỏ":{"ha":892,"x_min":35,"x_max":857,"o":"m 357 828 q 440 840 411 828 q 468 883 468 853 q 386 929 468 929 q 344 925 368 929 q 307 915 319 921 l 307 1032 q 385 1048 338 1042 q 474 1054 432 1054 q 637 1015 581 1054 q 693 907 693 975 q 660 817 693 856 q 571 765 628 779 l 571 731 l 357 731 l 357 828 m 446 -21 q 229 24 322 -21 q 85 149 136 69 q 35 333 35 229 q 85 517 35 438 q 229 642 136 597 q 446 688 322 688 q 663 642 569 688 q 806 517 756 597 q 857 333 857 438 q 806 149 857 229 q 663 24 756 69 q 446 -21 569 -21 m 446 169 q 563 213 519 169 q 607 333 607 257 q 563 453 607 410 q 446 497 519 497 q 328 453 372 497 q 285 333 285 410 q 328 213 285 257 q 446 169 372 169 z "},"ơ":{"ha":1046,"x_min":35,"x_max":1039,"o":"m 446 -21 q 229 24 322 -21 q 85 149 136 69 q 35 333 35 229 q 85 517 35 438 q 229 642 136 597 q 446 688 322 688 q 717 611 607 688 q 814 640 786 613 q 842 728 842 668 l 842 775 l 1039 775 l 1039 713 q 986 542 1039 614 q 838 449 933 471 q 857 333 857 393 q 806 149 857 229 q 663 24 756 69 q 446 -21 569 -21 m 446 169 q 563 213 519 169 q 607 333 607 257 q 563 453 607 410 q 446 497 519 497 q 328 453 372 497 q 285 333 285 410 q 328 213 285 257 q 446 169 372 169 z "},"ớ":{"ha":1046,"x_min":35,"x_max":1039,"o":"m 422 967 l 679 967 l 553 719 l 326 719 l 422 967 m 446 -21 q 229 24 322 -21 q 85 149 136 69 q 35 333 35 229 q 85 517 35 438 q 229 642 136 597 q 446 688 322 688 q 717 611 607 688 q 814 640 786 613 q 842 728 842 668 l 842 775 l 1039 775 l 1039 713 q 986 542 1039 614 q 838 449 933 471 q 857 333 857 393 q 806 149 857 229 q 663 24 756 69 q 446 -21 569 -21 m 446 169 q 563 213 519 169 q 607 333 607 257 q 563 453 607 410 q 446 497 519 497 q 328 453 372 497 q 285 333 285 410 q 328 213 285 257 q 446 169 372 169 z "},"ợ":{"ha":1046,"x_min":35,"x_max":1039,"o":"m 446 -21 q 229 24 322 -21 q 85 149 136 69 q 35 333 35 229 q 85 517 35 438 q 229 642 136 597 q 446 688 322 688 q 717 611 607 688 q 814 640 786 613 q 842 728 842 668 l 842 775 l 1039 775 l 1039 713 q 986 542 1039 614 q 838 449 933 471 q 857 333 857 393 q 806 149 857 229 q 663 24 756 69 q 446 -21 569 -21 m 446 169 q 563 213 519 169 q 607 333 607 257 q 563 453 607 410 q 446 497 519 497 q 328 453 372 497 q 285 333 285 410 q 328 213 285 257 q 446 169 372 169 m 461 -278 q 385 -247 417 -278 q 353 -171 353 -215 q 385 -95 353 -126 q 461 -64 417 -64 q 536 -95 506 -64 q 567 -171 567 -126 q 536 -247 567 -215 q 461 -278 506 -278 z "},"ờ":{"ha":1046,"x_min":35,"x_max":1039,"o":"m 214 967 l 471 967 l 567 719 l 340 719 l 214 967 m 446 -21 q 229 24 322 -21 q 85 149 136 69 q 35 333 35 229 q 85 517 35 438 q 229 642 136 597 q 446 688 322 688 q 717 611 607 688 q 814 640 786 613 q 842 728 842 668 l 842 775 l 1039 775 l 1039 713 q 986 542 1039 614 q 838 449 933 471 q 857 333 857 393 q 806 149 857 229 q 663 24 756 69 q 446 -21 569 -21 m 446 169 q 563 213 519 169 q 607 333 607 257 q 563 453 607 410 q 446 497 519 497 q 328 453 372 497 q 285 333 285 410 q 328 213 285 257 q 446 169 372 169 z "},"ở":{"ha":1046,"x_min":35,"x_max":1039,"o":"m 332 828 q 415 840 386 828 q 443 883 443 853 q 361 929 443 929 q 319 925 343 929 q 282 915 294 921 l 282 1032 q 360 1048 313 1042 q 449 1054 407 1054 q 612 1015 556 1054 q 668 907 668 975 q 635 817 668 856 q 546 765 603 779 l 546 731 l 332 731 l 332 828 m 446 -21 q 229 24 322 -21 q 85 149 136 69 q 35 333 35 229 q 85 517 35 438 q 229 642 136 597 q 446 688 322 688 q 717 611 607 688 q 814 640 786 613 q 842 728 842 668 l 842 775 l 1039 775 l 1039 713 q 986 542 1039 614 q 838 449 933 471 q 857 333 857 393 q 806 149 857 229 q 663 24 756 69 q 446 -21 569 -21 m 446 169 q 563 213 519 169 q 607 333 607 257 q 563 453 607 410 q 446 497 519 497 q 328 453 372 497 q 285 333 285 410 q 328 213 285 257 q 446 169 372 169 z "},"ỡ":{"ha":1046,"x_min":35,"x_max":1039,"o":"m 174 917 q 319 975 222 975 q 381 967 350 975 q 460 940 411 958 q 532 915 501 924 q 593 906 563 906 q 739 975 681 906 l 739 797 q 593 740 692 740 q 525 749 558 740 q 447 776 492 758 q 376 801 403 793 q 319 810 349 810 q 174 739 233 810 l 174 917 m 446 -21 q 229 24 322 -21 q 85 149 136 69 q 35 333 35 229 q 85 517 35 438 q 229 642 136 597 q 446 688 322 688 q 717 611 607 688 q 814 640 786 613 q 842 728 842 668 l 842 775 l 1039 775 l 1039 713 q 986 542 1039 614 q 838 449 933 471 q 857 333 857 393 q 806 149 857 229 q 663 24 756 69 q 446 -21 569 -21 m 446 169 q 563 213 519 169 q 607 333 607 257 q 563 453 607 410 q 446 497 519 497 q 328 453 372 497 q 285 333 285 410 q 328 213 285 257 q 446 169 372 169 z "},"ő":{"ha":892,"x_min":35,"x_max":857,"o":"m 257 976 l 493 976 l 367 731 l 161 731 l 257 976 m 607 976 l 842 976 l 717 731 l 511 731 l 607 976 m 446 -21 q 229 24 322 -21 q 85 149 136 69 q 35 333 35 229 q 85 517 35 438 q 229 642 136 597 q 446 688 322 688 q 663 642 569 688 q 806 517 756 597 q 857 333 857 438 q 806 149 857 229 q 663 24 756 69 q 446 -21 569 -21 m 446 169 q 563 213 519 169 q 607 333 607 257 q 563 453 607 410 q 446 497 519 497 q 328 453 372 497 q 285 333 285 410 q 328 213 285 257 q 446 169 372 169 z "},"ō":{"ha":892,"x_min":35,"x_max":857,"o":"m 207 901 l 686 901 l 686 744 l 207 744 l 207 901 m 446 -21 q 229 24 322 -21 q 85 149 136 69 q 35 333 35 229 q 85 517 35 438 q 229 642 136 597 q 446 688 322 688 q 663 642 569 688 q 806 517 756 597 q 857 333 857 438 q 806 149 857 229 q 663 24 756 69 q 446 -21 569 -21 m 446 169 q 563 213 519 169 q 607 333 607 257 q 563 453 607 410 q 446 497 519 497 q 328 453 372 497 q 285 333 285 410 q 328 213 285 257 q 446 169 372 169 z "},"ø":{"ha":892,"x_min":35,"x_max":857,"o":"m 238 19 q 88 144 142 63 q 35 333 35 226 q 85 517 35 438 q 229 642 136 597 q 446 688 322 688 q 504 685 468 688 l 546 786 l 706 786 l 650 649 q 803 523 749 606 q 857 333 857 440 q 806 149 857 229 q 663 24 756 69 q 446 -21 569 -21 q 382 -18 424 -21 l 342 -119 l 182 -119 l 238 19 m 429 496 q 324 447 363 490 q 285 333 285 404 q 319 222 285 265 l 429 496 m 458 169 q 567 217 528 174 q 607 333 607 261 q 569 447 607 403 l 458 169 z "},"ǿ":{"ha":892,"x_min":35,"x_max":857,"o":"m 324 972 l 581 972 l 454 725 l 228 725 l 324 972 m 238 19 q 88 144 142 63 q 35 333 35 226 q 85 517 35 438 q 229 642 136 597 q 446 688 322 688 q 504 685 468 688 l 546 786 l 706 786 l 650 649 q 803 523 749 606 q 857 333 857 440 q 806 149 857 229 q 663 24 756 69 q 446 -21 569 -21 q 382 -18 424 -21 l 342 -119 l 182 -119 l 238 19 m 429 496 q 324 447 363 490 q 285 333 285 404 q 319 222 285 265 l 429 496 m 458 169 q 567 217 528 174 q 607 333 607 261 q 569 447 607 403 l 458 169 z "},"õ":{"ha":892,"x_min":35,"x_max":857,"o":"m 165 917 q 311 975 214 975 q 372 967 342 975 q 451 940 403 958 q 524 915 493 924 q 585 906 554 906 q 731 975 672 906 l 731 797 q 585 740 683 740 q 517 749 550 740 q 439 776 483 758 q 367 801 394 793 q 311 810 340 810 q 165 739 225 810 l 165 917 m 446 -21 q 229 24 322 -21 q 85 149 136 69 q 35 333 35 229 q 85 517 35 438 q 229 642 136 597 q 446 688 322 688 q 663 642 569 688 q 806 517 756 597 q 857 333 857 438 q 806 149 857 229 q 663 24 756 69 q 446 -21 569 -21 m 446 169 q 563 213 519 169 q 607 333 607 257 q 563 453 607 410 q 446 497 519 497 q 328 453 372 497 q 285 333 285 410 q 328 213 285 257 q 446 169 372 169 z "},"œ":{"ha":1468,"x_min":35,"x_max":1433,"o":"m 1433 251 l 901 251 q 971 171 915 196 q 1122 146 1026 146 q 1256 157 1188 146 q 1375 188 1325 168 l 1375 26 q 1247 -8 1324 6 q 1089 -21 1169 -21 q 897 8 981 -21 q 760 90 814 36 q 624 8 704 38 q 446 -21 544 -21 q 229 24 322 -21 q 85 149 136 69 q 35 333 35 229 q 85 517 35 438 q 229 642 136 597 q 446 688 322 688 q 622 659 543 688 q 757 579 701 631 q 881 660 806 632 q 1056 688 957 688 q 1260 642 1175 688 q 1390 519 1346 597 q 1433 342 1433 440 l 1433 251 m 1203 404 q 1158 489 1197 458 q 1051 519 1119 519 q 946 488 985 519 q 901 404 907 457 l 1203 404 m 446 169 q 563 213 519 169 q 607 333 607 257 q 563 453 607 410 q 446 497 519 497 q 328 453 372 497 q 285 333 285 410 q 328 213 285 257 q 446 169 372 169 z "},"p":{"ha":924,"x_min":63,"x_max":889,"o":"m 63 667 l 299 667 l 299 600 q 535 688 392 688 q 719 644 639 688 q 844 520 800 600 q 889 335 889 440 q 844 149 889 231 q 720 24 800 68 q 535 -21 640 -21 q 408 -1 468 -21 q 307 54 347 19 l 307 -304 l 63 -304 l 63 667 m 471 169 q 592 214 546 169 q 638 335 638 258 q 592 455 638 411 q 471 499 546 499 q 371 470 415 499 q 307 393 326 442 l 307 275 q 371 198 326 226 q 471 169 415 169 z "},"þ":{"ha":924,"x_min":63,"x_max":889,"o":"m 63 971 l 307 971 l 307 613 q 408 667 347 647 q 535 688 468 688 q 719 644 639 688 q 844 520 800 600 q 889 335 889 440 q 844 149 889 231 q 720 24 800 68 q 535 -21 640 -21 q 408 -1 468 -21 q 307 54 347 19 l 307 -304 l 63 -304 l 63 971 m 471 169 q 592 214 546 169 q 638 335 638 258 q 592 455 638 411 q 471 499 546 499 q 371 470 415 499 q 307 393 326 442 l 307 275 q 371 198 326 226 q 471 169 415 169 z "},"q":{"ha":924,"x_min":35,"x_max":861,"o":"m 617 54 q 516 -1 576 19 q 389 -21 456 -21 q 203 24 283 -21 q 79 149 124 68 q 35 335 35 231 q 79 520 35 440 q 204 644 124 600 q 389 688 285 688 q 625 600 532 688 l 625 667 l 861 667 l 861 -304 l 617 -304 l 617 54 m 453 169 q 553 198 508 169 q 617 275 597 226 l 617 393 q 553 470 597 442 q 453 499 508 499 q 332 455 378 499 q 286 335 286 411 q 332 214 286 258 q 453 169 378 169 z "},"r":{"ha":572,"x_min":63,"x_max":565,"o":"m 63 667 l 299 667 l 299 583 q 408 652 338 628 q 565 676 479 676 l 565 489 q 403 463 474 489 q 307 383 333 436 l 307 0 l 63 0 l 63 667 z "},"ŕ":{"ha":572,"x_min":63,"x_max":565,"o":"m 179 967 l 436 967 l 310 719 l 83 719 l 179 967 m 63 667 l 299 667 l 299 583 q 408 652 338 628 q 565 676 479 676 l 565 489 q 403 463 474 489 q 307 383 333 436 l 307 0 l 63 0 l 63 667 z "},"ř":{"ha":544,"x_min":-121,"x_max":543,"o":"m -121 981 l 122 981 l 206 863 l 289 981 l 531 981 l 314 729 l 96 729 l -121 981 m 40 667 l 276 667 l 276 583 q 386 652 315 628 q 543 676 457 676 l 543 489 q 381 463 451 489 q 285 383 311 436 l 285 0 l 40 0 l 40 667 z "},"ŗ":{"ha":556,"x_min":-74,"x_max":549,"o":"m 46 667 l 282 667 l 282 583 q 392 652 321 628 q 549 676 463 676 l 549 489 q 387 463 457 489 q 290 383 317 436 l 290 0 l 46 0 l 46 667 m 42 -68 l 294 -68 l 149 -361 l -74 -361 l 42 -68 z "},"ṛ":{"ha":572,"x_min":63,"x_max":565,"o":"m 63 667 l 299 667 l 299 583 q 408 652 338 628 q 565 676 479 676 l 565 489 q 403 463 474 489 q 307 383 333 436 l 307 0 l 63 0 l 63 667 m 193 -278 q 117 -247 149 -278 q 85 -171 85 -215 q 117 -95 85 -126 q 193 -64 149 -64 q 268 -95 238 -64 q 299 -171 299 -126 q 268 -247 299 -215 q 193 -278 238 -278 z "},"ṝ":{"ha":572,"x_min":63,"x_max":565,"o":"m 68 901 l 547 901 l 547 744 l 68 744 l 68 901 m 63 667 l 299 667 l 299 583 q 408 652 338 628 q 565 676 479 676 l 565 489 q 403 463 474 489 q 307 383 333 436 l 307 0 l 63 0 l 63 667 m 196 -278 q 119 -247 151 -278 q 88 -171 88 -215 q 119 -95 88 -126 q 196 -64 151 -64 q 271 -95 240 -64 q 301 -171 301 -126 q 271 -247 301 -215 q 196 -278 240 -278 z "},"ṟ":{"ha":585,"x_min":63,"x_max":578,"o":"m 75 667 l 311 667 l 311 583 q 421 652 350 628 q 578 676 492 676 l 578 489 q 416 463 486 489 q 319 383 346 436 l 319 0 l 75 0 l 75 667 m 63 -82 l 542 -82 l 542 -239 l 63 -239 l 63 -82 z "},"s":{"ha":707,"x_min":35,"x_max":672,"o":"m 350 -21 q 182 -5 269 -21 q 43 40 94 11 l 43 219 q 180 165 100 186 q 326 143 260 143 q 397 150 375 143 q 419 178 419 157 q 405 205 419 194 q 352 227 390 215 q 264 253 314 239 q 131 304 179 278 q 58 371 82 331 q 35 472 35 411 q 120 634 35 581 q 354 688 206 688 q 506 672 426 688 q 626 632 586 657 l 626 456 q 516 501 585 483 q 388 519 447 519 q 314 510 340 519 q 288 479 288 501 q 314 447 288 458 q 408 419 340 436 q 446 410 453 408 q 583 357 535 386 q 652 288 632 328 q 672 188 672 249 q 590 35 672 92 q 350 -21 507 -21 z "},"ś":{"ha":707,"x_min":35,"x_max":672,"o":"m 310 967 l 567 967 l 440 719 l 214 719 l 310 967 m 350 -21 q 182 -5 269 -21 q 43 40 94 11 l 43 219 q 180 165 100 186 q 326 143 260 143 q 397 150 375 143 q 419 178 419 157 q 405 205 419 194 q 352 227 390 215 q 264 253 314 239 q 131 304 179 278 q 58 371 82 331 q 35 472 35 411 q 120 634 35 581 q 354 688 206 688 q 506 672 426 688 q 626 632 586 657 l 626 456 q 516 501 585 483 q 388 519 447 519 q 314 510 340 519 q 288 479 288 501 q 314 447 288 458 q 408 419 340 436 q 446 410 453 408 q 583 357 535 386 q 652 288 632 328 q 672 188 672 249 q 590 35 672 92 q 350 -21 507 -21 z "},"š":{"ha":707,"x_min":35,"x_max":692,"o":"m 40 981 l 283 981 l 367 863 l 450 981 l 692 981 l 475 729 l 257 729 l 40 981 m 350 -21 q 182 -5 269 -21 q 43 40 94 11 l 43 219 q 180 165 100 186 q 326 143 260 143 q 397 150 375 143 q 419 178 419 157 q 405 205 419 194 q 352 227 390 215 q 264 253 314 239 q 131 304 179 278 q 58 371 82 331 q 35 472 35 411 q 120 634 35 581 q 354 688 206 688 q 506 672 426 688 q 626 632 586 657 l 626 456 q 516 501 585 483 q 388 519 447 519 q 314 510 340 519 q 288 479 288 501 q 314 447 288 458 q 408 419 340 436 q 446 410 453 408 q 583 357 535 386 q 652 288 632 328 q 672 188 672 249 q 590 35 672 92 q 350 -21 507 -21 z "},"ş":{"ha":707,"x_min":35,"x_max":672,"o":"m 672 188 q 618 58 672 111 q 461 -12 564 6 l 440 -64 q 533 -105 501 -74 q 564 -196 564 -136 q 504 -307 564 -269 q 342 -344 444 -344 q 251 -339 294 -344 q 185 -325 207 -333 l 185 -207 q 269 -226 221 -226 q 321 -214 303 -226 q 339 -179 339 -201 q 308 -138 339 -153 q 203 -124 276 -124 l 244 -14 q 43 40 113 1 l 43 219 q 180 165 100 186 q 326 143 260 143 q 397 150 375 143 q 419 178 419 157 q 405 205 419 194 q 352 227 390 215 q 264 253 314 239 q 131 304 179 278 q 58 371 82 331 q 35 472 35 411 q 120 634 35 581 q 354 688 206 688 q 506 672 426 688 q 626 632 586 657 l 626 456 q 516 501 585 483 q 388 519 447 519 q 314 510 340 519 q 288 479 288 501 q 314 447 288 458 q 408 419 340 436 q 446 410 453 408 q 583 357 535 386 q 652 288 632 328 q 672 188 672 249 z "},"ŝ":{"ha":707,"x_min":35,"x_max":688,"o":"m 253 981 l 471 981 l 688 729 l 446 729 l 363 847 l 279 729 l 36 729 l 253 981 m 350 -21 q 182 -5 269 -21 q 43 40 94 11 l 43 219 q 180 165 100 186 q 326 143 260 143 q 397 150 375 143 q 419 178 419 157 q 405 205 419 194 q 352 227 390 215 q 264 253 314 239 q 131 304 179 278 q 58 371 82 331 q 35 472 35 411 q 120 634 35 581 q 354 688 206 688 q 506 672 426 688 q 626 632 586 657 l 626 456 q 516 501 585 483 q 388 519 447 519 q 314 510 340 519 q 288 479 288 501 q 314 447 288 458 q 408 419 340 436 q 446 410 453 408 q 583 357 535 386 q 652 288 632 328 q 672 188 672 249 q 590 35 672 92 q 350 -21 507 -21 z "},"ș":{"ha":707,"x_min":35,"x_max":672,"o":"m 350 -21 q 182 -5 269 -21 q 43 40 94 11 l 43 219 q 180 165 100 186 q 326 143 260 143 q 397 150 375 143 q 419 178 419 157 q 405 205 419 194 q 352 227 390 215 q 264 253 314 239 q 131 304 179 278 q 58 371 82 331 q 35 472 35 411 q 120 634 35 581 q 354 688 206 688 q 506 672 426 688 q 626 632 586 657 l 626 456 q 516 501 585 483 q 388 519 447 519 q 314 510 340 519 q 288 479 288 501 q 314 447 288 458 q 408 419 340 436 q 446 410 453 408 q 583 357 535 386 q 652 288 632 328 q 672 188 672 249 q 590 35 672 92 q 350 -21 507 -21 m 257 -68 l 508 -68 l 364 -360 l 142 -360 l 257 -68 z "},"ṡ":{"ha":707,"x_min":35,"x_max":672,"o":"m 363 731 q 286 761 318 731 q 254 836 254 792 q 286 913 254 881 q 363 944 318 944 q 437 913 406 944 q 468 836 468 881 q 438 761 468 792 q 363 731 407 731 m 350 -21 q 182 -5 269 -21 q 43 40 94 11 l 43 219 q 180 165 100 186 q 326 143 260 143 q 397 150 375 143 q 419 178 419 157 q 405 205 419 194 q 352 227 390 215 q 264 253 314 239 q 131 304 179 278 q 58 371 82 331 q 35 472 35 411 q 120 634 35 581 q 354 688 206 688 q 506 672 426 688 q 626 632 586 657 l 626 456 q 516 501 585 483 q 388 519 447 519 q 314 510 340 519 q 288 479 288 501 q 314 447 288 458 q 408 419 340 436 q 446 410 453 408 q 583 357 535 386 q 652 288 632 328 q 672 188 672 249 q 590 35 672 92 q 350 -21 507 -21 z "},"ṣ":{"ha":707,"x_min":35,"x_max":672,"o":"m 350 -21 q 182 -5 269 -21 q 43 40 94 11 l 43 219 q 180 165 100 186 q 326 143 260 143 q 397 150 375 143 q 419 178 419 157 q 405 205 419 194 q 352 227 390 215 q 264 253 314 239 q 131 304 179 278 q 58 371 82 331 q 35 472 35 411 q 120 634 35 581 q 354 688 206 688 q 506 672 426 688 q 626 632 586 657 l 626 456 q 516 501 585 483 q 388 519 447 519 q 314 510 340 519 q 288 479 288 501 q 314 447 288 458 q 408 419 340 436 q 446 410 453 408 q 583 357 535 386 q 652 288 632 328 q 672 188 672 249 q 590 35 672 92 q 350 -21 507 -21 m 371 -278 q 294 -247 326 -278 q 263 -171 263 -215 q 294 -95 263 -126 q 371 -64 326 -64 q 446 -95 415 -64 q 476 -171 476 -126 q 446 -247 476 -215 q 371 -278 415 -278 z "},"ß":{"ha":900,"x_min":56,"x_max":865,"o":"m 549 -21 q 374 4 433 -21 l 374 207 q 493 179 417 179 q 585 215 553 179 q 617 311 617 251 q 474 438 617 438 l 400 438 l 400 607 l 460 607 q 542 640 515 607 q 568 728 568 674 q 536 806 568 778 q 444 833 504 833 q 338 801 376 833 q 300 707 300 769 l 300 0 l 56 0 l 56 679 q 156 939 56 844 q 443 1033 256 1033 q 658 989 575 1033 q 779 874 742 944 q 817 724 817 804 q 790 606 817 660 q 711 524 763 553 q 865 289 865 465 q 785 60 865 142 q 549 -21 706 -21 z "},"ə":{"ha":833,"x_min":35,"x_max":799,"o":"m 413 -21 q 208 24 293 -21 q 78 148 122 69 q 35 325 35 226 l 35 415 l 567 415 q 497 496 553 471 q 346 521 442 521 q 212 510 281 521 q 93 479 143 499 l 93 640 q 222 674 144 661 q 379 688 299 688 q 687 596 575 688 q 799 336 799 504 q 699 75 799 171 q 413 -21 600 -21 m 417 147 q 522 178 483 147 q 567 263 561 210 l 265 263 q 310 178 271 208 q 417 147 349 147 z "},"t":{"ha":536,"x_min":7,"x_max":529,"o":"m 351 -21 q 165 48 228 -21 q 101 236 101 117 l 101 497 l 7 497 l 7 667 l 101 667 l 101 867 l 346 867 l 346 667 l 499 667 l 499 497 l 346 497 l 346 269 q 366 192 346 215 q 438 168 386 168 q 529 193 483 168 l 529 11 q 452 -13 493 -6 q 351 -21 411 -21 z "},"ŧ":{"ha":538,"x_min":7,"x_max":531,"o":"m 353 -21 q 166 48 229 -21 q 103 236 103 117 l 103 289 l 7 289 l 7 419 l 103 419 l 103 504 l 8 504 l 8 667 l 103 667 l 103 867 l 347 867 l 347 667 l 500 667 l 500 504 l 347 504 l 347 419 l 499 419 l 499 289 l 347 289 l 347 269 q 368 192 347 215 q 439 168 389 168 q 531 193 485 168 l 531 11 q 453 -13 494 -6 q 353 -21 413 -21 z "},"ť":{"ha":749,"x_min":7,"x_max":792,"o":"m 539 1104 l 792 1104 l 646 811 l 424 811 l 539 1104 m 351 -21 q 165 48 228 -21 q 101 236 101 117 l 101 497 l 7 497 l 7 667 l 101 667 l 101 867 l 346 867 l 346 667 l 499 667 l 499 497 l 346 497 l 346 269 q 366 192 346 215 q 438 168 386 168 q 529 193 483 168 l 529 11 q 452 -13 493 -6 q 351 -21 411 -21 z "},"ţ":{"ha":567,"x_min":7,"x_max":560,"o":"m 436 -64 q 528 -105 497 -74 q 560 -196 560 -136 q 500 -307 560 -269 q 338 -344 440 -344 q 247 -339 290 -344 q 181 -325 203 -333 l 181 -207 q 265 -226 217 -226 q 317 -214 299 -226 q 335 -179 335 -201 q 303 -138 335 -153 q 199 -124 272 -124 l 244 -4 q 138 84 174 22 q 101 236 101 146 l 101 497 l 7 497 l 7 667 l 101 667 l 101 867 l 346 867 l 346 667 l 499 667 l 499 497 l 346 497 l 346 269 q 366 192 346 215 q 438 168 386 168 q 529 193 483 168 l 529 11 q 457 -12 492 -6 l 436 -64 z "},"ț":{"ha":536,"x_min":7,"x_max":529,"o":"m 351 -21 q 165 48 228 -21 q 101 236 101 117 l 101 497 l 7 497 l 7 667 l 101 667 l 101 867 l 346 867 l 346 667 l 499 667 l 499 497 l 346 497 l 346 269 q 366 192 346 215 q 438 168 386 168 q 529 193 483 168 l 529 11 q 452 -13 493 -6 q 351 -21 411 -21 m 217 -68 l 469 -68 l 324 -361 l 101 -361 l 217 -68 z "},"ẗ":{"ha":553,"x_min":-26,"x_max":546,"o":"m 82 917 q 6 947 38 917 q -26 1022 -26 978 q 6 1099 -26 1067 q 82 1131 38 1131 q 156 1099 125 1131 q 188 1022 188 1067 q 157 947 188 978 q 82 917 126 917 m 410 917 q 333 947 365 917 q 301 1022 301 978 q 333 1099 301 1067 q 410 1131 365 1131 q 484 1099 453 1131 q 515 1022 515 1067 q 484 947 515 978 q 410 917 453 917 m 368 -21 q 181 48 244 -21 q 118 236 118 117 l 118 497 l 24 497 l 24 667 l 118 667 l 118 867 l 363 867 l 363 667 l 515 667 l 515 497 l 363 497 l 363 269 q 383 192 363 215 q 454 168 403 168 q 546 193 500 168 l 546 11 q 469 -13 510 -6 q 368 -21 428 -21 z "},"ṭ":{"ha":536,"x_min":7,"x_max":529,"o":"m 351 -21 q 165 48 228 -21 q 101 236 101 117 l 101 497 l 7 497 l 7 667 l 101 667 l 101 867 l 346 867 l 346 667 l 499 667 l 499 497 l 346 497 l 346 269 q 366 192 346 215 q 438 168 386 168 q 529 193 483 168 l 529 11 q 452 -13 493 -6 q 351 -21 411 -21 m 339 -278 q 263 -247 294 -278 q 231 -171 231 -215 q 263 -95 231 -126 q 339 -64 294 -64 q 414 -95 383 -64 q 444 -171 444 -126 q 414 -247 444 -215 q 339 -278 383 -278 z "},"ṯ":{"ha":543,"x_min":7,"x_max":536,"o":"m 351 -21 q 165 48 228 -21 q 101 236 101 117 l 101 497 l 7 497 l 7 667 l 101 667 l 101 867 l 346 867 l 346 667 l 499 667 l 499 497 l 346 497 l 346 269 q 366 192 346 215 q 438 168 386 168 q 529 193 483 168 l 529 11 q 452 -13 493 -6 q 351 -21 411 -21 m 57 -82 l 536 -82 l 536 -239 l 57 -239 l 57 -82 z "},"u":{"ha":861,"x_min":56,"x_max":799,"o":"m 331 -21 q 124 56 193 -21 q 56 257 56 132 l 56 667 l 300 667 l 300 285 q 404 169 300 169 q 490 192 451 169 q 554 257 529 214 l 554 667 l 799 667 l 799 0 l 563 0 l 563 72 q 458 3 519 26 q 331 -21 397 -21 z "},"ú":{"ha":861,"x_min":56,"x_max":799,"o":"m 408 967 l 665 967 l 539 719 l 313 719 l 408 967 m 331 -21 q 124 56 193 -21 q 56 257 56 132 l 56 667 l 300 667 l 300 285 q 404 169 300 169 q 490 192 451 169 q 554 257 529 214 l 554 667 l 799 667 l 799 0 l 563 0 l 563 72 q 458 3 519 26 q 331 -21 397 -21 z "},"ŭ":{"ha":861,"x_min":56,"x_max":799,"o":"m 442 729 q 254 794 321 729 q 188 969 188 858 l 369 969 q 442 883 369 883 q 495 906 476 883 q 514 969 514 928 l 696 969 q 629 794 696 858 q 442 729 563 729 m 331 -21 q 124 56 193 -21 q 56 257 56 132 l 56 667 l 300 667 l 300 285 q 404 169 300 169 q 490 192 451 169 q 554 257 529 214 l 554 667 l 799 667 l 799 0 l 563 0 l 563 72 q 458 3 519 26 q 331 -21 397 -21 z "},"ǔ":{"ha":861,"x_min":56,"x_max":799,"o":"m 119 981 l 363 981 l 446 863 l 529 981 l 771 981 l 554 729 l 336 729 l 119 981 m 331 -21 q 124 56 193 -21 q 56 257 56 132 l 56 667 l 300 667 l 300 285 q 404 169 300 169 q 490 192 451 169 q 554 257 529 214 l 554 667 l 799 667 l 799 0 l 563 0 l 563 72 q 458 3 519 26 q 331 -21 397 -21 z "},"û":{"ha":861,"x_min":56,"x_max":799,"o":"m 322 981 l 540 981 l 757 729 l 515 729 l 432 847 l 349 729 l 106 729 l 322 981 m 331 -21 q 124 56 193 -21 q 56 257 56 132 l 56 667 l 300 667 l 300 285 q 404 169 300 169 q 490 192 451 169 q 554 257 529 214 l 554 667 l 799 667 l 799 0 l 563 0 l 563 72 q 458 3 519 26 q 331 -21 397 -21 z "},"ü":{"ha":861,"x_min":56,"x_max":799,"o":"m 269 731 q 193 761 225 731 q 161 836 161 792 q 193 913 161 881 q 269 944 225 944 q 344 913 313 944 q 375 836 375 881 q 344 761 375 792 q 269 731 314 731 m 597 731 q 521 761 553 731 q 489 836 489 792 q 521 913 489 881 q 597 944 553 944 q 672 913 640 944 q 703 836 703 881 q 672 761 703 792 q 597 731 640 731 m 331 -21 q 124 56 193 -21 q 56 257 56 132 l 56 667 l 300 667 l 300 285 q 404 169 300 169 q 490 192 451 169 q 554 257 529 214 l 554 667 l 799 667 l 799 0 l 563 0 l 563 72 q 458 3 519 26 q 331 -21 397 -21 z "},"ǘ":{"ha":861,"x_min":56,"x_max":799,"o":"m 422 1140 l 622 1140 l 525 964 l 353 964 l 422 1140 m 272 731 q 196 761 228 731 q 164 836 164 792 q 196 913 164 881 q 272 944 228 944 q 347 913 315 944 q 378 836 378 881 q 347 761 378 792 q 272 731 317 731 m 600 731 q 524 761 556 731 q 492 836 492 792 q 524 913 492 881 q 600 944 556 944 q 674 913 643 944 q 706 836 706 881 q 674 761 706 792 q 600 731 643 731 m 331 -21 q 124 56 193 -21 q 56 257 56 132 l 56 667 l 300 667 l 300 285 q 404 169 300 169 q 490 192 451 169 q 554 257 529 214 l 554 667 l 799 667 l 799 0 l 563 0 l 563 72 q 458 3 519 26 q 331 -21 397 -21 z "},"ǚ":{"ha":861,"x_min":56,"x_max":799,"o":"m 189 1114 l 367 1114 l 433 1038 l 500 1114 l 678 1114 l 504 935 l 363 935 l 189 1114 m 268 731 q 194 761 225 731 q 163 836 163 792 q 194 913 163 881 q 268 944 225 944 q 344 913 313 944 q 376 836 376 881 q 344 761 376 792 q 268 731 313 731 m 596 731 q 521 761 551 731 q 490 836 490 792 q 522 913 490 881 q 596 944 553 944 q 672 913 640 944 q 704 836 704 881 q 672 761 704 792 q 596 731 640 731 m 331 -21 q 124 56 193 -21 q 56 257 56 132 l 56 667 l 300 667 l 300 285 q 404 169 300 169 q 490 192 451 169 q 554 257 529 214 l 554 667 l 799 667 l 799 0 l 563 0 l 563 72 q 458 3 519 26 q 331 -21 397 -21 z "},"ǜ":{"ha":861,"x_min":56,"x_max":799,"o":"m 253 1140 l 453 1140 l 522 964 l 350 964 l 253 1140 m 275 731 q 201 761 232 731 q 169 836 169 792 q 201 913 169 881 q 275 944 232 944 q 351 913 319 944 q 383 836 383 881 q 351 761 383 792 q 275 731 319 731 m 603 731 q 528 761 558 731 q 497 836 497 792 q 528 913 497 881 q 603 944 560 944 q 679 913 647 944 q 711 836 711 881 q 679 761 711 792 q 603 731 647 731 m 331 -21 q 124 56 193 -21 q 56 257 56 132 l 56 667 l 300 667 l 300 285 q 404 169 300 169 q 490 192 451 169 q 554 257 529 214 l 554 667 l 799 667 l 799 0 l 563 0 l 563 72 q 458 3 519 26 q 331 -21 397 -21 z "},"ǖ":{"ha":861,"x_min":56,"x_max":799,"o":"m 196 1174 l 675 1174 l 675 1017 l 196 1017 l 196 1174 m 272 731 q 196 761 228 731 q 164 836 164 792 q 196 913 164 881 q 272 944 228 944 q 347 913 315 944 q 378 836 378 881 q 347 761 378 792 q 272 731 317 731 m 600 731 q 524 761 556 731 q 492 836 492 792 q 524 913 492 881 q 600 944 556 944 q 674 913 643 944 q 706 836 706 881 q 674 761 706 792 q 600 731 643 731 m 331 -21 q 124 56 193 -21 q 56 257 56 132 l 56 667 l 300 667 l 300 285 q 404 169 300 169 q 490 192 451 169 q 554 257 529 214 l 554 667 l 799 667 l 799 0 l 563 0 l 563 72 q 458 3 519 26 q 331 -21 397 -21 z "},"ụ":{"ha":861,"x_min":56,"x_max":799,"o":"m 331 -21 q 124 56 193 -21 q 56 257 56 132 l 56 667 l 300 667 l 300 285 q 404 169 300 169 q 490 192 451 169 q 554 257 529 214 l 554 667 l 799 667 l 799 0 l 563 0 l 563 72 q 458 3 519 26 q 331 -21 397 -21 m 440 -278 q 364 -247 396 -278 q 332 -171 332 -215 q 364 -95 332 -126 q 440 -64 396 -64 q 515 -95 485 -64 q 546 -171 546 -126 q 515 -247 546 -215 q 440 -278 485 -278 z "},"ù":{"ha":861,"x_min":56,"x_max":799,"o":"m 219 967 l 476 967 l 572 719 l 346 719 l 219 967 m 331 -21 q 124 56 193 -21 q 56 257 56 132 l 56 667 l 300 667 l 300 285 q 404 169 300 169 q 490 192 451 169 q 554 257 529 214 l 554 667 l 799 667 l 799 0 l 563 0 l 563 72 q 458 3 519 26 q 331 -21 397 -21 z "},"ủ":{"ha":861,"x_min":56,"x_max":799,"o":"m 325 828 q 408 840 379 828 q 436 883 436 853 q 354 929 436 929 q 312 925 336 929 q 275 915 288 921 l 275 1032 q 353 1048 306 1042 q 442 1054 400 1054 q 605 1015 549 1054 q 661 907 661 975 q 628 817 661 856 q 539 765 596 779 l 539 731 l 325 731 l 325 828 m 331 -21 q 124 56 193 -21 q 56 257 56 132 l 56 667 l 300 667 l 300 285 q 404 169 300 169 q 490 192 451 169 q 554 257 529 214 l 554 667 l 799 667 l 799 0 l 563 0 l 563 72 q 458 3 519 26 q 331 -21 397 -21 z "},"ư":{"ha":1113,"x_min":56,"x_max":1106,"o":"m 331 -21 q 124 56 193 -21 q 56 257 56 132 l 56 667 l 300 667 l 300 285 q 404 169 300 169 q 490 192 451 169 q 554 257 529 214 l 554 667 l 799 667 l 799 613 q 885 639 863 613 q 908 728 908 665 l 908 775 l 1106 775 l 1106 713 q 1033 514 1106 588 q 799 440 960 440 l 799 0 l 563 0 l 563 72 q 458 3 519 26 q 331 -21 397 -21 z "},"ứ":{"ha":1113,"x_min":56,"x_max":1106,"o":"m 379 972 l 636 972 l 510 725 l 283 725 l 379 972 m 331 -21 q 124 56 193 -21 q 56 257 56 132 l 56 667 l 300 667 l 300 285 q 404 169 300 169 q 490 192 451 169 q 554 257 529 214 l 554 667 l 799 667 l 799 613 q 885 639 863 613 q 908 728 908 665 l 908 775 l 1106 775 l 1106 713 q 1033 514 1106 588 q 799 440 960 440 l 799 0 l 563 0 l 563 72 q 458 3 519 26 q 331 -21 397 -21 z "},"ự":{"ha":1113,"x_min":56,"x_max":1106,"o":"m 331 -21 q 124 56 193 -21 q 56 257 56 132 l 56 667 l 300 667 l 300 285 q 404 169 300 169 q 490 192 451 169 q 554 257 529 214 l 554 667 l 799 667 l 799 613 q 885 639 863 613 q 908 728 908 665 l 908 775 l 1106 775 l 1106 713 q 1033 514 1106 588 q 799 440 960 440 l 799 0 l 563 0 l 563 72 q 458 3 519 26 q 331 -21 397 -21 m 413 -278 q 336 -247 368 -278 q 304 -171 304 -215 q 336 -95 304 -126 q 413 -64 368 -64 q 488 -95 457 -64 q 518 -171 518 -126 q 488 -247 518 -215 q 413 -278 457 -278 z "},"ừ":{"ha":1113,"x_min":56,"x_max":1106,"o":"m 190 1000 l 447 1000 l 543 753 l 317 753 l 190 1000 m 331 -21 q 124 56 193 -21 q 56 257 56 132 l 56 667 l 300 667 l 300 285 q 404 169 300 169 q 490 192 451 169 q 554 257 529 214 l 554 667 l 799 667 l 799 613 q 885 639 863 613 q 908 728 908 665 l 908 775 l 1106 775 l 1106 713 q 1033 514 1106 588 q 799 440 960 440 l 799 0 l 563 0 l 563 72 q 458 3 519 26 q 331 -21 397 -21 z "},"ử":{"ha":1113,"x_min":56,"x_max":1106,"o":"m 297 854 q 380 867 351 854 q 408 910 408 879 q 326 956 408 956 q 284 951 308 956 q 247 942 260 947 l 247 1058 q 325 1074 278 1068 q 414 1081 372 1081 q 577 1041 521 1081 q 633 933 633 1001 q 601 844 633 882 q 511 792 568 806 l 511 757 l 297 757 l 297 854 m 331 -21 q 124 56 193 -21 q 56 257 56 132 l 56 667 l 300 667 l 300 285 q 404 169 300 169 q 490 192 451 169 q 554 257 529 214 l 554 667 l 799 667 l 799 613 q 885 639 863 613 q 908 728 908 665 l 908 775 l 1106 775 l 1106 713 q 1033 514 1106 588 q 799 440 960 440 l 799 0 l 563 0 l 563 72 q 458 3 519 26 q 331 -21 397 -21 z "},"ữ":{"ha":1113,"x_min":56,"x_max":1106,"o":"m 133 940 q 279 999 182 999 q 340 990 310 999 q 419 964 371 982 q 492 938 461 947 q 553 929 522 929 q 699 999 640 929 l 699 821 q 553 764 651 764 q 485 773 518 764 q 407 800 451 782 q 335 825 363 817 q 279 833 308 833 q 133 763 193 833 l 133 940 m 331 -21 q 124 56 193 -21 q 56 257 56 132 l 56 667 l 300 667 l 300 285 q 404 169 300 169 q 490 192 451 169 q 554 257 529 214 l 554 667 l 799 667 l 799 613 q 885 639 863 613 q 908 728 908 665 l 908 775 l 1106 775 l 1106 713 q 1033 514 1106 588 q 799 440 960 440 l 799 0 l 563 0 l 563 72 q 458 3 519 26 q 331 -21 397 -21 z "},"ű":{"ha":856,"x_min":56,"x_max":835,"o":"m 250 976 l 486 976 l 360 731 l 154 731 l 250 976 m 600 976 l 835 976 l 710 731 l 504 731 l 600 976 m 331 -21 q 124 56 193 -21 q 56 257 56 132 l 56 667 l 300 667 l 300 285 q 404 169 300 169 q 490 192 451 169 q 554 257 529 214 l 554 667 l 799 667 l 799 0 l 563 0 l 563 72 q 458 3 519 26 q 331 -21 397 -21 z "},"ū":{"ha":861,"x_min":56,"x_max":799,"o":"m 206 901 l 685 901 l 685 744 l 206 744 l 206 901 m 331 -21 q 124 56 193 -21 q 56 257 56 132 l 56 667 l 300 667 l 300 285 q 404 169 300 169 q 490 192 451 169 q 554 257 529 214 l 554 667 l 799 667 l 799 0 l 563 0 l 563 72 q 458 3 519 26 q 331 -21 397 -21 z "},"ų":{"ha":868,"x_min":56,"x_max":806,"o":"m 739 -162 q 806 -146 775 -162 l 806 -279 q 663 -300 746 -300 q 531 -267 582 -300 q 481 -165 481 -233 q 507 -70 481 -112 q 579 0 533 -28 l 563 0 l 563 72 q 458 3 519 26 q 331 -21 397 -21 q 124 56 193 -21 q 56 257 56 132 l 56 667 l 300 667 l 300 285 q 404 169 300 169 q 490 192 451 169 q 554 257 529 214 l 554 667 l 799 667 l 799 0 l 801 0 q 718 -58 744 -31 q 692 -117 692 -86 q 704 -150 692 -137 q 739 -162 717 -162 z "},"ů":{"ha":861,"x_min":56,"x_max":799,"o":"m 429 729 q 331 755 376 729 q 260 825 286 781 q 233 922 233 869 q 260 1020 233 975 q 331 1091 286 1065 q 429 1117 376 1117 q 528 1091 482 1117 q 600 1020 574 1065 q 626 922 626 975 q 600 825 626 869 q 528 755 574 781 q 429 729 482 729 m 429 858 q 474 877 456 858 q 493 922 493 896 q 475 968 493 950 q 429 986 457 986 q 384 967 403 986 q 365 922 365 949 q 384 877 365 896 q 429 858 403 858 m 331 -21 q 124 56 193 -21 q 56 257 56 132 l 56 667 l 300 667 l 300 285 q 404 169 300 169 q 490 192 451 169 q 554 257 529 214 l 554 667 l 799 667 l 799 0 l 563 0 l 563 72 q 458 3 519 26 q 331 -21 397 -21 z "},"ũ":{"ha":861,"x_min":56,"x_max":799,"o":"m 169 908 q 315 967 218 967 q 376 958 346 967 q 456 932 407 950 q 528 906 497 915 q 589 897 558 897 q 735 967 676 897 l 735 789 q 589 732 688 732 q 521 741 554 732 q 443 768 488 750 q 372 793 399 785 q 315 801 344 801 q 169 731 229 801 l 169 908 m 331 -21 q 124 56 193 -21 q 56 257 56 132 l 56 667 l 300 667 l 300 285 q 404 169 300 169 q 490 192 451 169 q 554 257 529 214 l 554 667 l 799 667 l 799 0 l 563 0 l 563 72 q 458 3 519 26 q 331 -21 397 -21 z "},"v":{"ha":860,"x_min":35,"x_max":825,"o":"m 35 667 l 279 667 l 431 279 l 581 667 l 825 667 l 546 0 l 314 0 l 35 667 z "},"w":{"ha":1183,"x_min":35,"x_max":1149,"o":"m 35 667 l 279 667 l 386 285 l 493 667 l 690 667 l 797 285 l 904 667 l 1149 667 l 925 0 l 706 0 l 592 375 l 478 0 l 258 0 l 35 667 z "},"ẃ":{"ha":1183,"x_min":35,"x_max":1149,"o":"m 594 967 l 851 967 l 725 719 l 499 719 l 594 967 m 35 667 l 279 667 l 386 285 l 493 667 l 690 667 l 797 285 l 904 667 l 1149 667 l 925 0 l 706 0 l 592 375 l 478 0 l 258 0 l 35 667 z "},"ŵ":{"ha":1183,"x_min":35,"x_max":1149,"o":"m 483 981 l 701 981 l 918 729 l 676 729 l 593 847 l 510 729 l 267 729 l 483 981 m 35 667 l 279 667 l 386 285 l 493 667 l 690 667 l 797 285 l 904 667 l 1149 667 l 925 0 l 706 0 l 592 375 l 478 0 l 258 0 l 35 667 z "},"ẅ":{"ha":1183,"x_min":35,"x_max":1149,"o":"m 429 731 q 353 761 385 731 q 321 836 321 792 q 353 913 321 881 q 429 944 385 944 q 503 913 472 944 q 535 836 535 881 q 504 761 535 792 q 429 731 474 731 m 757 731 q 681 761 713 731 q 649 836 649 792 q 681 913 649 881 q 757 944 713 944 q 831 913 800 944 q 863 836 863 881 q 831 761 863 792 q 757 731 800 731 m 35 667 l 279 667 l 386 285 l 493 667 l 690 667 l 797 285 l 904 667 l 1149 667 l 925 0 l 706 0 l 592 375 l 478 0 l 258 0 l 35 667 z "},"ẁ":{"ha":1183,"x_min":35,"x_max":1149,"o":"m 368 967 l 625 967 l 721 719 l 494 719 l 368 967 m 35 667 l 279 667 l 386 285 l 493 667 l 690 667 l 797 285 l 904 667 l 1149 667 l 925 0 l 706 0 l 592 375 l 478 0 l 258 0 l 35 667 z "},"x":{"ha":917,"x_min":35,"x_max":882,"o":"m 321 344 l 53 667 l 328 667 l 458 510 l 589 667 l 864 667 l 596 344 l 882 0 l 610 0 l 458 181 l 308 0 l 35 0 l 321 344 z "},"y":{"ha":868,"x_min":35,"x_max":861,"o":"m 268 -275 q 175 -269 224 -275 q 103 -251 126 -262 l 103 -69 q 194 -86 143 -86 q 266 -66 240 -86 q 307 -3 292 -46 l 324 42 l 35 667 l 279 667 l 453 233 l 617 667 l 861 667 l 586 -31 q 462 -215 538 -156 q 268 -275 386 -275 z "},"ý":{"ha":868,"x_min":35,"x_max":861,"o":"m 421 969 l 678 969 l 551 722 l 325 722 l 421 969 m 268 -275 q 175 -269 224 -275 q 103 -251 126 -262 l 103 -69 q 194 -86 143 -86 q 266 -66 240 -86 q 307 -3 292 -46 l 324 42 l 35 667 l 279 667 l 453 233 l 617 667 l 861 667 l 586 -31 q 462 -215 538 -156 q 268 -275 386 -275 z "},"ŷ":{"ha":889,"x_min":56,"x_max":882,"o":"m 368 981 l 586 981 l 803 729 l 561 729 l 478 847 l 394 729 l 151 729 l 368 981 m 289 -275 q 196 -269 244 -275 q 124 -251 147 -262 l 124 -69 q 215 -86 164 -86 q 287 -66 261 -86 q 328 -3 313 -46 l 344 42 l 56 667 l 300 667 l 474 233 l 638 667 l 882 667 l 607 -31 q 483 -215 558 -156 q 289 -275 407 -275 z "},"ÿ":{"ha":868,"x_min":35,"x_max":861,"o":"m 294 731 q 218 761 250 731 q 186 836 186 792 q 218 913 186 881 q 294 944 250 944 q 369 913 338 944 q 400 836 400 881 q 369 761 400 792 q 294 731 339 731 m 622 731 q 546 761 578 731 q 514 836 514 792 q 546 913 514 881 q 622 944 578 944 q 697 913 665 944 q 728 836 728 881 q 697 761 728 792 q 622 731 665 731 m 268 -275 q 175 -269 224 -275 q 103 -251 126 -262 l 103 -69 q 194 -86 143 -86 q 266 -66 240 -86 q 307 -3 292 -46 l 324 42 l 35 667 l 279 667 l 453 233 l 617 667 l 861 667 l 586 -31 q 462 -215 538 -156 q 268 -275 386 -275 z "},"ẏ":{"ha":868,"x_min":35,"x_max":861,"o":"m 471 731 q 394 761 426 731 q 363 836 363 792 q 394 913 363 881 q 471 944 426 944 q 545 913 514 944 q 576 836 576 881 q 546 761 576 792 q 471 731 515 731 m 268 -275 q 175 -269 224 -275 q 103 -251 126 -262 l 103 -69 q 194 -86 143 -86 q 266 -66 240 -86 q 307 -3 292 -46 l 324 42 l 35 667 l 279 667 l 453 233 l 617 667 l 861 667 l 586 -31 q 462 -215 538 -156 q 268 -275 386 -275 z "},"ỵ":{"ha":868,"x_min":35,"x_max":861,"o":"m 268 -275 q 175 -269 224 -275 q 103 -251 126 -262 l 103 -69 q 194 -86 143 -86 q 266 -66 240 -86 q 307 -3 292 -46 l 324 42 l 35 667 l 279 667 l 453 233 l 617 667 l 861 667 l 586 -31 q 462 -215 538 -156 q 268 -275 386 -275 m 728 -268 q 651 -237 683 -268 q 619 -161 619 -206 q 651 -85 619 -117 q 728 -54 683 -54 q 803 -85 772 -54 q 833 -161 833 -117 q 803 -237 833 -206 q 728 -268 772 -268 z "},"ỳ":{"ha":868,"x_min":35,"x_max":861,"o":"m 236 967 l 493 967 l 589 719 l 363 719 l 236 967 m 268 -275 q 175 -269 224 -275 q 103 -251 126 -262 l 103 -69 q 194 -86 143 -86 q 266 -66 240 -86 q 307 -3 292 -46 l 324 42 l 35 667 l 279 667 l 453 233 l 617 667 l 861 667 l 586 -31 q 462 -215 538 -156 q 268 -275 386 -275 z "},"ỷ":{"ha":868,"x_min":35,"x_max":861,"o":"m 356 828 q 438 840 410 828 q 467 883 467 853 q 385 929 467 929 q 342 925 367 929 q 306 915 318 921 l 306 1032 q 383 1048 336 1042 q 472 1054 431 1054 q 635 1015 579 1054 q 692 907 692 975 q 659 817 692 856 q 569 765 626 779 l 569 731 l 356 731 l 356 828 m 268 -275 q 175 -269 224 -275 q 103 -251 126 -262 l 103 -69 q 194 -86 143 -86 q 266 -66 240 -86 q 307 -3 292 -46 l 324 42 l 35 667 l 279 667 l 453 233 l 617 667 l 861 667 l 586 -31 q 462 -215 538 -156 q 268 -275 386 -275 z "},"ỹ":{"ha":868,"x_min":35,"x_max":861,"o":"m 196 908 q 342 967 244 967 q 403 958 372 967 q 482 932 433 950 q 554 906 524 915 q 615 897 585 897 q 761 967 703 897 l 761 789 q 615 732 714 732 q 547 741 581 732 q 469 768 514 750 q 398 793 425 785 q 342 801 371 801 q 196 731 256 801 l 196 908 m 268 -275 q 175 -269 224 -275 q 103 -251 126 -262 l 103 -69 q 194 -86 143 -86 q 266 -66 240 -86 q 307 -3 292 -46 l 324 42 l 35 667 l 279 667 l 453 233 l 617 667 l 861 667 l 586 -31 q 462 -215 538 -156 q 268 -275 386 -275 z "},"z":{"ha":719,"x_min":35,"x_max":685,"o":"m 35 133 l 351 497 l 43 497 l 43 667 l 674 667 l 674 533 l 360 169 l 685 169 l 685 0 l 35 0 l 35 133 z "},"ź":{"ha":719,"x_min":35,"x_max":685,"o":"m 340 967 l 597 967 l 471 719 l 244 719 l 340 967 m 35 133 l 351 497 l 43 497 l 43 667 l 674 667 l 674 533 l 360 169 l 685 169 l 685 0 l 35 0 l 35 133 z "},"ž":{"ha":754,"x_min":63,"x_max":735,"o":"m 83 981 l 326 981 l 410 863 l 493 981 l 735 981 l 518 729 l 300 729 l 83 981 m 63 133 l 379 497 l 71 497 l 71 667 l 701 667 l 701 533 l 388 169 l 713 169 l 713 0 l 63 0 l 63 133 z "},"ż":{"ha":719,"x_min":35,"x_max":685,"o":"m 385 731 q 308 761 340 731 q 276 836 276 792 q 308 913 276 881 q 385 944 340 944 q 459 913 428 944 q 490 836 490 881 q 460 761 490 792 q 385 731 429 731 m 35 133 l 351 497 l 43 497 l 43 667 l 674 667 l 674 533 l 360 169 l 685 169 l 685 0 l 35 0 l 35 133 z "},"ẓ":{"ha":719,"x_min":35,"x_max":685,"o":"m 35 133 l 351 497 l 43 497 l 43 667 l 674 667 l 674 533 l 360 169 l 685 169 l 685 0 l 35 0 l 35 133 m 361 -278 q 285 -247 317 -278 q 253 -171 253 -215 q 285 -95 253 -126 q 361 -64 317 -64 q 436 -95 406 -64 q 467 -171 467 -126 q 436 -247 467 -215 q 361 -278 406 -278 z "},"ﬁ":{"ha":913,"x_min":7,"x_max":850,"o":"m 100 497 l 7 497 l 7 667 l 100 667 l 100 747 q 141 902 100 838 q 253 1000 182 967 q 414 1033 325 1033 q 547 1008 490 1033 l 547 814 q 460 833 508 833 q 344 726 344 833 l 344 667 l 843 667 l 843 0 l 599 0 l 599 497 l 344 497 l 344 0 l 100 0 l 100 497 m 719 756 q 627 792 664 756 q 590 883 590 828 q 628 974 590 938 q 719 1011 665 1011 q 812 974 774 1011 q 850 883 850 936 q 812 792 850 829 q 719 756 774 756 z "},"ﬂ":{"ha":910,"x_min":7,"x_max":847,"o":"m 100 497 l 7 497 l 7 667 l 100 667 l 100 750 q 141 904 100 840 q 253 1001 182 968 q 414 1033 325 1033 q 547 1008 490 1033 l 547 814 q 460 833 508 833 q 374 808 404 833 q 344 729 344 782 l 344 667 l 603 667 l 603 1006 l 847 1006 l 847 0 l 603 0 l 603 497 l 344 497 l 344 0 l 100 0 l 100 497 z "},"ª":{"ha":594,"x_min":35,"x_max":560,"o":"m 235 485 q 90 528 146 485 q 35 649 35 571 q 88 772 35 729 q 242 815 142 815 q 319 807 281 815 q 385 785 357 799 l 385 796 q 353 852 385 833 q 260 871 321 871 q 99 838 172 871 l 99 957 q 183 982 131 972 q 290 992 235 992 q 492 938 424 992 q 560 790 560 885 l 560 500 l 396 500 l 396 540 q 328 500 369 515 q 235 485 288 485 m 286 592 q 344 604 318 592 q 385 636 371 617 l 385 679 q 288 707 342 707 q 215 649 215 707 q 233 606 215 621 q 286 592 251 592 z "},"º":{"ha":660,"x_min":35,"x_max":625,"o":"m 331 483 q 115 553 196 483 q 35 738 35 622 q 71 869 35 811 q 174 959 107 926 q 331 992 242 992 q 485 959 418 992 q 589 869 553 926 q 625 738 625 811 q 544 553 625 622 q 331 483 464 483 m 331 621 q 413 653 382 621 q 444 738 444 685 q 414 823 444 792 q 331 854 383 854 q 247 823 278 854 q 215 738 215 792 q 247 653 215 685 q 331 621 278 621 z "},"ⁿ":{"ha":614,"x_min":42,"x_max":579,"o":"m 42 971 l 214 971 l 214 925 q 289 974 246 957 q 379 992 332 992 q 531 941 482 992 q 579 800 579 890 l 579 500 l 401 500 l 401 772 q 325 853 401 853 q 219 790 258 853 l 219 500 l 42 500 l 42 971 z "},"Δ":{"ha":951,"x_min":35,"x_max":917,"o":"m 35 174 l 375 992 l 576 992 l 917 174 l 917 0 l 35 0 l 35 174 m 674 210 l 475 692 l 276 210 l 674 210 z "},"Ω":{"ha":1114,"x_min":35,"x_max":1079,"o":"m 35 207 l 178 207 q 74 344 113 263 q 36 522 36 425 q 101 769 36 663 q 283 933 165 875 q 557 992 401 992 q 832 933 714 992 q 1014 769 950 875 q 1078 522 1078 663 q 1040 344 1078 425 q 936 207 1001 263 l 1079 207 l 1079 0 l 621 0 l 621 185 q 826 492 826 300 q 753 687 826 614 q 557 760 679 760 q 363 687 436 760 q 289 492 289 614 q 494 185 289 300 l 494 0 l 35 0 l 35 207 z "},"μ":{"ha":868,"x_min":63,"x_max":806,"o":"m 63 667 l 307 667 l 307 285 q 411 169 307 169 q 497 192 458 169 q 561 257 536 214 l 561 667 l 806 667 l 806 0 l 569 0 l 569 72 q 465 3 526 26 q 338 -21 404 -21 q 307 -19 317 -21 l 307 -304 l 63 -304 l 63 667 z "},"π":{"ha":938,"x_min":21,"x_max":917,"o":"m 767 -19 q 719 -17 753 -19 q 560 60 613 -7 q 507 240 507 126 l 507 460 l 368 460 l 368 0 l 122 0 l 122 460 l 21 460 l 21 667 l 854 667 l 854 460 l 753 460 l 753 265 q 771 193 753 215 q 832 171 789 171 q 917 194 876 171 l 917 8 q 767 -19 851 -19 z "},"ก":{"ha":907,"x_min":28,"x_max":844,"o":"m 97 433 l 28 554 q 460 764 197 764 q 744 683 644 764 q 844 458 844 601 l 844 0 l 600 0 l 600 439 q 460 574 600 574 q 290 517 357 574 l 342 429 l 342 0 l 97 0 l 97 433 z "},"ถ":{"ha":907,"x_min":28,"x_max":844,"o":"m 267 0 q 142 47 186 0 q 97 175 97 93 l 97 433 l 28 554 q 460 764 197 764 q 744 683 644 764 q 844 458 844 601 l 844 0 l 600 0 l 600 439 q 460 574 600 574 q 290 517 357 574 l 342 429 l 342 233 q 356 190 342 203 q 403 176 371 176 l 468 176 l 468 0 l 267 0 z "},"ภ":{"ha":919,"x_min":28,"x_max":857,"o":"m 28 176 l 85 176 q 126 187 117 176 q 136 229 136 197 l 136 433 l 39 554 q 225 709 115 654 q 472 764 335 764 q 757 683 657 764 q 857 458 857 601 l 857 0 l 613 0 l 613 439 q 471 574 613 574 q 308 519 376 574 l 381 429 l 381 176 q 337 47 381 94 q 211 0 293 0 l 28 0 l 28 176 z "},"ฤ":{"ha":907,"x_min":28,"x_max":844,"o":"m 600 439 q 460 574 600 574 q 290 517 357 574 l 342 429 l 342 233 q 356 190 342 203 q 403 176 371 176 l 468 176 l 468 0 l 267 0 q 142 47 186 0 q 97 175 97 93 l 97 433 l 28 554 q 460 764 197 764 q 744 683 644 764 q 844 458 844 601 l 844 -272 l 600 -272 l 600 439 z "},"ฦ":{"ha":919,"x_min":28,"x_max":857,"o":"m 613 439 q 471 574 613 574 q 308 519 376 574 l 381 429 l 381 176 q 337 47 381 94 q 211 0 293 0 l 28 0 l 28 176 l 85 176 q 126 187 117 176 q 136 229 136 197 l 136 433 l 39 554 q 225 709 115 654 q 472 764 335 764 q 757 683 657 764 q 857 458 857 601 l 857 -272 l 613 -272 l 613 439 z "},"ฎ":{"ha":926,"x_min":35,"x_max":864,"o":"m 214 -133 q 322 -80 258 -99 q 451 -61 385 -61 q 619 -97 551 -61 l 619 439 q 478 574 619 574 q 315 519 383 574 l 388 429 l 388 176 q 344 47 388 94 q 218 0 300 0 l 35 0 l 35 176 l 92 176 q 133 187 124 176 q 143 229 143 197 l 143 433 l 46 554 q 232 709 122 654 q 479 764 342 764 q 764 683 664 764 q 864 458 864 601 l 864 -307 l 658 -307 q 451 -239 578 -239 q 323 -259 386 -239 q 214 -317 260 -279 l 214 -133 z "},"ฏ":{"ha":926,"x_min":35,"x_max":864,"o":"m 297 -311 q 206 -299 250 -311 q 132 -264 161 -286 l 132 -87 q 274 -129 193 -129 q 350 -108 318 -129 q 392 -44 382 -86 l 507 -44 l 619 -110 l 619 439 q 478 574 619 574 q 315 519 383 574 l 388 429 l 388 176 q 344 47 388 94 q 218 0 300 0 l 35 0 l 35 176 l 92 176 q 133 187 124 176 q 143 229 143 197 l 143 433 l 46 554 q 232 709 122 654 q 479 764 342 764 q 764 683 664 764 q 864 458 864 601 l 864 -307 l 646 -307 l 494 -219 q 297 -311 432 -311 z "},"ญ":{"ha":1393,"x_min":28,"x_max":1351,"o":"m 961 -136 q 801 -122 878 -136 q 672 -83 724 -108 l 672 94 q 961 28 804 28 q 1094 47 1042 28 q 1147 104 1147 67 q 1143 128 1147 115 q 949 90 1060 90 q 746 131 831 90 q 617 242 661 171 q 572 408 572 314 l 572 439 q 541 541 572 508 q 446 574 510 574 q 363 560 400 574 q 290 517 325 547 l 342 429 l 342 233 q 356 190 342 203 q 403 176 371 176 l 468 176 l 468 0 l 267 0 q 142 47 186 0 q 97 175 97 93 l 97 433 l 28 554 q 446 764 197 764 q 718 682 624 764 q 813 458 813 600 l 813 433 q 844 319 813 357 q 949 281 875 281 q 1053 319 1021 281 q 1085 433 1085 358 l 1085 743 l 1329 743 l 1329 408 q 1285 246 1329 318 q 1351 94 1351 185 q 1300 -30 1351 22 q 1160 -109 1249 -82 q 961 -136 1071 -136 z "},"ข":{"ha":858,"x_min":35,"x_max":796,"o":"m 421 -21 q 218 14 303 -21 q 89 110 133 49 q 44 249 44 171 l 44 285 q 63 374 44 336 q 114 461 81 413 q 144 508 135 490 q 154 542 154 525 q 111 578 154 578 l 35 578 l 35 743 l 264 743 q 367 707 329 743 q 404 613 404 671 q 389 536 404 571 q 344 460 374 501 q 303 384 317 414 q 289 317 289 354 l 289 292 q 322 201 289 232 q 421 169 356 169 q 520 203 489 169 q 551 297 551 238 l 551 743 l 796 743 l 796 313 q 701 68 796 157 q 421 -21 606 -21 z "},"ฃ":{"ha":881,"x_min":35,"x_max":818,"o":"m 443 -21 q 240 14 325 -21 q 112 110 156 49 q 68 249 68 171 l 68 288 q 91 381 68 339 q 157 481 114 424 q 194 533 186 517 q 138 524 171 524 q 35 643 35 524 l 35 743 l 203 743 l 203 694 q 238 657 203 657 q 275 669 263 657 l 275 743 l 444 743 l 444 626 q 426 543 444 581 q 372 454 408 506 q 327 381 342 410 q 313 321 313 353 l 313 290 q 346 200 313 231 q 443 169 379 169 q 542 203 510 169 q 574 296 574 236 l 574 743 l 818 743 l 818 313 q 723 68 818 157 q 443 -21 628 -21 z "},"ช":{"ha":863,"x_min":35,"x_max":828,"o":"m 421 -21 q 218 14 303 -21 q 89 110 133 49 q 44 249 44 171 l 44 285 q 63 374 44 336 q 114 461 81 413 q 144 508 135 490 q 154 542 154 525 q 111 578 154 578 l 35 578 l 35 743 l 264 743 q 367 707 329 743 q 404 613 404 671 q 389 536 404 571 q 344 460 374 501 q 303 384 317 414 q 289 317 289 354 l 289 292 q 322 201 289 232 q 421 169 356 169 q 557 317 557 169 q 527 434 557 394 q 440 474 497 474 l 440 585 l 569 764 l 828 764 l 678 557 q 774 461 744 519 q 803 313 803 403 q 758 139 803 214 q 628 22 714 64 q 421 -21 542 -21 z "},"ซ":{"ha":896,"x_min":35,"x_max":861,"o":"m 454 -21 q 251 14 336 -21 q 122 110 167 49 q 78 249 78 171 l 78 288 q 101 385 78 340 q 163 485 124 431 l 194 533 q 138 524 171 524 q 35 643 35 524 l 35 743 l 203 743 l 203 694 q 238 657 203 657 q 275 669 263 657 l 275 743 l 444 743 l 444 626 q 428 543 444 581 q 378 454 411 506 q 336 382 350 411 q 322 321 322 353 l 322 292 q 356 201 322 232 q 454 169 389 169 q 590 317 590 169 q 560 434 590 394 q 474 474 531 474 l 474 585 l 603 764 l 861 764 l 711 557 q 807 461 778 519 q 836 313 836 403 q 792 139 836 214 q 661 22 747 64 q 454 -21 575 -21 z "},"ค":{"ha":914,"x_min":63,"x_max":851,"o":"m 63 443 q 169 683 63 601 q 457 764 276 764 q 745 683 639 764 q 851 443 851 601 l 851 0 l 607 0 l 607 439 q 457 574 607 574 q 307 439 307 574 l 307 350 q 354 381 325 369 q 417 393 383 393 l 519 393 l 519 217 l 407 217 q 335 191 363 217 q 307 119 307 165 l 307 0 l 63 0 l 63 443 z "},"ฅ":{"ha":914,"x_min":63,"x_max":851,"o":"m 63 518 q 122 697 63 629 q 296 764 182 764 q 393 747 351 764 q 457 696 435 729 q 521 747 479 729 q 618 764 563 764 q 792 697 733 764 q 851 518 851 629 l 851 0 l 607 0 l 607 499 q 596 556 607 538 q 554 574 585 574 q 519 558 531 574 q 500 510 507 542 l 414 510 q 395 558 407 543 q 360 574 383 574 q 318 556 329 574 q 307 499 307 538 l 307 350 q 352 381 324 369 q 417 393 381 393 l 519 393 l 519 217 l 407 217 q 334 190 361 217 q 307 119 307 163 l 307 0 l 63 0 l 63 518 z "},"ศ":{"ha":933,"x_min":63,"x_max":919,"o":"m 63 443 q 169 683 63 601 q 457 764 276 764 q 610 742 539 764 l 656 799 l 919 799 l 783 639 q 851 443 851 571 l 851 0 l 607 0 l 607 439 q 457 574 607 574 q 307 439 307 574 l 307 350 q 354 381 325 369 q 417 393 383 393 l 519 393 l 519 217 l 407 217 q 335 191 363 217 q 307 119 307 165 l 307 0 l 63 0 l 63 443 z "},"ด":{"ha":967,"x_min":35,"x_max":904,"o":"m 414 -21 q 138 72 240 -21 q 35 349 35 165 q 89 571 35 478 q 243 714 143 664 q 481 764 343 764 q 801 665 697 764 q 904 399 904 565 l 904 0 l 660 0 l 660 400 q 618 529 660 485 q 481 574 576 574 q 340 515 393 574 q 286 349 286 457 q 330 212 286 254 q 461 169 374 169 q 554 186 508 169 l 554 -1 q 414 -21 492 -21 z "},"ต":{"ha":967,"x_min":35,"x_max":904,"o":"m 414 -21 q 131 73 228 -21 q 35 356 35 167 q 74 574 35 482 q 181 715 113 667 q 335 764 250 764 q 425 745 386 764 q 488 696 464 726 q 661 764 538 764 q 839 698 774 764 q 904 526 904 632 l 904 0 l 660 0 l 660 499 q 647 555 660 536 q 606 574 635 574 q 539 506 553 574 l 440 506 q 382 574 431 574 q 313 518 339 574 q 286 356 286 463 q 328 215 286 260 q 461 169 369 169 q 554 186 508 169 l 554 -1 q 414 -21 492 -21 z "},"ท":{"ha":888,"x_min":63,"x_max":825,"o":"m 63 743 l 294 743 l 294 665 q 408 738 342 713 q 540 764 474 764 q 753 689 682 764 q 825 489 825 614 l 825 0 l 581 0 l 581 461 q 465 574 581 574 q 374 552 415 574 q 307 486 333 531 l 307 0 l 63 0 l 63 743 z "},"ฑ":{"ha":899,"x_min":35,"x_max":836,"o":"m 83 288 q 106 388 83 340 q 165 488 128 435 q 194 533 190 525 q 138 524 171 524 q 35 643 35 524 l 35 743 l 203 743 l 203 694 q 238 657 203 657 q 275 669 263 657 l 275 743 l 444 743 l 444 694 q 531 745 481 726 q 636 764 582 764 q 787 702 738 764 q 836 529 836 640 l 836 0 l 592 0 l 592 503 q 576 552 592 533 q 531 571 561 571 q 472 558 501 571 q 418 519 442 544 q 379 444 406 486 q 340 371 353 404 q 328 286 328 338 l 328 0 l 83 0 l 83 288 z "},"น":{"ha":888,"x_min":63,"x_max":825,"o":"m 351 -21 q 194 17 260 -21 q 96 122 129 56 q 63 271 63 188 l 63 743 l 307 743 l 307 286 q 339 199 307 228 q 431 169 371 169 q 518 191 482 169 q 581 257 554 213 l 581 743 l 825 743 l 825 0 l 593 0 l 593 76 q 483 5 547 31 q 351 -21 419 -21 z "},"ม":{"ha":888,"x_min":63,"x_max":825,"o":"m 536 -21 q 404 5 468 -21 q 294 76 340 31 l 294 0 l 63 0 l 63 743 l 307 743 l 307 257 q 369 191 333 213 q 457 169 406 169 q 549 199 517 169 q 581 286 581 228 l 581 743 l 825 743 l 825 271 q 792 122 825 188 q 693 17 758 56 q 536 -21 628 -21 z "},"ฌ":{"ha":1379,"x_min":28,"x_max":1317,"o":"m 1035 -21 q 906 4 967 -21 q 800 76 846 29 l 800 0 l 572 0 l 572 439 q 541 541 572 508 q 446 574 510 574 q 363 560 400 574 q 290 517 325 547 l 342 429 l 342 233 q 356 190 342 203 q 403 176 371 176 l 468 176 l 468 0 l 267 0 q 142 47 186 0 q 97 175 97 93 l 97 433 l 28 554 q 446 764 197 764 q 718 682 624 764 q 813 458 813 600 l 813 257 q 956 169 865 169 q 1041 199 1010 169 q 1072 286 1072 229 l 1072 743 l 1317 743 l 1317 271 q 1244 60 1317 142 q 1035 -21 1171 -21 z "},"ณ":{"ha":1375,"x_min":28,"x_max":1313,"o":"m 850 -21 q 644 60 715 -21 q 572 271 572 142 l 572 439 q 541 541 572 508 q 446 574 510 574 q 363 560 400 574 q 290 517 325 547 l 342 429 l 342 233 q 356 190 342 203 q 403 176 371 176 l 468 176 l 468 0 l 267 0 q 142 47 186 0 q 97 175 97 93 l 97 433 l 28 554 q 446 764 197 764 q 718 682 624 764 q 813 458 813 600 l 813 286 q 844 199 813 229 q 929 169 875 169 q 1068 257 1015 169 l 1068 743 l 1313 743 l 1313 0 l 1085 0 l 1085 76 q 978 4 1039 29 q 850 -21 918 -21 z "},"ฒ":{"ha":1460,"x_min":35,"x_max":1397,"o":"m 414 -21 q 137 75 239 -21 q 35 356 35 171 q 74 574 35 482 q 180 715 113 667 q 333 764 247 764 q 422 745 383 764 q 483 696 460 726 q 553 747 508 731 q 656 764 599 764 q 831 698 768 764 q 893 526 893 632 l 893 257 q 1036 169 946 169 q 1122 199 1090 169 q 1153 286 1153 229 l 1153 743 l 1397 743 l 1397 271 q 1324 60 1397 142 q 1115 -21 1251 -21 q 987 4 1047 -21 q 881 76 926 29 l 881 0 l 653 0 l 653 499 q 641 556 653 538 q 600 574 629 574 q 558 556 572 574 q 535 506 543 539 l 436 506 q 419 556 432 539 q 382 574 407 574 q 313 518 339 574 q 286 356 286 463 q 329 215 286 261 q 461 169 372 169 q 554 186 508 169 l 554 -1 q 414 -21 492 -21 z "},"ฆ":{"ha":893,"x_min":35,"x_max":831,"o":"m 542 -21 q 410 5 474 -21 q 300 76 346 31 l 300 0 l 68 0 l 68 288 q 91 381 68 339 q 157 481 114 424 q 194 533 186 517 q 138 524 171 524 q 35 643 35 524 l 35 743 l 203 743 l 203 694 q 238 657 203 657 q 275 669 263 657 l 275 743 l 444 743 l 444 626 q 426 543 444 581 q 372 454 408 506 q 327 381 342 410 q 313 321 313 353 l 313 257 q 375 191 339 213 q 463 169 411 169 q 554 199 522 169 q 586 286 586 228 l 586 743 l 831 743 l 831 271 q 797 122 831 188 q 699 17 764 56 q 542 -21 633 -21 z "}}}
